<svg width="288" height="52" viewBox="0 0 288 52" fill="none" xmlns="http://www.w3.org/2000/svg">
<g opacity="0.9">
<rect width="52" height="52" rx="26" fill="url(#paint0_linear_35739_58758)"/>
<path d="M13.1667 24.8333C13.1667 24.8333 15.71 15.5 26 15.5C36.29 15.5 38.8333 24.8333 38.8333 24.8333" stroke="white" stroke-width="2.33333" stroke-linecap="round" stroke-linejoin="round"/>
<path d="M26 21.3365C29.6685 21.2069 31.8333 23.9281 31.8333 27.1676C31.8333 30.4071 30.0185 32.9987 25.9093 32.9987C21.8 32.9987 20.1667 30.2127 20.1667 27.1676C20.1667 23.7078 22.5907 21.4531 26 21.3365Z" stroke="white" stroke-width="2.33333" stroke-linecap="round" stroke-linejoin="round"/>
</g>
<g opacity="0.9">
<rect x="59" width="52" height="52" rx="26" fill="#E8BA75"/>
<path d="M89.6176 24.502C89.6176 23.7869 89.6762 16.7553 89.6762 15.921C89.6762 14.3598 88.8558 13.1799 87.2268 13.168C85.6094 13.168 84.918 14.2883 84.918 16.6361" stroke="white" stroke-width="2.33333" stroke-linecap="round" stroke-linejoin="round"/>
<path d="M84.9788 24.0621C84.9788 23.4304 84.932 18.4606 84.932 16.8278C84.932 15.1951 83.6662 13.8841 82.1309 14.2774C80.3964 14.7184 80.2089 16.2558 80.1972 17.817C80.1855 19.3545 80.2323 20.8919 80.2441 22.4293C80.2441 23.6926 80.2206 29.0438 77.654 26.8747C77.1383 26.4338 76.775 25.7902 76.4117 25.2181C76.0367 24.6222 75.5562 24.074 74.935 23.7641C74.478 23.5377 73.9506 23.4423 73.4701 23.5973C72.6848 23.8475 72.1926 24.7176 72.1692 25.5637C72.134 26.4099 72.4739 27.2203 72.8841 27.9473C74.5131 30.8673 76.0367 34.252 78.5564 36.5521C80.8183 38.614 84.053 39.0907 86.9712 38.7212C90.8973 38.2326 93.628 35.8251 94.1319 30.9507C94.6359 26.0524 94.0733 19.128 93.7569 17.6383C93.1241 14.6826 90.2176 15.207 89.737 17.2926" stroke="white" stroke-width="2.33333" stroke-linecap="round" stroke-linejoin="round"/>
</g>
<g opacity="0.9">
<rect x="118" width="52" height="52" rx="26" fill="#A8C782"/>
<path d="M136.222 35.7858C138.428 39.9523 144.822 39.9007 146.452 35.3085C146.84 34.212 147.041 33.0511 147.492 31.9675C148.458 29.6456 150.714 28.3428 152.018 26.266C155.277 21.132 152.156 14.205 146.213 13.2891C141.287 12.541 136.811 15.3014 135.833 20.358" stroke="white" stroke-width="2.33333" stroke-linecap="round" stroke-linejoin="round"/>
<path d="M145.961 25.9911C146.634 25.3998 147.306 24.7959 147.844 24.0788C149.299 22.1664 149.006 19.6628 146.891 18.3417C144.384 16.7817 141.804 18.3417 140.655 20.7322C140.276 21.5248 139.946 22.3677 139.42 23.0849C138.894 23.802 137.5 24.6198 138.381 25.6263C139.2 26.5573 140.239 26.9473 140.166 28.4319C140.056 30.5581 137.904 31.0739 136.815 31.0739" stroke="white" stroke-width="2.33333" stroke-linecap="round" stroke-linejoin="round"/>
</g>
<g opacity="0.9">
<rect x="177" width="52" height="52" rx="26" fill="#B59DC0"/>
<path d="M197.167 14.332C196.91 17.5987 196.361 20.5037 195.754 22.5687C194.517 26.7804 192.041 27.1654 191.423 30.817C190.886 34.037 192.859 35.9737 194.937 36.4987" stroke="white" stroke-width="2.33333" stroke-linecap="round" stroke-linejoin="round"/>
<path d="M208.833 14.332C209.09 17.5987 209.639 20.5037 210.246 22.5687C211.484 26.7804 213.97 27.1654 214.577 30.817C215.114 34.037 213.141 35.9737 211.063 36.4987" stroke="white" stroke-width="2.33333" stroke-linecap="round" stroke-linejoin="round"/>
<path d="M210 33.0061C210 33.0061 207.947 32.8365 206.733 34.2838C205.905 35.2675 205.333 36.5 203 36.5C200.667 36.5 200.037 35.1884 199.267 34.2838C198.077 32.8704 196 33.0061 196 33.0061" stroke="white" stroke-width="2.33333" stroke-linecap="round" stroke-linejoin="round"/>
</g>
<g opacity="0.9">
<rect x="236" width="52" height="52" rx="26" fill="#EA9898"/>
<path d="M274.833 25.2232C274.88 22.7672 269.7 18.9521 266.153 19.1071C264.018 19.2025 263.167 19.8701 262 19.8701C260.833 19.8701 260.11 19.0117 257.847 19.0117C253.623 19.0117 249.167 23.0772 249.167 25.2112C249.167 27.3453 253.18 32.2572 256.972 32.8056C259.83 33.2229 260.18 32.603 262 32.603C263.82 32.603 264.333 33.0322 266.667 32.8772C271.695 32.5553 274.787 27.5599 274.833 25.1993V25.2232Z" stroke="white" stroke-width="2.33333" stroke-linecap="round" stroke-linejoin="round"/>
<path d="M249.167 25.1756C253.355 26.5466 256.248 24.8298 258.115 25.1398C259.632 25.3902 260.087 26.3082 262 26.3082C263.913 26.3082 264.718 25.271 266.282 25.1875C268.032 25.0921 271.987 26.5228 274.833 25.1875" stroke="white" stroke-width="2.33333" stroke-linecap="round" stroke-linejoin="round"/>
</g>
<defs>
<linearGradient id="paint0_linear_35739_58758" x1="26" y1="0" x2="26" y2="52" gradientUnits="userSpaceOnUse">
<stop stop-color="#98C8D8"/>
<stop offset="1" stop-color="#98C8D8"/>
</linearGradient>
</defs>
</svg>
