<svg width="20" height="20" viewBox="0 0 20 20" fill="none" xmlns="http://www.w3.org/2000/svg">
<path d="M4.42793 16.3443C5.89827 19.0483 10.1589 19.0148 11.245 16.0346C11.5039 15.323 11.6376 14.5696 11.9384 13.8664C12.5816 12.3596 14.0854 11.5141 14.9542 10.1663C17.1263 6.83445 15.0461 2.33902 11.0862 1.74465C7.80303 1.25911 4.82057 3.05058 4.16895 6.33217" stroke="white" stroke-width="1.66667" stroke-linecap="round" stroke-linejoin="round"/>
<path d="M10.9692 10.0167C11.4287 9.62323 11.8881 9.22141 12.2557 8.74424C13.2499 7.47179 13.0494 5.80588 11.6041 4.92689C9.89148 3.88884 8.12874 4.92689 7.34344 6.51745C7.08446 7.04485 6.85889 7.60573 6.49966 8.0829C6.14043 8.56007 5.18805 9.10421 5.78955 9.77392C6.34929 10.3934 7.0594 10.6529 7.00927 11.6407C6.93408 13.0555 5.46374 13.3987 4.72021 13.3987" stroke="white" stroke-width="1.66667" stroke-linecap="round" stroke-linejoin="round"/>
</svg>
