<svg width="307" height="336" viewBox="0 0 307 336" fill="none" xmlns="http://www.w3.org/2000/svg">
<path opacity="0.1" d="M153.5 335.338C190.128 335.338 219.821 321.655 219.821 304.775C219.821 287.895 190.128 274.211 153.5 274.211C116.872 274.211 87.1786 287.895 87.1786 304.775C87.1786 321.655 116.872 335.338 153.5 335.338Z" fill="black"/>
<path d="M142.743 264.066C137.642 264.176 140.471 270.332 140.301 276.722C140.223 279.668 139.961 282.006 139.652 283.533C139.435 284.624 138.523 285.497 137.333 285.653C130.44 286.588 110.254 289.331 110.625 296.345C110.842 300.459 116.653 301.348 116.653 301.348C116.653 301.348 113.237 306.46 116.653 308.969C120.873 312.04 128.121 307.52 128.121 307.52C128.121 307.52 128.245 312.616 133.562 312.943C142.635 313.52 151.924 299.851 150.44 291.981C150.192 290.64 149.157 287.928 148.786 287.133C147.828 285.076 148.183 282.317 148.415 276.41C148.647 270.051 149.188 263.942 142.727 264.082L142.743 264.066Z" fill="#EE7733" stroke="#020202" stroke-width="3" stroke-linecap="round" stroke-linejoin="round"/>
<path d="M128.121 307.504C128.029 306.6 128.121 306.055 128.121 306.055" stroke="black" stroke-width="3" stroke-linecap="round" stroke-linejoin="round"/>
<path d="M116.653 301.336C117.039 300.588 117.781 299.84 117.781 299.84" stroke="black" stroke-width="3" stroke-linecap="round" stroke-linejoin="round"/>
<path d="M125.463 294.319C125.463 294.319 127.735 292.994 130.301 292.105" stroke="black" stroke-width="3" stroke-linecap="round" stroke-linejoin="round"/>
<path d="M132.665 298.764C132.665 298.764 135.092 296.504 137.611 294.961" stroke="black" stroke-width="3" stroke-linecap="round" stroke-linejoin="round"/>
<path d="M164.257 264.066C169.358 264.176 166.529 270.332 166.699 276.722C166.777 279.668 167.039 282.006 167.349 283.533C167.565 284.624 168.477 285.497 169.667 285.653C176.56 286.588 196.746 289.331 196.375 296.345C196.158 300.459 190.347 301.348 190.347 301.348C190.347 301.348 193.948 306.6 190.192 308.735C185.942 311.151 178.879 307.52 178.879 307.52C178.879 307.52 178.755 312.616 173.438 312.943C164.366 313.52 155.076 299.851 156.56 291.981C156.808 290.64 157.843 287.928 158.214 287.133C159.172 285.076 158.817 282.317 158.585 276.41C158.353 270.051 157.812 263.942 164.273 264.082L164.257 264.066Z" fill="#EE7733" stroke="#020202" stroke-width="3" stroke-linecap="round" stroke-linejoin="round"/>
<path d="M178.863 307.504C178.956 306.6 178.863 306.055 178.863 306.055" stroke="black" stroke-width="3" stroke-linecap="round" stroke-linejoin="round"/>
<path d="M190.347 301.336C189.961 300.588 189.219 299.84 189.219 299.84" stroke="black" stroke-width="3" stroke-linecap="round" stroke-linejoin="round"/>
<path d="M181.537 294.319C181.537 294.319 179.265 292.994 176.699 292.105" stroke="black" stroke-width="3" stroke-linecap="round" stroke-linejoin="round"/>
<path d="M174.335 298.764C174.335 298.764 171.908 296.504 169.389 294.961" stroke="black" stroke-width="3" stroke-linecap="round" stroke-linejoin="round"/>
<path d="M193.237 200.787C202.31 216.186 209.76 235.98 202.155 254.013C193.593 274.352 172.341 279.402 153.5 279.402C134.659 279.402 113.407 274.352 104.845 254.013C97.1322 235.684 104.937 215.531 114.211 200.039" fill="white"/>
<path d="M193.237 200.787C202.31 216.186 209.76 235.98 202.155 254.013C193.593 274.352 172.341 279.402 153.5 279.402C134.659 279.402 113.407 274.352 104.845 254.013C97.1322 235.684 104.937 215.531 114.211 200.039" stroke="black" stroke-width="3" stroke-linecap="round" stroke-linejoin="round"/>
<path d="M165.668 243.271C175.385 250.533 215.236 252.166 224.824 232.153C234.427 212.139 202.13 193.619 191.3 185.455C185.586 181.147 180.502 177.711 174.82 173.621H132.209C126.544 177.726 121.088 182.081 115.729 185.455C104.221 192.717 72.6016 212.139 82.2053 232.153C91.8089 252.166 131.644 250.533 141.361 243.271" fill="white"/>
<path d="M165.668 243.271C175.385 250.533 215.236 252.166 224.824 232.153C234.427 212.139 202.13 193.619 191.3 185.455C185.586 181.147 180.502 177.711 174.82 173.621H132.209C126.544 177.726 121.088 182.081 115.729 185.455C104.221 192.717 72.6016 212.139 82.2053 232.153C91.8089 252.166 131.644 250.533 141.361 243.271" stroke="black" stroke-width="3" stroke-linecap="round" stroke-linejoin="round"/>
<path d="M130.828 176.666C133.164 172.841 134.272 168.69 134.411 164.077C134.737 152.801 130.35 149.423 129.513 137.428C128.83 127.638 131.156 119.365 137.217 113.72C141.062 110.138 147.201 108.324 153.464 108.309C159.727 108.34 165.881 110.185 169.726 113.767C175.818 119.428 178.159 127.701 177.493 137.506C176.687 149.501 172.315 152.864 172.656 164.139C172.795 168.753 174.59 172.841 176.271 176.729" fill="white"/>
<path d="M130.828 176.666C133.164 172.841 134.272 168.69 134.411 164.077C134.737 152.801 130.35 149.423 129.513 137.428C128.83 127.638 131.156 119.365 137.217 113.72C141.062 110.138 147.201 108.324 153.464 108.309C159.727 108.34 165.881 110.185 169.726 113.767C175.818 119.428 178.159 127.701 177.493 137.506C176.687 149.501 172.315 152.864 172.656 164.139C172.795 168.753 174.59 172.841 176.271 176.729" stroke="black" stroke-width="3" stroke-linecap="round" stroke-linejoin="round"/>
<path d="M161.66 135.526C160.903 135.229 160.238 134.653 159.774 133.874C158.491 131.66 156.096 130.18 153.345 130.18C150.593 130.18 148.198 131.676 146.915 133.874C146.467 134.668 145.787 135.229 145.029 135.526C141.351 136.96 139.125 137.193 138.955 140.934C138.661 147.355 145.555 148.259 153.499 148.259C161.444 148.259 168.136 147.807 168.043 141.043C167.981 137.193 165.323 136.96 161.644 135.51L161.66 135.526Z" fill="#FFC91E" stroke="black" stroke-width="3" stroke-linecap="round" stroke-linejoin="round"/>
<path d="M161.273 132.735C160.484 132.486 159.804 131.971 159.341 131.27C158.027 129.322 156.172 128.277 153.344 128.277C150.515 128.277 148.661 129.322 147.347 131.27C146.883 131.971 146.188 132.47 145.415 132.735C143.421 133.389 138.892 134.48 138.552 137.769C138.042 142.85 145.322 143.349 153.498 143.349C161.674 143.349 169.155 143.505 168.46 137.863C168.042 134.496 163.297 133.389 161.273 132.719V132.735Z" fill="#FFC91E" stroke="black" stroke-width="3" stroke-linecap="round" stroke-linejoin="round"/>
<path d="M161.878 124.494C163.779 125.398 165.603 125.475 167.658 124.556C168.245 124.291 168.972 124.836 168.786 125.46C168.06 127.954 164.536 128.717 162.403 127.315C161.646 126.816 159.992 125.226 161.198 124.462C161.429 124.353 161.677 124.384 161.878 124.494Z" fill="black"/>
<path d="M145.727 124.494C143.825 125.398 142.002 125.475 139.946 124.556C139.359 124.291 138.632 124.836 138.818 125.46C139.544 127.954 143.068 128.717 145.201 127.315C145.958 126.816 147.612 125.226 146.407 124.462C146.175 124.353 145.927 124.384 145.727 124.494Z" fill="black"/>
<path d="M192.375 205.979C183.937 203.463 176.718 200.979 174.393 194.466C172.523 189.258 170.165 183.86 166.686 178.828C162.426 172.681 153.5 174.656 153.5 181.981C153.5 189.29 153.5 198.638 153.5 210.868C153.5 223.097 155.955 236.155 165.743 243.592" fill="white"/>
<path d="M192.375 205.979C183.937 203.463 176.718 200.979 174.393 194.466C172.523 189.258 170.165 183.86 166.686 178.828C162.426 172.681 153.5 174.656 153.5 181.981C153.5 189.29 153.5 198.638 153.5 210.868C153.5 223.097 155.955 236.155 165.743 243.592" stroke="black" stroke-width="3" stroke-linecap="round" stroke-linejoin="round"/>
<path d="M114.625 205.979C123.063 203.463 130.282 200.979 132.607 194.466C134.477 189.258 136.835 183.86 140.314 178.828C144.574 172.681 153.5 174.656 153.5 181.981V210.868C153.5 223.097 151.045 236.155 141.257 243.592" fill="white"/>
<path d="M114.625 205.979C123.063 203.463 130.282 200.979 132.607 194.466C134.477 189.258 136.835 183.86 140.314 178.828C144.574 172.681 153.5 174.656 153.5 181.981V210.868C153.5 223.097 151.045 236.155 141.257 243.592" stroke="black" stroke-width="3" stroke-linecap="round" stroke-linejoin="round"/>
<g opacity="0.9">
<rect x="121" width="66" height="66" rx="33" fill="url(#paint0_linear_35751_45390)"/>
<path d="M137.5 31.5C137.5 31.5 140.77 19.5 154 19.5C167.23 19.5 170.5 31.5 170.5 31.5" stroke="white" stroke-width="3" stroke-linecap="round" stroke-linejoin="round"/>
<path d="M154 27.0057C158.717 26.8391 161.5 30.3378 161.5 34.5029C161.5 38.6679 159.167 42 153.883 42C148.6 42 146.5 38.418 146.5 34.5029C146.5 30.0546 149.617 27.1557 154 27.0057Z" stroke="white" stroke-width="3" stroke-linecap="round" stroke-linejoin="round"/>
</g>
<g opacity="0.9">
<rect x="39" y="28" width="66" height="66" rx="33" fill="#E8BA75"/>
<path d="M77.9369 59.0723C77.9369 58.1529 78.0122 49.1123 78.0122 48.0396C78.0122 46.0323 76.9575 44.5153 74.863 44.5C72.7836 44.5 71.8945 45.9404 71.8945 48.959" stroke="white" stroke-width="3" stroke-linecap="round" stroke-linejoin="round"/>
<path d="M71.9728 58.5067C71.9728 57.6946 71.9125 51.3048 71.9125 49.2056C71.9125 47.1063 70.2851 45.4207 68.3112 45.9264C66.0811 46.4934 65.84 48.47 65.825 50.4774C65.8099 52.4541 65.8702 54.4307 65.8852 56.4074C65.8852 58.0317 65.8551 64.9118 62.5551 62.123C61.8921 61.556 61.425 60.7286 60.9579 59.9931C60.4757 59.2269 59.8579 58.522 59.0593 58.1236C58.4717 57.8325 57.7936 57.7099 57.1758 57.9091C56.1662 58.2309 55.5334 59.3495 55.5032 60.4374C55.458 61.5254 55.895 62.5673 56.4224 63.5021C58.5169 67.2562 60.4757 71.608 63.7154 74.5654C66.6236 77.2163 70.7824 77.8292 74.5344 77.3542C79.5822 76.7259 83.0931 73.6307 83.7411 67.3635C84.389 61.0657 83.6657 52.1629 83.2589 50.2475C82.4452 46.4474 78.7083 47.1216 78.0905 49.8032" stroke="white" stroke-width="3" stroke-linecap="round" stroke-linejoin="round"/>
</g>
<g opacity="0.9">
<rect x="202" y="28" width="66" height="66" rx="33" fill="#A8C782"/>
<path d="M225 73.58C227.836 78.937 236.057 78.8706 238.152 72.9664C238.652 71.5566 238.91 70.064 239.49 68.6709C240.731 65.6856 243.632 64.0105 245.309 61.3403C249.499 54.7395 245.486 45.8333 237.846 44.6558C231.511 43.6939 225.757 47.243 224.5 53.7444" stroke="white" stroke-width="3" stroke-linecap="round" stroke-linejoin="round"/>
<path d="M237.522 60.9886C238.386 60.2283 239.251 59.4519 239.943 58.5298C241.813 56.0711 241.436 52.8521 238.717 51.1537C235.494 49.1478 232.177 51.1537 230.699 54.2271C230.212 55.2461 229.787 56.3299 229.111 57.252C228.435 58.174 226.643 59.2254 227.775 60.5195C228.828 61.7165 230.164 62.2179 230.07 64.1267C229.929 66.8604 227.162 67.5236 225.763 67.5236" stroke="white" stroke-width="3" stroke-linecap="round" stroke-linejoin="round"/>
</g>
<g opacity="0.9">
<rect y="102" width="66" height="66" rx="33" fill="#B59DC0"/>
<path d="M25.5 120C25.1698 124.2 24.4643 127.935 23.6837 130.59C22.0927 136.005 18.9105 136.5 18.1149 141.195C17.4244 145.335 19.9612 147.825 22.633 148.5" stroke="white" stroke-width="3" stroke-linecap="round" stroke-linejoin="round"/>
<path d="M40.5 120C40.8302 124.2 41.5357 127.935 42.3163 130.59C43.9074 136.005 47.1046 136.5 47.8851 141.195C48.5756 145.335 46.0388 147.825 43.367 148.5" stroke="white" stroke-width="3" stroke-linecap="round" stroke-linejoin="round"/>
<path d="M42 144.008C42 144.008 39.36 143.79 37.8 145.651C36.735 146.915 36 148.5 33 148.5C30 148.5 29.19 146.814 28.2 145.651C26.67 143.833 24 144.008 24 144.008" stroke="white" stroke-width="3" stroke-linecap="round" stroke-linejoin="round"/>
</g>
<g opacity="0.9">
<rect x="241" y="102" width="66" height="66" rx="33" fill="#EA9898"/>
<path d="M290.5 134.002C290.56 130.844 283.9 125.939 279.34 126.138C276.595 126.261 275.5 127.119 274 127.119C272.5 127.119 271.57 126.016 268.66 126.016C263.23 126.016 257.5 131.243 257.5 133.986C257.5 136.73 262.66 143.046 267.535 143.751C271.21 144.287 271.66 143.49 274 143.49C276.34 143.49 277 144.042 280 143.843C286.465 143.429 290.44 137.006 290.5 133.971V134.002Z" stroke="white" stroke-width="3" stroke-linecap="round" stroke-linejoin="round"/>
<path d="M257.5 133.939C262.885 135.702 266.605 133.494 269.005 133.893C270.955 134.215 271.54 135.395 274 135.395C276.46 135.395 277.495 134.062 279.505 133.954C281.755 133.832 286.84 135.671 290.5 133.954" stroke="white" stroke-width="3" stroke-linecap="round" stroke-linejoin="round"/>
</g>
<defs>
<linearGradient id="paint0_linear_35751_45390" x1="154" y1="0" x2="154" y2="66" gradientUnits="userSpaceOnUse">
<stop stop-color="#98C8D8"/>
<stop offset="1" stop-color="#98C8D8"/>
</linearGradient>
</defs>
</svg>
