<svg width="72" height="72" viewBox="0 0 72 72" fill="none" xmlns="http://www.w3.org/2000/svg">
<g id="Mouth">
<path id="Vector" d="M69 34.0074C69.12 27.6921 55.8 17.8819 46.68 18.2804C41.19 18.5257 39 20.2425 36 20.2425C33 20.2425 31.14 18.0352 25.32 18.0352C14.46 18.0352 3 28.4892 3 33.9768C3 39.4644 13.32 52.095 23.07 53.5052C30.42 54.5782 31.32 52.9841 36 52.9841C40.68 52.9841 42 54.0877 48 53.6892C60.93 52.8614 68.88 40.0162 69 33.9461V34.0074Z" stroke="#7B7968" stroke-width="6" stroke-linecap="round" stroke-linejoin="round"/>
<path id="Vector_2" d="M3 33.8818C13.77 37.4073 21.21 32.9927 26.01 33.7898C29.91 34.4336 31.08 36.7942 36 36.7942C40.92 36.7942 42.99 34.127 47.01 33.9124C51.51 33.6672 61.68 37.346 69 33.9124" stroke="#7B7968" stroke-width="6" stroke-linecap="round" stroke-linejoin="round"/>
</g>
</svg>
