<svg width="20" height="20" viewBox="0 0 20 20" fill="none" xmlns="http://www.w3.org/2000/svg">
<path d="M14.1467 8.92947C14.1467 8.4197 14.1886 3.40696 14.1886 2.81223C14.1886 1.69923 13.6025 0.858106 12.4386 0.849609C11.2831 0.849609 10.7891 1.64825 10.7891 3.322" stroke="white" stroke-width="1.66667" stroke-linecap="round" stroke-linejoin="round"/>
<path d="M10.8309 8.61536C10.8309 8.16507 10.7975 4.62216 10.7975 3.45818C10.7975 2.29421 9.89315 1.35963 8.79626 1.64C7.55703 1.95436 7.42305 3.05037 7.41468 4.16337C7.40631 5.25937 7.4398 6.35538 7.44817 7.45139C7.44817 8.35198 7.43143 12.1668 5.5977 10.6205C5.22927 10.3061 4.96971 9.84731 4.71014 9.43949C4.44219 9.01468 4.09889 8.62386 3.65511 8.40296C3.32856 8.24153 2.95176 8.17356 2.60846 8.28401C2.04746 8.46243 1.69578 9.08265 1.67904 9.68588C1.65392 10.2891 1.89674 10.8668 2.1898 11.3851C3.35368 13.4667 4.44219 15.8796 6.24243 17.5194C7.85846 18.9892 10.1695 19.329 12.2544 19.0657C15.0594 18.7173 17.0104 17.0011 17.3704 13.5262C17.7305 10.0342 17.3286 5.09795 17.1025 4.03592C16.6503 1.92887 14.5738 2.3027 14.2305 3.78953" stroke="white" stroke-width="1.66667" stroke-linecap="round" stroke-linejoin="round"/>
</svg>
