<svg width="162" height="163" viewBox="0 0 162 163" fill="none" xmlns="http://www.w3.org/2000/svg">
    <path opacity="0.1" d="M81.4596 140.49C108.246 140.49 129.96 132.743 129.96 123.187C129.96 113.631 108.246 105.885 81.4596 105.885C54.6735 105.885 32.959 113.631 32.959 123.187C32.959 132.743 54.6735 140.49 81.4596 140.49Z" fill="black"/>
    <path d="M63.3653 80.1387C56.1607 90.0409 40.5779 93.6921 30.1948 104.181C19.8117 114.67 35.745 126.634 52.4117 121.198C69.0703 115.762 71.2382 99.2178 72.6889 91.9725" fill="white"/>
    <path d="M63.3653 80.1387C56.1607 90.0409 40.5779 93.6921 30.1948 104.181C19.8117 114.67 35.745 126.634 52.4117 121.198C69.0703 115.762 71.2382 99.2178 72.6889 91.9725" stroke="black" stroke-width="1.7" stroke-linecap="round" stroke-linejoin="round"/>
    <path d="M64.0657 120.261C62.778 122.894 57.6761 127.686 53.1855 128.509L51.9141 124.948C51.9141 124.948 57.6109 122.234 60.0315 118.672C62.7128 114.711 64.0739 120.27 64.0739 120.27L64.0657 120.261Z" fill="#CE5B29" stroke="#020202" stroke-width="1.7" stroke-linecap="round" stroke-linejoin="round"/>
    <path d="M84.9646 127.401C67.4095 127.401 48.5911 120.97 51.1747 98.4031C53.0655 81.8912 66.2114 72.4209 84.5489 74.4666C89.5612 75.0289 94.6142 75.901 99.659 75.9091C101.68 75.9091 103.742 75.7706 105.592 74.8578C107.442 73.945 108.893 72.4943 110.825 71.8912C112.332 71.4103 114.019 71.5326 115.446 72.2253C118.624 73.7575 119.871 77.8407 120.857 81.0355C123.71 90.3346 123.922 101.639 119.692 110.538C116.766 116.692 111.631 121.182 105.551 123.799C99.0722 126.586 91.9165 127.409 84.9564 127.409L84.9646 127.401Z" fill="white" stroke="black" stroke-width="1.7" stroke-linecap="round" stroke-linejoin="round"/>
    <path d="M91.9904 77.4583C90.3033 75.4045 87.2552 71.8919 87.785 65.5919C88.0458 62.4379 89.5617 59.4957 90.3848 56.4884C91.8192 51.2479 91.6073 45.8119 87.8828 41.3864C83.8078 36.5453 74.4108 36.2438 69.855 39.9031C65.2991 43.5625 64.7694 50.1558 65.1932 53.9456C65.9022 60.27 67.0351 60.1396 65.8615 67.5072C64.5575 75.7142 55.5762 85.8365 55.5762 85.8365" fill="white"/>
    <path d="M91.9904 77.4583C90.3033 75.4045 87.2552 71.8919 87.785 65.5919C88.0458 62.4379 89.5617 59.4957 90.3848 56.4884C91.8192 51.2479 91.6073 45.8119 87.8828 41.3864C83.8078 36.5453 74.4108 36.2438 69.855 39.9031C65.2991 43.5625 64.7694 50.1558 65.1932 53.9456C65.9022 60.27 67.0351 60.1396 65.8615 67.5072C64.5575 75.7142 55.5762 85.8365 55.5762 85.8365" stroke="black" stroke-width="1.7" stroke-linecap="round" stroke-linejoin="round"/>
    <path d="M57.8648 122.331C58.3538 118.932 58.0523 115.363 57.2862 113.529C56.243 111.043 53.2845 110.677 51.1574 112.681C51.1574 112.681 49.0384 108.859 45.6806 110.416C43.9609 111.214 43.7979 113.765 43.7979 113.765C43.7979 113.765 41.5567 112.478 39.9593 114.173C35.762 118.631 46.9275 132.347 53.2112 130.269C54.9716 129.682 56.1941 128.036 56.9683 125.958" fill="#EE7733"/>
    <path d="M57.8648 122.331C58.3538 118.932 58.0523 115.363 57.2862 113.529C56.243 111.043 53.2845 110.677 51.1574 112.681C51.1574 112.681 49.0384 108.859 45.6806 110.416C43.9609 111.214 43.7979 113.765 43.7979 113.765C43.7979 113.765 41.5567 112.478 39.9593 114.173C35.762 118.631 46.9275 132.347 53.2112 130.269C54.9716 129.682 56.1941 128.036 56.9683 125.958" stroke="#020202" stroke-width="1.7" stroke-linecap="round" stroke-linejoin="round"/>
    <path d="M51.1566 112.682C50.5942 113.293 50.4883 114.01 50.4883 114.01" stroke="#020202" stroke-width="1.7" stroke-linecap="round" stroke-linejoin="round"/>
    <path d="M43.7888 113.758C43.7073 114.605 43.911 115.209 43.911 115.209L43.7888 113.758Z" fill="#EE7733"/>
    <path d="M43.7888 113.758C43.7073 114.605 43.911 115.209 43.911 115.209" stroke="#020202" stroke-width="1.7" stroke-linecap="round" stroke-linejoin="round"/>
    <path d="M50.6523 119.26C50.905 121.574 51.5407 123.196 51.5407 123.196L50.6523 119.26Z" fill="#EE7733"/>
    <path d="M50.6523 119.26C50.905 121.574 51.5407 123.196 51.5407 123.196" stroke="#020202" stroke-width="1.7" stroke-linecap="round" stroke-linejoin="round"/>
    <path d="M45.5586 120.254C46.504 122.112 47.5553 123.547 47.5553 123.547L45.5586 120.254Z" fill="#EE7733"/>
    <path d="M45.5586 120.254C46.504 122.112 47.5553 123.547 47.5553 123.547" stroke="#020202" stroke-width="1.7" stroke-linecap="round" stroke-linejoin="round"/>
    <path d="M79.6501 45.5835C79.2589 45.4042 78.8025 45.8036 78.9329 46.1296C79.4382 47.3602 80.9948 47.8329 82.3396 47.3847C82.9182 47.1972 83.6354 46.6104 83.3176 46.0888C83.2442 45.9666 82.9997 45.9503 82.853 45.9747C81.8343 46.1459 80.514 45.9747 79.6501 45.5754V45.5835Z" fill="black"/>
    <path d="M68.7713 45.2653C69.301 45.4202 70.2057 45.4527 71.2081 45.1593C71.5097 45.0697 71.8275 45.3142 71.7379 45.632C71.363 46.8871 69.6433 47.0338 68.6572 46.4959C68.266 46.284 67.8666 45.795 67.9807 45.4527C68.0296 45.2979 68.2334 45.1023 68.7713 45.2653Z" fill="black"/>
    <path d="M67.4737 56.2995C64.0996 55.5334 64.5153 51.7518 65.5911 50.6678C67.3026 48.9319 69.6661 49.2416 70.3507 48.9074C71.0353 48.5733 72.16 47.5871 74.1486 47.8398C76.5202 48.1413 76.7647 49.4209 77.6368 49.8121C78.9734 50.407 80.1633 51.0183 81.1494 52.1185C82.3719 53.4714 82.649 56.2832 79.1038 56.7559C77.5879 56.9596 72.1844 57.3753 67.4656 56.3076L67.4737 56.2995Z" fill="#FFC91E" stroke="#020202" stroke-width="1.7" stroke-miterlimit="10"/>
    <path d="M99.3976 88.0195C110.645 101.418 123.791 101.255 132.242 110.619C140.694 119.984 134.312 129.878 119.683 129.878C105.054 129.878 88.6314 117.971 87.3438 98.4108" fill="white"/>
    <path d="M99.3976 88.0195C110.645 101.418 123.791 101.255 132.242 110.619C140.694 119.984 134.312 129.878 119.683 129.878C105.054 129.878 88.6314 117.971 87.3438 98.4108" stroke="black" stroke-width="1.7" stroke-linecap="round" stroke-linejoin="round"/>
    <path d="M81.7688 135.029C88.9489 136.391 92.6735 126.333 93.3988 121.769C94.3198 115.95 89.3809 115.038 87.0826 117.996C87.0826 117.996 86.2187 114.206 83.3743 113.766C80.261 113.285 79.3971 116.782 79.3971 116.782C79.3971 116.782 76.3572 114.223 74.1893 116.472C71.4101 119.349 75.0206 133.742 81.7688 135.029Z" fill="#EE7733" stroke="#020202" stroke-width="1.7" stroke-linecap="round" stroke-linejoin="round"/>
    <path d="M79.5684 123.357C79.5684 123.357 79.7232 125.819 80.0003 127.416" stroke="black" stroke-width="1.7" stroke-linecap="round" stroke-linejoin="round"/>
    <path d="M85.5659 123.904C85.5659 123.904 84.9139 126.309 84.5879 127.898" stroke="black" stroke-width="1.7" stroke-linecap="round" stroke-linejoin="round"/>
    <path d="M79.4053 116.781C79.2016 117.441 79.1445 118.118 79.1445 118.118L79.4053 116.781Z" fill="#EE7733"/>
    <path d="M79.4053 116.781C79.2016 117.441 79.1445 118.118 79.1445 118.118" stroke="#020202" stroke-width="1.7" stroke-linecap="round" stroke-linejoin="round"/>
    <path d="M87.0915 117.996C86.7818 118.371 86.627 118.844 86.627 118.844L87.0915 117.996Z" fill="white"/>
    <path d="M87.0915 117.996C86.7818 118.371 86.627 118.844 86.627 118.844" stroke="black" stroke-width="1.7" stroke-linecap="round" stroke-linejoin="round"/>
    <path d="M111.679 52.3714C111.467 52.3714 111.247 52.3388 111.027 52.2736C110.212 52.0372 109.853 51.5238 109.707 51.1326C109.56 50.7495 109.544 50.3502 109.593 49.9753C108.509 49.9345 107.783 49.2988 107.685 48.2964C107.604 47.4569 107.905 46.9353 108.174 46.6338C108.492 46.2833 108.949 46.047 109.511 45.941C109.462 45.778 109.438 45.615 109.43 45.4602C109.381 44.6044 109.861 43.8954 110.758 43.5123C111.076 43.3738 111.394 43.3086 111.687 43.3086C112.372 43.3086 112.942 43.6672 113.309 44.311C113.333 44.3599 113.366 44.4088 113.39 44.474C113.668 44.3355 113.977 44.2377 114.32 44.2377C114.719 44.2377 115.322 44.3762 115.884 45.0282C116.496 45.7373 116.504 46.3893 116.406 46.8049C116.316 47.1635 116.121 47.4651 115.892 47.7096C116.186 47.9785 116.455 48.3208 116.577 48.7528C116.691 49.1603 116.716 49.7797 116.186 50.4806C115.599 51.2548 114.947 51.4178 114.515 51.4178C114.165 51.4178 113.822 51.3037 113.513 51.1326C113.154 51.8498 112.551 52.3714 111.695 52.3714H111.679Z" fill="#99DBFF"/>
    <path d="M111.673 44.1245C112.822 44.1245 112.928 45.9175 112.871 46.0071C112.871 46.0071 113.506 45.0536 114.305 45.0536C114.607 45.0536 114.933 45.1921 115.25 45.567C116.432 46.9362 114.403 47.7594 114.403 47.7594C114.403 47.7594 116.579 48.607 115.519 50.0006C115.177 50.457 114.818 50.62 114.492 50.62C113.702 50.62 113.066 49.6746 113.066 49.5931C113.066 49.6665 112.928 51.5736 111.673 51.5736C111.542 51.5736 111.404 51.5491 111.249 51.5084C109.57 51.0194 110.817 48.933 110.817 48.933C110.784 48.99 110.246 49.1856 109.692 49.1856C109.138 49.1856 108.559 48.9819 108.486 48.2402C108.355 46.9199 109.513 46.7162 110.263 46.7162C110.613 46.7162 110.866 46.7651 110.866 46.7651C110.768 46.7406 109.35 45.0128 111.053 44.2956C111.281 44.1978 111.485 44.1571 111.664 44.1571M111.673 42.4945C111.265 42.4945 110.849 42.5841 110.426 42.7634C109.26 43.2606 108.592 44.2223 108.6 45.3714C108.192 45.5426 107.842 45.7871 107.565 46.0968C107.19 46.5124 106.758 47.2541 106.872 48.3869C106.986 49.5442 107.703 50.3755 108.771 50.6771C108.796 50.9297 108.853 51.1824 108.95 51.435C109.26 52.2256 109.92 52.8042 110.809 53.0569C111.11 53.1465 111.404 53.1873 111.689 53.1873C112.626 53.1873 113.343 52.7716 113.84 52.1441C114.06 52.2011 114.289 52.2337 114.509 52.2337C115.128 52.2337 116.041 52.0137 116.831 50.9705C117.402 50.2207 117.589 49.3486 117.353 48.5336C117.263 48.2076 117.109 47.9142 116.929 47.6616C117.043 47.4578 117.133 47.2378 117.19 46.9933C117.312 46.4961 117.378 45.5181 116.497 44.4912C115.731 43.6029 114.884 43.4154 114.313 43.4154C114.109 43.4154 113.906 43.4399 113.718 43.4806C113.205 42.8449 112.488 42.4863 111.673 42.4863V42.4945Z" fill="#63BDE5"/>
    <path d="M112.372 48.7867C112.903 48.7867 113.334 48.3561 113.334 47.825C113.334 47.2938 112.903 46.8633 112.372 46.8633C111.841 46.8633 111.41 47.2938 111.41 47.825C111.41 48.3561 111.841 48.7867 112.372 48.7867Z" fill="white"/>
    <path d="M43.6989 66.4302C43.0469 66.4302 42.566 66.0879 42.2237 65.6559C41.8651 65.9493 41.4006 66.1938 40.8708 66.1938C40.5122 66.1938 39.9743 66.0797 39.4446 65.5337C38.5399 64.5964 38.7111 63.7244 38.8985 63.2924C38.9719 63.1131 39.0778 62.942 39.2001 62.7871C38.8904 62.5752 38.6051 62.29 38.4177 61.9232C38.2302 61.5483 38.0835 60.9452 38.4421 60.171C38.8007 59.4049 39.4201 58.9811 40.2025 58.9811C40.4552 58.9811 40.6997 59.03 40.9279 59.0952C40.9605 58.924 41.0012 58.7692 41.0501 58.6388C41.3354 57.889 41.9629 57.457 42.7535 57.457C42.7698 57.457 42.8594 57.457 42.8676 57.457C43.7885 57.5059 44.2857 57.9542 44.5383 58.3209C44.8073 58.7121 44.9051 59.1767 44.9214 59.6086C45.0192 59.5923 45.117 59.5923 45.2066 59.5923C46.1683 59.5923 46.8774 60.1791 47.1382 61.206C47.3582 62.0781 47.1056 62.6486 46.8529 62.9746C46.5677 63.3413 46.1765 63.5532 45.7934 63.6673C45.8831 63.9281 45.932 64.2134 45.9075 64.5068C45.8668 64.9387 45.663 65.5581 44.8725 66.0471C44.4813 66.2916 44.0819 66.422 43.6907 66.422L43.6989 66.4302Z" fill="#FFCA61"/>
    <path d="M42.7556 58.2726C42.7556 58.2726 42.8045 58.2726 42.829 58.2726C44.7687 58.3704 43.9374 60.848 43.9374 60.848C43.9618 60.7991 44.5894 60.4079 45.2169 60.4079C45.6896 60.4079 46.1623 60.6361 46.3579 61.4103C46.7002 62.7551 45.5022 62.9914 44.8094 62.9914C44.5649 62.9914 44.3856 62.9588 44.3612 62.9425C44.3612 62.9425 45.9749 64.4014 44.4427 65.3631C44.1574 65.5424 43.9129 65.6157 43.701 65.6157C42.7475 65.6157 42.4052 64.1976 42.4052 64.1976C42.4052 64.1976 41.7287 65.3794 40.8648 65.3794C40.5959 65.3794 40.3106 65.2653 40.0254 64.9719C38.6806 63.5864 40.6529 62.6084 40.7996 62.6084C40.7263 62.5921 38.4524 62.0868 39.1778 60.522C39.4304 59.9841 39.8053 59.8048 40.2047 59.8048C40.9708 59.8048 41.7939 60.4812 41.7939 60.4812C41.6961 60.3916 41.3538 58.2726 42.7556 58.2726ZM42.7556 56.6426C41.688 56.6426 40.8078 57.2131 40.3677 58.1748C40.3106 58.1748 40.2617 58.1748 40.2047 58.1748C39.1044 58.1748 38.1916 58.7779 37.7026 59.8374C37.3196 60.6687 37.3114 61.5407 37.6863 62.2905C37.8086 62.5432 37.9716 62.7632 38.1509 62.9588C38.1509 62.9588 38.1509 62.967 38.1509 62.9751C37.7026 64.0346 37.9634 65.1756 38.8681 66.1047C39.5934 66.8545 40.3595 67.0094 40.8811 67.0094C41.3538 67.0094 41.7695 66.8871 42.1362 66.6997C42.5682 67.0338 43.0979 67.2457 43.7173 67.2457C44.2634 67.2457 44.8013 67.0746 45.331 66.7486C46.1623 66.227 46.6676 65.4609 46.741 64.5888C46.7573 64.4421 46.7573 64.2954 46.741 64.1569C47.0425 63.9776 47.3115 63.7494 47.5152 63.4804C47.8168 63.0974 48.265 62.2661 47.9472 61.011C47.6293 59.7885 46.7654 58.9735 45.6407 58.8186C45.5592 58.4926 45.4288 58.1748 45.2251 57.8732C44.7279 57.1397 43.9048 56.7078 42.9268 56.6589C42.8697 56.6589 42.8208 56.6589 42.7638 56.6589L42.7556 56.6426Z" fill="#E89236"/>
    <path d="M42.6414 63.1461C43.1725 63.1461 43.6031 62.7155 43.6031 62.1844C43.6031 61.6532 43.1725 61.2227 42.6414 61.2227C42.1103 61.2227 41.6797 61.6532 41.6797 62.1844C41.6797 62.7155 42.1103 63.1461 42.6414 63.1461Z" fill="white"/>
    <path d="M56.4883 33.3731C55.5592 33.365 55.0539 32.933 54.785 32.5826C54.4997 32.1995 54.3856 31.7431 54.3449 31.3112C54.2145 31.3356 54.0841 31.3438 53.97 31.3438C53.0572 31.3438 52.3563 30.7814 52.0629 29.8116C51.8021 28.9314 52.0466 28.3446 52.2992 28.0023C52.5682 27.6437 52.9431 27.4236 53.3098 27.3014C53.212 27.0487 53.1468 26.7635 53.1631 26.4619C53.1876 26.03 53.3669 25.4024 54.133 24.8808C54.5405 24.6037 54.9561 24.457 55.3636 24.457C56.0075 24.457 56.4802 24.783 56.8062 25.1661C57.1729 24.8401 57.6456 24.5793 58.208 24.5793C58.5503 24.5793 59.0637 24.6852 59.5853 25.1824C60.547 26.0952 60.3922 26.9917 60.2129 27.4399C60.1477 27.6029 60.0499 27.7659 59.9439 27.9208C60.2618 28.1245 60.5633 28.3935 60.7589 28.7521C60.9627 29.1188 61.1338 29.7138 60.8078 30.4962C60.4737 31.2949 59.8217 31.7513 59.0067 31.7513C58.7866 31.7513 58.5666 31.7187 58.3628 31.6616C58.3384 31.8491 58.2976 32.0284 58.2487 32.1669C57.9716 32.933 57.3441 33.3813 56.5209 33.3813H56.4965L56.4883 33.3731Z" fill="#97DD97"/>
    <path d="M55.3708 25.2651C56.2999 25.2651 56.6829 26.6262 56.6829 26.6262C56.6829 26.6262 57.3268 25.3874 58.2151 25.3874C58.4759 25.3874 58.7449 25.4933 59.0383 25.7623C60.4401 27.0907 58.4922 28.1584 58.3618 28.1584C58.4352 28.1747 60.7253 28.5903 60.0652 30.1714C59.8288 30.7419 59.4295 30.9294 59.0138 30.9294C58.264 30.9294 57.4572 30.3181 57.4572 30.3181C57.5631 30.3996 57.9951 32.5594 56.5199 32.5594C56.5199 32.5594 56.5118 32.5594 56.5036 32.5594C54.5639 32.5349 55.2893 30.0329 55.2893 30.0329C55.2648 30.0899 54.6128 30.53 53.9771 30.53C53.5207 30.53 53.0725 30.31 52.8524 29.5765C52.4286 28.1665 53.7897 27.9302 54.4498 27.9302C54.6291 27.9302 54.7595 27.9465 54.784 27.9628C54.784 27.9628 53.1132 26.5691 54.6047 25.5422C54.8981 25.3466 55.1507 25.2651 55.3789 25.2651M55.3708 23.6351C54.7921 23.6351 54.2216 23.8226 53.6756 24.1975C52.8606 24.7517 52.396 25.5422 52.3553 26.4143C52.3553 26.561 52.3553 26.7077 52.3716 26.8462C52.1108 27.0092 51.8581 27.2293 51.6544 27.5064C51.3528 27.9057 50.9127 28.7696 51.2958 30.0329C51.6625 31.2554 52.5427 32.0215 53.6837 32.1356C53.7815 32.4534 53.9201 32.7713 54.1401 33.0565C54.6699 33.7737 55.5012 34.1731 56.4873 34.1812C57.6446 34.1812 58.5574 33.57 58.9731 32.5512C58.9894 32.5512 58.9975 32.5512 59.0138 32.5512C60.1548 32.5512 61.1084 31.8911 61.5648 30.7908C61.9152 29.9514 61.8826 29.0793 61.4833 28.3377C61.3447 28.0932 61.1817 27.8731 60.9943 27.6857C61.4099 26.6017 61.1084 25.4689 60.163 24.5724C59.4458 23.8878 58.7123 23.7492 58.2233 23.7492C57.7343 23.7492 57.2697 23.8959 56.8867 24.1078C56.471 23.8144 55.9739 23.627 55.3871 23.627L55.3708 23.6351Z" fill="#64A464"/>
    <path d="M56.5281 29.6089C57.0592 29.6089 57.4898 29.1784 57.4898 28.6472C57.4898 28.1161 57.0592 27.6855 56.5281 27.6855C55.997 27.6855 55.5664 28.1161 55.5664 28.6472C55.5664 29.1784 55.997 29.6089 56.5281 29.6089Z" fill="white"/>
    <path d="M71.3045 52.6655C75.3958 52.9752 75.6321 54.8742 81.6794 54.7356C81.6794 54.7356 82.7308 58.941 71.1985 57.2947C66.6753 56.6509 65.4202 55.1513 65.1268 54.1081C65.086 53.8147 65.3794 53.6517 65.9907 53.5783C66.879 53.4805 68.615 52.4618 71.3045 52.6655Z" fill="#FFC91E" stroke="#020202" stroke-width="1.7" stroke-linecap="round" stroke-linejoin="round"/>
</svg>
