<svg width="61" height="61" viewBox="0 0 61 61" fill="none" xmlns="http://www.w3.org/2000/svg">
<g filter="url(#filter0_d_26432_36729)">
<path d="M3.12891 31.7364C3.12891 29.2153 40.1779 18.0581 42.4901 19.0773C46.0928 20.6865 59.4821 37.7978 59.7509 40.1043C59.966 41.8744 22.917 56.0355 19.3681 55.0699C16.3031 54.2117 3.12891 34.5794 3.12891 31.7901V31.7364Z" fill="#FFFAE3"/>
<path d="M19.7448 56.1418C19.4759 56.1418 19.2608 56.1418 19.0458 56.0882C15.443 55.069 2 34.9002 2 31.7355C2 30.9308 2.69904 30.3944 3.29053 29.9653C8.02247 26.9078 39.9093 16.8234 42.8668 18.0572C46.7384 19.7737 60.4503 37.1531 60.7729 39.9424C60.8267 40.6397 60.2889 41.1225 60.1276 41.2834C57.1702 43.8045 25.9824 56.1418 19.7448 56.1418ZM4.25843 31.95C5.01124 35.4366 17.4326 53.2989 19.691 53.9962C22.5947 54.7472 54.5353 42.9999 58.5682 39.8351C57.1702 36.7776 45.2865 21.4902 42.0602 20.0419C38.7263 19.5055 7.16212 29.4289 4.25843 31.95Z" fill="black"/>
<path d="M33.9941 38.3328C29.2621 38.3328 9.63532 34.2025 3.39776 32.8615C2.80626 32.7542 2.42986 32.1641 2.59118 31.5741C2.69872 30.984 3.29021 30.6086 3.88171 30.7695C17.3785 33.6661 32.596 36.6163 34.2629 36.1871C35.4459 35.4362 38.8873 26.8537 41.3071 19.3441C41.4684 18.7541 42.1137 18.4322 42.6514 18.6468C43.2429 18.8077 43.5117 19.4514 43.3504 19.9878C41.2533 26.4783 37.3817 37.4745 34.8544 38.2255C34.6931 38.2255 34.3705 38.2791 33.9941 38.2791V38.3328Z" fill="#C1B093"/>
<path d="M21.5187 49.8677C21.5187 49.8677 21.3036 49.8677 21.1423 49.814C20.6046 49.5995 20.282 49.0094 20.4971 48.473L24.8526 36.1894C25.0677 35.653 25.6592 35.3312 26.1969 35.5457C26.7346 35.7603 27.0573 36.3503 26.8422 36.8867L22.4866 49.1704C22.3253 49.5995 21.8951 49.8677 21.465 49.8677H21.5187Z" fill="#C1B093"/>
<path d="M50.9322 38.4954C50.9322 38.4954 50.7171 38.4954 50.6096 38.4954L37.9731 34.3651C37.4354 34.2041 37.1128 33.5604 37.2741 33.024C37.4354 32.4876 38.0807 32.1658 38.6184 32.3267L51.2548 36.457C51.7926 36.6179 52.1152 37.2616 51.9539 37.798C51.7926 38.2272 51.3624 38.549 50.9322 38.549V38.4954Z" fill="#C1B093"/>
<path d="M19.7448 56.1418C19.4759 56.1418 19.2608 56.1418 19.0458 56.0882C15.443 55.069 2 34.9002 2 31.7355C2 30.9308 2.69904 30.3944 3.29053 29.9653C8.02247 26.9078 39.9093 16.8234 42.8668 18.0572C46.7384 19.7737 60.4503 37.1531 60.7729 39.9424C60.8267 40.6397 60.2889 41.1225 60.1276 41.2834C57.1702 43.8045 25.9824 56.1418 19.7448 56.1418ZM4.25843 31.95C5.01124 35.4366 17.4326 53.2989 19.691 53.9962C22.5947 54.7472 54.5353 42.9999 58.5682 39.8351C57.1702 36.7776 45.2865 21.4902 42.0602 20.0419C38.7263 19.5055 7.16212 29.4289 4.25843 31.95Z" fill="black"/>
</g>
<path d="M3.12891 25.4181C3.12891 22.897 40.1779 11.7398 42.4901 12.759C46.0928 14.3682 59.4821 31.4794 59.7509 33.786C59.966 35.5561 22.917 49.7171 19.3681 48.7516C16.3031 47.8933 3.12891 28.261 3.12891 25.4717V25.4181Z" fill="#FFFAE3"/>
<path d="M19.7448 49.8254C19.4759 49.8254 19.2608 49.8254 19.0458 49.7717C15.443 48.7526 2 28.5838 2 25.419C2 24.6144 2.69904 24.078 3.29053 23.6489C8.02247 20.5914 39.9093 10.507 42.8668 11.7408C46.7384 13.4573 60.4503 30.8367 60.7729 33.626C60.8267 34.3233 60.2889 34.8061 60.1276 34.967C57.1702 37.4881 25.9824 49.8254 19.7448 49.8254ZM4.25843 25.6336C5.01124 29.1202 17.4326 46.9825 19.691 47.6798C22.5947 48.4307 54.5353 36.6835 58.5682 33.5187C57.1702 30.4612 45.2865 15.1738 42.0602 13.7255C38.7263 13.1891 7.16212 23.1125 4.25843 25.6336Z" fill="black"/>
<path d="M33.9941 32.0164C29.2621 32.0164 9.63532 27.8861 3.39776 26.545C2.80626 26.4378 2.42986 25.8477 2.59118 25.2577C2.69872 24.6676 3.29021 24.2922 3.88171 24.4531C17.3785 27.3497 32.596 30.2999 34.2629 29.8707C35.4459 29.1198 38.8873 20.5373 41.3071 13.0277C41.4684 12.4376 42.1137 12.1158 42.6514 12.3304C43.2429 12.4913 43.5117 13.135 43.3504 13.6714C41.2533 20.1619 37.3817 31.1581 34.8544 31.9091C34.6931 31.9091 34.3705 31.9627 33.9941 31.9627V32.0164Z" fill="#C1B093"/>
<path d="M21.5197 43.5493C21.5197 43.5493 21.3046 43.5493 21.1433 43.4957C20.6056 43.2811 20.2829 42.6911 20.498 42.1547L24.8536 29.871C25.0687 29.3346 25.6602 29.0128 26.1979 29.2274C26.7356 29.4419 27.0582 30.032 26.8431 30.5684L22.4876 42.852C22.3263 43.2811 21.8961 43.5493 21.4659 43.5493H21.5197Z" fill="#C1B093"/>
<path d="M50.9332 32.179C50.9332 32.179 50.7181 32.179 50.6106 32.179L37.9741 28.0486C37.4364 27.8877 37.1138 27.244 37.2751 26.7076C37.4364 26.1712 38.0816 25.8494 38.6194 26.0103L51.2558 30.1406C51.7935 30.3015 52.1162 30.9452 51.9549 31.4816C51.7935 31.9107 51.3634 32.2326 50.9332 32.2326V32.179Z" fill="#C1B093"/>
<path d="M19.7448 49.8254C19.4759 49.8254 19.2608 49.8254 19.0458 49.7717C15.443 48.7526 2 28.5838 2 25.419C2 24.6144 2.69904 24.078 3.29053 23.6489C8.02247 20.5914 39.9093 10.507 42.8668 11.7408C46.7384 13.4573 60.4503 30.8367 60.7729 33.626C60.8267 34.3233 60.2889 34.8061 60.1276 34.967C57.1702 37.4881 25.9824 49.8254 19.7448 49.8254ZM4.25843 25.6336C5.01124 29.1202 17.4326 46.9825 19.691 47.6798C22.5947 48.4307 54.5353 36.6835 58.5682 33.5187C57.1702 30.4612 45.2865 15.1738 42.0602 13.7255C38.7263 13.1891 7.16212 23.1125 4.25843 25.6336Z" fill="black"/>
<path d="M3.12891 19.4161C3.12891 16.895 40.1779 5.73783 42.4901 6.757C46.0928 8.36621 59.4821 25.4775 59.7509 27.784C59.966 29.5541 22.917 43.7152 19.3681 42.7496C16.3031 41.8914 3.12891 22.259 3.12891 19.4698V19.4161Z" fill="#FFFAE3"/>
<path d="M19.7448 43.8215C19.4759 43.8215 19.2608 43.8215 19.0458 43.7678C15.443 42.7487 2 22.5799 2 19.4151C2 18.6105 2.69904 18.0741 3.29053 17.645C8.02247 14.5875 39.9093 4.50313 42.8668 5.73686C46.7384 7.45335 60.4503 24.8328 60.7729 27.6221C60.8267 28.3194 60.2889 28.8022 60.1276 28.9631C57.1702 31.4842 25.9824 43.8215 19.7448 43.8215ZM4.25843 19.6297C5.01124 23.1163 17.4326 40.9785 19.691 41.6759C22.5947 42.4268 54.5353 30.6796 58.5682 27.5148C57.1702 24.4573 45.2865 9.16984 42.0602 7.72156C38.7263 7.18515 7.16212 17.1086 4.25843 19.6297Z" fill="black"/>
<path d="M33.9941 26.0125C29.2621 26.0125 9.63532 21.8821 3.39776 20.5411C2.80626 20.4339 2.42986 19.8438 2.59118 19.2538C2.69872 18.6637 3.29021 18.2882 3.88171 18.4492C17.3785 21.3457 32.596 24.296 34.2629 23.8668C35.4459 23.1159 38.8873 14.5334 41.3071 7.02378C41.4684 6.43374 42.1137 6.1119 42.6514 6.32646C43.2429 6.48738 43.5117 7.13106 43.3504 7.66747C41.2533 14.1579 37.3817 25.1542 34.8544 25.9052C34.6931 25.9052 34.3705 25.9588 33.9941 25.9588V26.0125Z" fill="#C1B093"/>
<path d="M21.5197 37.5474C21.5197 37.5474 21.3046 37.5474 21.1433 37.4937C20.6056 37.2792 20.2829 36.6891 20.498 36.1527L24.8536 23.8691C25.0687 23.3327 25.6602 23.0108 26.1979 23.2254C26.7356 23.44 27.0582 24.03 26.8431 24.5664L22.4876 36.8501C22.3263 37.2792 21.8961 37.5474 21.4659 37.5474H21.5197Z" fill="#C1B093"/>
<path d="M50.9332 26.175C50.9332 26.175 50.7181 26.175 50.6106 26.175L37.9741 22.0447C37.4364 21.8838 37.1138 21.2401 37.2751 20.7037C37.4364 20.1673 38.0816 19.8455 38.6194 20.0064L51.2558 24.1367C51.7935 24.2976 52.1162 24.9413 51.9549 25.4777C51.7935 25.9068 51.3634 26.2287 50.9332 26.2287V26.175Z" fill="#C1B093"/>
<path d="M19.7448 43.8215C19.4759 43.8215 19.2608 43.8215 19.0458 43.7678C15.443 42.7487 2 22.5799 2 19.4151C2 18.6105 2.69904 18.0741 3.29053 17.645C8.02247 14.5875 39.9093 4.50313 42.8668 5.73686C46.7384 7.45335 60.4503 24.8328 60.7729 27.6221C60.8267 28.3194 60.2889 28.8022 60.1276 28.9631C57.1702 31.4842 25.9824 43.8215 19.7448 43.8215ZM4.25843 19.6297C5.01124 23.1163 17.4326 40.9785 19.691 41.6759C22.5947 42.4268 54.5353 30.6796 58.5682 27.5148C57.1702 24.4573 45.2865 9.16984 42.0602 7.72156C38.7263 7.18515 7.16212 17.1086 4.25843 19.6297Z" fill="black"/>
<path d="M3.12891 13.7833C3.12891 11.2622 40.1779 0.10502 42.4901 1.12419C46.0928 2.7334 59.4821 19.8447 59.7509 22.1512C59.966 23.9213 22.917 38.0823 19.3681 37.1168C16.3031 36.2586 3.12891 16.6262 3.12891 13.8369V13.7833Z" fill="#FFFAE3"/>
<path d="M19.7448 38.1887C19.4759 38.1887 19.2608 38.1887 19.0458 38.135C15.443 37.1159 2 16.9471 2 13.7823C2 12.9777 2.69904 12.4413 3.29053 12.0122C8.02247 8.9547 39.9093 -1.12968 42.8668 0.104048C46.7384 1.82054 60.4503 19.2 60.7729 21.9893C60.8267 22.6866 60.2889 23.1694 60.1276 23.3303C57.1702 25.8514 25.9824 38.1887 19.7448 38.1887ZM4.25843 13.9969C5.01124 17.4835 17.4326 35.3457 19.691 36.0431C22.5947 36.794 54.5353 25.0468 58.5682 21.882C57.1702 18.8245 45.2865 3.53703 42.0602 2.08874C38.7263 1.55234 7.16212 11.4758 4.25843 13.9969Z" fill="black"/>
<path d="M33.9941 20.3796C29.2621 20.3796 9.63532 16.2493 3.39776 14.9083C2.80626 14.801 2.42986 14.211 2.59118 13.621C2.69872 13.0309 3.29021 12.6554 3.88171 12.8164C17.3785 15.7129 32.596 18.6631 34.2629 18.234C35.4459 17.4831 38.8873 8.90061 41.3071 1.39097C41.4684 0.800927 42.1137 0.479085 42.6514 0.693646C43.2429 0.854567 43.5117 1.49825 43.3504 2.03465C41.2533 8.52513 37.3817 19.5214 34.8544 20.2724C34.6931 20.2724 34.3705 20.326 33.9941 20.326V20.3796Z" fill="#C1B093"/>
<path d="M21.5187 31.9126C21.5187 31.9126 21.3036 31.9126 21.1423 31.859C20.6046 31.6444 20.282 31.0544 20.4971 30.518L24.8526 18.2343C25.0677 17.6979 25.6592 17.3761 26.1969 17.5906C26.7346 17.8052 27.0573 18.3952 26.8422 18.9317L22.4866 31.2153C22.3253 31.6444 21.8951 31.9126 21.465 31.9126H21.5187Z" fill="#C1B093"/>
<path d="M50.9322 20.5422C50.9322 20.5422 50.7171 20.5422 50.6096 20.5422L37.9731 16.4119C37.4354 16.251 37.1128 15.6073 37.2741 15.0709C37.4354 14.5345 38.0807 14.2127 38.6184 14.3736L51.2548 18.5039C51.7926 18.6648 52.1152 19.3085 51.9539 19.8449C51.7926 20.274 51.3624 20.5959 50.9322 20.5959V20.5422Z" fill="#C1B093"/>
<path d="M19.7448 38.1887C19.4759 38.1887 19.2608 38.1887 19.0458 38.135C15.443 37.1159 2 16.9471 2 13.7823C2 12.9777 2.69904 12.4413 3.29053 12.0122C8.02247 8.9547 39.9093 -1.12968 42.8668 0.104048C46.7384 1.82054 60.4503 19.2 60.7729 21.9893C60.8267 22.6866 60.2889 23.1694 60.1276 23.3303C57.1702 25.8514 25.9824 38.1887 19.7448 38.1887ZM4.25843 13.9969C5.01124 17.4835 17.4326 35.3457 19.691 36.0431C22.5947 36.794 54.5353 25.0468 58.5682 21.882C57.1702 18.8245 45.2865 3.53703 42.0602 2.08874C38.7263 1.55234 7.16212 11.4758 4.25843 13.9969Z" fill="black"/>
<defs>
<filter id="filter0_d_26432_36729" x="0" y="17.9531" width="60.7764" height="42.1895" filterUnits="userSpaceOnUse" color-interpolation-filters="sRGB">
<feFlood flood-opacity="0" result="BackgroundImageFix"/>
<feColorMatrix in="SourceAlpha" type="matrix" values="0 0 0 0 0 0 0 0 0 0 0 0 0 0 0 0 0 0 127 0" result="hardAlpha"/>
<feOffset dx="-2" dy="4"/>
<feComposite in2="hardAlpha" operator="out"/>
<feColorMatrix type="matrix" values="0 0 0 0 0 0 0 0 0 0 0 0 0 0 0 0 0 0 0.15 0"/>
<feBlend mode="normal" in2="BackgroundImageFix" result="effect1_dropShadow_26432_36729"/>
<feBlend mode="normal" in="SourceGraphic" in2="effect1_dropShadow_26432_36729" result="shape"/>
</filter>
</defs>
</svg>
