<svg width="32" height="32" viewBox="0 0 32 32" fill="none" xmlns="http://www.w3.org/2000/svg">
<g id="Share">
<path id="Vector" d="M10.7247 9.3333C11.0037 8.91997 12.0004 7.8133 13.09 6.66664C14.3391 5.34664 15.3889 3.99997 16.0401 3.99997C16.6912 3.99997 17.834 5.2933 18.9237 6.4533C20 7.59997 20.505 8.15997 21.3555 9.3333" stroke="#7B7968" stroke-width="2.66667" stroke-linecap="round" stroke-linejoin="round"/>
<path id="Vector_2" d="M16.0406 18.666C16.1206 12.9594 16.0406 5.69269 16.0406 5.69269" stroke="#7B7968" stroke-width="2.66667" stroke-linecap="round" stroke-linejoin="round"/>
<path id="Vector_3" d="M27.9969 16C27.9968 19.3334 28.0724 26.0691 27.482 26.4337C26.8917 26.7983 20.9884 26.489 15.7017 26.5884C10.4149 26.6878 5.31183 26.7431 4.39354 26.4337C3.76385 26.2127 4.07871 18.6667 4.07871 16" stroke="#7B7968" stroke-width="2.66667" stroke-linecap="round" stroke-linejoin="round"/>
</g>
</svg>
