<svg width="235" height="94" viewBox="0 0 235 94" fill="none" xmlns="http://www.w3.org/2000/svg">
<path d="M201.1 1.85958C201.847 1.2208 202.861 1.48696 203.342 2.33867C204.516 4.52118 205.956 8.19419 206.116 11.8672C206.223 14.0497 206.01 16.871 205.743 19.2664C205.476 21.7683 205.476 24.2702 205.583 26.7721C205.69 29.0611 205.316 32.7341 202.541 37.1524C197.792 44.6581 195.444 47.3197 195.444 47.3197L185.412 44.8178C186.052 36.5668 192.669 9.0459 201.1 1.85958Z" fill="#EE8552"/>
<path d="M195.444 48.3832C195.765 48.3832 196.031 48.2768 196.245 48.0106C196.352 47.9041 198.699 45.1893 203.449 37.6836C206.33 33.0524 206.811 29.1665 206.651 26.7178C206.49 24.1627 206.544 21.714 206.811 19.3718C207.131 16.2844 207.238 13.7292 207.184 11.8129C207.024 7.12849 204.943 2.9764 204.303 1.80529C203.929 1.11328 203.289 0.580958 202.488 0.474494C201.741 0.36803 200.994 0.527726 200.407 1.06005C191.496 8.61898 184.985 36.4593 184.345 44.7635C184.345 45.2958 184.665 45.7749 185.145 45.8813L195.178 48.3832C195.178 48.3832 195.338 48.3832 195.444 48.3832ZM202.008 2.55054C202.008 2.55054 202.008 2.55054 202.061 2.55054C202.168 2.55054 202.275 2.657 202.382 2.8167C202.969 3.88134 204.836 7.71404 204.996 11.9194C205.05 13.676 204.943 16.1779 204.623 19.1589C204.356 21.6076 204.303 24.1627 204.463 26.8243C204.569 29.0068 204.196 32.4137 201.581 36.5657C198.059 42.1551 195.871 45.0296 195.017 46.1475L186.533 44.0182C187.6 34.2768 194.27 9.09807 201.795 2.71024C201.795 2.71024 201.955 2.60377 202.008 2.60377V2.55054Z" fill="black"/>
<path d="M185.572 42.5818C185.572 42.5818 188.827 26.1863 189.894 24.4297C189.894 24.4297 194.537 28.8479 191.442 44.3917" fill="#A9C973"/>
<path d="M191.442 45.4559C191.922 45.4559 192.403 45.0833 192.509 44.6042C195.658 28.6878 190.855 23.8437 190.642 23.684C190.428 23.4711 190.108 23.3646 189.735 23.4179C189.414 23.4179 189.148 23.6308 188.934 23.9502C187.867 25.7601 185.039 39.6536 184.505 42.4217C184.398 43.0072 184.772 43.5395 185.359 43.6992C185.946 43.8057 186.479 43.4331 186.64 42.8475C187.653 37.6308 189.201 30.4977 190.162 27.0376C191.175 29.4331 192.296 34.5966 190.375 44.2848C190.268 44.8703 190.642 45.4026 191.229 45.5623C191.282 45.5623 191.389 45.5623 191.442 45.5623V45.4559Z" fill="black"/>
<path d="M217.216 81.4409C221.272 86.4447 227.408 81.4409 225.487 77.2355C231.25 77.6082 231.837 69.7298 226.448 67.2812C223.459 65.8971 204.142 59.3496 204.142 59.3496C204.142 59.3496 200.193 75.7451 199.126 80.1101C197.792 85.6994 205.209 87.9352 207.824 82.7717C207.824 82.7717 208.998 87.4028 213.374 86.8173C217.75 86.2317 217.216 81.4409 217.216 81.4409Z" fill="#665028"/>
<path d="M212.627 87.9358C212.894 87.9358 213.214 87.9358 213.481 87.8825C216.362 87.5099 217.643 85.5403 218.07 83.6772C220.204 85.0613 222.499 84.6886 224.046 83.6772C226.074 82.4529 227.088 80.2704 226.821 78.1411C228.902 77.8217 230.45 76.4377 230.984 74.3084C231.677 71.5403 230.503 67.8673 226.821 66.1639C223.833 64.7799 205.209 58.4453 204.409 58.1791C204.142 58.0727 203.822 58.1259 203.555 58.2324C203.288 58.3921 203.128 58.605 203.021 58.9244L198.005 79.6848C197.205 83.0384 199.073 85.3806 201.26 86.1791C203.182 86.8711 205.69 86.605 207.504 84.7419C208.411 86.2856 210.012 87.7761 212.52 87.7761L212.627 87.9358ZM217.216 80.3768C217.216 80.3768 216.949 80.3768 216.789 80.4301C216.362 80.5898 216.095 81.0689 216.149 81.4947C216.149 81.8673 216.415 85.2742 213.214 85.7C209.959 86.1259 208.945 82.8255 208.891 82.4529C208.785 82.027 208.411 81.7076 207.984 81.6544C207.557 81.6544 207.13 81.8141 206.917 82.24C205.796 84.4757 203.608 84.8483 202.114 84.316C200.834 83.8369 199.606 82.5594 200.193 80.3236L204.943 60.681C209.105 62.1183 223.513 67.0156 226.021 68.1867C228.582 69.3578 229.489 71.9662 229.009 73.8293C228.582 75.4263 227.355 76.2248 225.594 76.1183C225.22 76.0651 224.847 76.278 224.633 76.5441C224.42 76.8635 224.367 77.2362 224.527 77.6088C225.274 79.259 224.313 81.0689 222.979 81.8673C222.339 82.24 220.151 83.3046 218.07 80.6962C217.856 80.4301 217.536 80.3236 217.216 80.3236V80.3768Z" fill="black"/>
<path d="M183.437 69.3583C183.437 66.8564 146.67 55.7842 144.375 56.7956C140.8 58.3925 127.512 75.3735 127.246 77.6625C127.032 79.4191 163.799 93.4724 167.321 92.5142C170.363 91.6625 183.437 72.1796 183.437 69.4115V69.3583Z" fill="#FFFAE3"/>
<path d="M166.948 93.5776C167.215 93.5776 167.428 93.5776 167.642 93.5244C171.217 92.513 184.558 72.4978 184.558 69.3571C184.558 68.5586 183.864 68.0263 183.277 67.6004C178.581 64.5662 146.937 54.5586 144.002 55.7829C140.16 57.4864 126.552 74.7335 126.232 77.5016C126.179 78.1936 126.712 78.6727 126.873 78.8324C129.807 81.3343 160.758 93.5776 166.948 93.5776ZM182.316 69.57C181.569 73.0301 169.243 90.7563 167.001 91.4483C164.12 92.1936 132.422 80.5358 128.42 77.3951C129.807 74.3609 141.601 59.1898 144.802 57.7525C148.111 57.2202 179.435 67.0681 182.316 69.57Z" fill="black"/>
<path d="M152.807 75.905C157.503 75.905 176.98 71.8062 183.17 70.4754C183.757 70.3689 184.131 69.7834 183.971 69.1978C183.864 68.6123 183.277 68.2396 182.69 68.3993C169.296 71.2739 154.194 74.2016 152.54 73.7758C151.366 73.0305 147.951 64.5134 145.549 57.0609C145.389 56.4754 144.749 56.156 144.215 56.3689C143.628 56.5286 143.362 57.1674 143.522 57.6997C145.603 64.1408 149.445 75.0533 151.953 75.7986C152.113 75.7986 152.433 75.8518 152.807 75.8518V75.905Z" fill="#C1B093"/>
<path d="M165.187 87.3499C165.187 87.3499 165.4 87.3499 165.56 87.2967C166.094 87.0838 166.414 86.4982 166.201 85.9659L161.878 73.7758C161.665 73.2435 161.078 72.9241 160.544 73.137C160.011 73.3499 159.69 73.9355 159.904 74.4678L164.226 86.6579C164.386 87.0838 164.813 87.3499 165.24 87.3499H165.187Z" fill="#C1B093"/>
<path d="M135.997 76.0653C135.997 76.0653 136.211 76.0653 136.317 76.0653L148.858 71.9664C149.391 71.8067 149.712 71.1679 149.551 70.6356C149.391 70.1033 148.751 69.7839 148.217 69.9436L135.677 74.0425C135.143 74.2021 134.823 74.8409 134.983 75.3733C135.143 75.7991 135.57 76.1185 135.997 76.1185V76.0653Z" fill="#C1B093"/>
<path d="M166.948 93.5776C167.215 93.5776 167.428 93.5776 167.642 93.5244C171.217 92.513 184.558 72.4978 184.558 69.3571C184.558 68.5586 183.864 68.0263 183.277 67.6004C178.581 64.5662 146.937 54.5586 144.002 55.7829C140.16 57.4864 126.552 74.7335 126.232 77.5016C126.179 78.1936 126.712 78.6727 126.873 78.8324C129.807 81.3343 160.758 93.5776 166.948 93.5776ZM182.316 69.57C181.569 73.0301 169.243 90.7563 167.001 91.4483C164.12 92.1936 132.422 80.5358 128.42 77.3951C129.807 74.3609 141.601 59.1898 144.802 57.7525C148.111 57.2202 179.435 67.0681 182.316 69.57Z" fill="black"/>
<path d="M170.737 45.829C171.324 46.7872 172.071 47.6389 172.818 48.3309C173.245 48.7567 173.726 49.1294 174.152 49.3955C175.273 51.8442 178.795 61.905 188.72 65.6845C192.989 67.2815 198.486 67.7605 205.53 65.8442L204.836 66.2168L217.27 81.4412C217.216 81.175 212.253 63.3955 210.386 59.4031C208.518 55.4107 207.931 54.0267 202.008 46.7339C198.859 42.9012 194.857 40.7187 191.762 39.4944C189.041 38.4297 187.066 38.1104 186.906 38.1104C184.185 33.0001 178.528 29.8594 173.139 33.5324C167.802 37.1522 168.496 42.2092 170.791 45.829H170.737Z" fill="#A9C973"/>
<path d="M217.216 82.5054C217.216 82.5054 217.536 82.5054 217.696 82.3989C218.123 82.186 218.389 81.6537 218.229 81.1746C218.229 81.0149 213.213 63.0757 211.292 58.9769L211.132 58.6042C209.371 54.7716 208.624 53.2278 202.754 46.0415C199.392 41.9426 195.07 39.6537 192.028 38.4826C190.001 37.6841 188.293 37.3115 187.492 37.1518C185.732 34.0643 183.063 31.8818 180.075 31.1366C177.46 30.4978 174.792 31.0301 172.391 32.6271C166.521 36.5662 167.215 42.3153 169.776 46.3609C170.416 47.3723 171.163 48.2773 172.017 49.0757C172.444 49.4484 172.818 49.821 173.245 50.0871L173.458 50.6195C174.899 54.0263 178.794 63.0757 188.24 66.6423C192.882 68.3989 198.218 68.6119 204.142 67.2278L216.308 82.0795C216.308 82.0795 216.842 82.4522 217.109 82.4522L217.216 82.5054ZM191.335 40.4522C194.163 41.57 198.112 43.6461 201.153 47.3723C206.863 54.3457 207.503 55.7297 209.211 59.456L209.371 59.8286C210.599 62.4369 213.16 71.167 214.761 76.8096L206.33 66.4826C206.543 66.2164 206.596 65.8438 206.436 65.4712C206.223 64.9921 205.689 64.6727 205.156 64.8324C199.019 66.4826 193.629 66.4293 189.04 64.6727C180.449 61.4255 176.82 53.0149 175.432 49.821L175.059 48.9693C175.059 48.9693 174.846 48.6499 174.685 48.5434C174.259 48.2773 173.885 47.9579 173.458 47.5852C172.764 46.9465 172.124 46.148 171.59 45.2963C170.31 43.2735 168.015 38.2164 173.618 34.4369C175.539 33.1061 177.567 32.7335 179.595 33.2126C182.049 33.8514 184.397 35.8742 185.892 38.589C185.998 38.7487 186.105 38.8552 186.265 38.9617C186.372 39.0681 186.532 39.1214 186.692 39.1214C186.692 39.1214 188.666 39.4408 191.281 40.4522H191.335Z" fill="black"/>
<path d="M184.718 43.9132C184.718 43.9132 181.463 41.1451 173.352 42.3162L169.349 44.1793L173.939 49.7687L182.263 47.2668L184.718 43.8599V43.9132Z" fill="#EE8552"/>
<path d="M175.273 39.9201C175.273 40.5057 175.54 41.1444 176.234 41.1444C176.928 41.1444 177.194 40.5589 177.194 39.9201C177.194 39.2813 176.821 38.8555 176.234 38.8555C175.647 38.8555 175.273 39.3346 175.273 39.9201Z" fill="black"/>
<path d="M171.964 40.238C171.964 40.7703 172.177 41.3558 172.871 41.3558C173.565 41.3558 173.778 40.8235 173.778 40.238C173.778 39.6524 173.458 39.2266 172.871 39.2266C172.284 39.2266 171.964 39.6524 171.964 40.238Z" fill="black"/>
<path d="M217.216 82.5054C217.216 82.5054 217.536 82.5054 217.696 82.3989C218.123 82.186 218.389 81.6537 218.229 81.1746C218.229 81.0149 213.213 63.0757 211.292 58.9769L211.132 58.6042C209.371 54.7716 208.624 53.2278 202.754 46.0415C199.392 41.9426 195.07 39.6537 192.028 38.4826C190.001 37.6841 188.293 37.3115 187.492 37.1518C185.732 34.0643 183.063 31.8818 180.075 31.1366C177.46 30.4978 174.792 31.0301 172.391 32.6271C166.521 36.5662 167.215 42.3153 169.776 46.3609C170.416 47.3723 171.163 48.2773 172.017 49.0757C172.444 49.4484 172.818 49.821 173.245 50.0871L173.458 50.6195C174.899 54.0263 178.794 63.0757 188.24 66.6423C192.882 68.3989 198.218 68.6119 204.142 67.2278L216.308 82.0795C216.308 82.0795 216.842 82.4522 217.109 82.4522L217.216 82.5054ZM191.335 40.4522C194.163 41.57 198.112 43.6461 201.153 47.3723C206.863 54.3457 207.503 55.7297 209.211 59.456L209.371 59.8286C210.599 62.4369 213.16 71.167 214.761 76.8096L206.33 66.4826C206.543 66.2164 206.596 65.8438 206.436 65.4712C206.223 64.9921 205.689 64.6727 205.156 64.8324C199.019 66.4826 193.629 66.4293 189.04 64.6727C180.449 61.4255 176.82 53.0149 175.432 49.821L175.059 48.9693C175.059 48.9693 174.846 48.6499 174.685 48.5434C174.259 48.2773 173.885 47.9579 173.458 47.5852C172.764 46.9465 172.124 46.148 171.59 45.2963C170.31 43.2735 168.015 38.2164 173.618 34.4369C175.539 33.1061 177.567 32.7335 179.595 33.2126C182.049 33.8514 184.397 35.8742 185.892 38.589C185.998 38.7487 186.105 38.8552 186.265 38.9617C186.372 39.0681 186.532 39.1214 186.692 39.1214C186.692 39.1214 188.666 39.4408 191.281 40.4522H191.335Z" fill="black"/>
<path d="M207.877 83.8367C207.877 83.8367 208.038 83.8367 208.091 83.8367C208.678 83.7302 209.051 83.1447 208.945 82.6124L208.144 78.407C208.038 77.8215 207.504 77.3956 206.917 77.5553C206.33 77.6618 205.956 78.2473 206.063 78.7797L206.864 82.985C206.97 83.5173 207.397 83.8367 207.931 83.8367H207.877Z" fill="black"/>
<path d="M225.486 78.3001C225.753 78.3001 226.073 78.1936 226.287 77.9275C226.66 77.5016 226.66 76.8096 226.233 76.437L221.698 72.2849C221.271 71.9122 220.577 71.9122 220.203 72.3381C219.83 72.764 219.83 73.456 220.257 73.8286L224.793 77.9807C224.793 77.9807 225.273 78.2468 225.486 78.2468V78.3001Z" fill="black"/>
<path d="M191.708 45.0842C196.564 37.1526 218.016 13.145 231.303 10.7496C232.424 10.5367 233.545 11.3884 233.651 12.5062C233.918 15.434 233.705 19.9055 231.997 23.7382C230.983 26.0272 229.276 28.7952 227.782 31.0842C226.287 33.3732 225.007 35.8218 223.993 38.3237C223.032 40.7192 220.684 44.2857 215.241 47.1602C210.599 49.6089 207.29 51.1526 205.102 52.1108C203.235 52.9093 201.047 52.6964 199.339 51.472L197.632 50.2477" fill="#EE8552"/>
<path d="M202.808 53.707C203.715 53.707 204.676 53.4941 205.529 53.1214C208.464 51.8439 211.88 50.1405 215.722 48.1176C221.431 45.0834 223.886 41.3572 224.953 38.7488C225.967 36.3002 227.195 33.9047 228.689 31.669C230.023 29.5929 231.891 26.6119 232.958 24.1633C235.092 19.4256 234.772 13.996 234.665 12.4522C234.612 11.6005 234.132 10.8021 233.491 10.323C232.798 9.79065 231.944 9.57772 231.09 9.73741C217.376 12.1861 195.497 36.8325 190.801 44.5511C190.481 45.0302 190.641 45.7222 191.175 46.0416C191.655 46.361 192.349 46.2013 192.616 45.669C197.205 38.11 218.39 14.1557 231.464 11.8135C231.73 11.8135 231.997 11.8135 232.157 11.9732C232.317 12.1329 232.478 12.3458 232.531 12.6119C232.638 14.0492 232.904 18.9998 230.983 23.3116C230.13 25.1747 228.742 27.6766 226.874 30.4979C225.327 32.8933 223.993 35.3952 222.979 37.9503C222.072 40.2393 219.884 43.5397 214.708 46.2545C210.919 48.2773 207.557 49.8743 204.676 51.1519C203.128 51.7906 201.367 51.631 199.98 50.6195L198.272 49.3952C197.792 49.0758 197.151 49.1823 196.778 49.6081C196.458 50.0872 196.564 50.726 196.991 51.0986L198.699 52.323C199.873 53.1747 201.314 53.6538 202.754 53.6538L202.808 53.707Z" fill="black"/>
<path d="M196.832 50.3541C198.966 47.107 202.435 40.9321 203.769 36.3541C205.103 31.7762 204.196 30.0195 204.196 30.0195C204.196 30.0195 192.136 42.9017 190.482 46.1488" fill="#A9C973"/>
<path d="M196.832 51.419C197.205 51.419 197.525 51.2593 197.739 50.9399C199.66 47.9589 203.342 41.571 204.783 36.6737C206.223 31.7764 205.263 29.7536 205.156 29.5406C204.996 29.2212 204.676 29.0083 204.356 28.9551C203.982 28.9551 203.662 29.0083 203.449 29.2745C202.968 29.8068 191.282 42.3163 189.574 45.6699C189.307 46.2022 189.521 46.841 190.054 47.1072C190.588 47.3733 191.228 47.1604 191.495 46.6281C192.616 44.4456 199.5 36.7269 203.449 32.4152C203.449 33.2669 203.235 34.4912 202.755 36.0882C201.367 40.7726 197.845 46.8942 195.978 49.822C195.658 50.3011 195.818 50.9931 196.298 51.3125C196.458 51.419 196.671 51.4722 196.885 51.4722L196.832 51.419Z" fill="black"/>
<path d="M174.152 49.3965C175.273 51.8452 178.795 61.906 188.72 65.6855C185.358 57.5942 190.428 46.0961 190.428 46.0961L192.509 42.9022L191.708 39.4954L186.852 38.1113C184.931 50.0353 174.152 49.4497 174.152 49.4497V49.3965Z" fill="#F9F4DE"/>
<path d="M188.667 66.7481C188.933 66.7481 189.2 66.6416 189.414 66.4287C189.734 66.1093 189.787 65.6834 189.627 65.2576C186.532 57.6986 191.281 46.6264 191.335 46.5199L193.363 43.4857C193.363 43.4857 193.576 42.9534 193.523 42.634L192.722 39.2272C192.616 38.8545 192.349 38.5884 192.029 38.4819L187.173 37.0979C187.173 37.0979 186.639 37.0446 186.425 37.0979C186.105 37.2576 185.838 37.5237 185.785 37.8964C184.024 48.6492 174.632 48.383 174.205 48.3298C173.832 48.3298 173.458 48.4895 173.245 48.8089C173.031 49.1283 172.978 49.5009 173.138 49.8735L173.512 50.672C174.952 54.0789 178.848 63.1283 188.293 66.6948C188.4 66.6948 188.56 66.7481 188.667 66.7481ZM191.335 42.6872L189.467 45.5085C189.2 46.0941 185.038 55.6758 186.906 63.7138C180.235 60.2005 177.034 53.5465 175.646 50.3526C178.795 49.98 185.625 48.1701 187.599 39.3869L190.748 40.2918L191.281 42.634L191.335 42.6872Z" fill="black"/>
<path d="M170.736 44.8702C171.43 43.912 172.871 41.9957 175.005 44.3911C175.912 45.4557 174.952 46.4672 174.045 47.5318C173.137 48.5964 162.999 61.2124 157.289 68.8246C156.862 69.4101 155.581 68.6649 155.901 67.9729C160.064 59.6687 165.933 51.7371 170.789 44.9234L170.736 44.8702Z" fill="#4C331B"/>
<path d="M156.755 70.0494C157.289 70.0494 157.769 69.8364 158.089 69.4106C163.746 61.8517 173.938 49.2357 174.845 48.2243C175.859 47.0532 177.3 45.403 175.806 43.6996C174.845 42.6349 173.778 42.1558 172.871 42.2091C171.323 42.2623 170.363 43.6463 169.882 44.2851L168.708 45.9353C164.066 52.4296 158.783 59.7756 154.941 67.4942C154.567 68.2927 154.887 69.2509 155.741 69.7832C156.061 69.9961 156.488 70.1026 156.809 70.1026L156.755 70.0494ZM172.977 44.3383C173.298 44.3383 173.724 44.6045 174.205 45.1368C174.365 45.3497 174.418 45.4562 173.351 46.6805C172.39 47.7984 164.066 58.1254 158.249 65.7376C161.825 59.1901 166.36 52.8555 170.416 47.2661L171.59 45.6159C171.857 45.2433 172.444 44.4448 172.924 44.4448L172.977 44.3383Z" fill="black"/>
<path d="M106.93 15.6074C105.507 14.5951 84.3304 31.0349 83.9775 32.7497C83.4395 35.4302 87.7252 49.8611 88.9197 50.9391C89.8328 51.7713 112.705 36.5376 113.585 34.146C114.331 32.0707 108.535 16.7489 106.96 15.6289L106.93 15.6074Z" fill="#FFFAE3"/>
<path d="M114.039 34.7891C114.147 34.6372 114.233 34.5158 114.289 34.3728C115.16 31.9293 109.17 16.2403 107.383 14.9696C106.928 14.6465 106.345 14.8258 105.865 14.9875C102.239 16.4317 83.741 30.3875 83.2501 32.5528C82.6648 35.4281 86.9724 50.1489 88.4178 51.4511C88.79 51.7615 89.2785 51.6517 89.4341 51.6252C92.0452 50.9676 111.534 38.3111 114.039 34.7891ZM106.597 16.3309C108.264 18.156 113.362 32.3419 112.849 33.8972C112.107 35.8383 92.6488 49.1567 89.2425 50.1632C88.0774 48.1461 84.2169 35.2976 84.6946 32.8943C85.7304 30.7964 104.008 16.9582 106.597 16.3309Z" fill="black"/>
<path d="M98.2606 35.6841C100.161 33.0122 105.709 20.2715 107.457 16.211C107.633 15.8339 107.451 15.3845 107.053 15.2386C106.677 15.0624 106.228 15.2457 106.081 15.6443C102.297 24.4283 97.8527 34.2055 96.9411 34.9744C96.0421 35.3409 89.8142 33.838 84.6022 32.1889C84.2043 32.0431 83.7635 32.2782 83.6687 32.668C83.5221 33.0666 83.7776 33.4769 84.1452 33.6012C88.6521 35.0231 96.4157 37.2524 97.8546 36.1269C97.9193 36.0358 98.0792 35.8751 98.2303 35.6626L98.2606 35.6841Z" fill="#C1B093"/>
<path d="M109.783 33.2715C109.783 33.2715 109.87 33.1501 109.904 33.0374C109.999 32.6477 109.795 32.2286 109.406 32.1346L100.721 29.6618C100.332 29.5678 99.9127 29.7726 99.8179 30.1624C99.7232 30.5521 99.9268 30.9712 100.316 31.0652L109.001 33.538C109.308 33.6193 109.632 33.484 109.805 33.2411L109.783 33.2715Z" fill="#C1B093"/>
<path d="M91.5516 45.3132C91.5516 45.3132 91.638 45.1917 91.6812 45.131L94.4229 36.3374C94.5479 35.9691 94.314 35.5285 93.9464 35.4042C93.5787 35.2799 93.1379 35.515 93.0129 35.8833L90.2711 44.6769C90.1461 45.0451 90.38 45.4858 90.7477 45.6101C91.0547 45.6913 91.4092 45.5776 91.5819 45.3347L91.5516 45.3132Z" fill="#C1B093"/>
<path d="M114.039 34.7891C114.147 34.6372 114.233 34.5158 114.289 34.3728C115.16 31.9293 109.17 16.2403 107.383 14.9696C106.928 14.6465 106.345 14.8258 105.865 14.9875C102.239 16.4317 83.741 30.3875 83.2501 32.5528C82.6648 35.4281 86.9724 50.1489 88.4178 51.4511C88.79 51.7615 89.2785 51.6517 89.4341 51.6252C92.0452 50.9676 111.534 38.3111 114.039 34.7891ZM106.597 16.3309C108.264 18.156 113.362 32.3419 112.849 33.8972C112.107 35.8383 92.6488 49.1567 89.2425 50.1632C88.0774 48.1461 84.2169 35.2976 84.6946 32.8943C85.7304 30.7964 104.008 16.9582 106.597 16.3309Z" fill="black"/>
<path d="M33.6348 72.8065C33.9871 71.4916 16.2235 60.495 14.8751 60.7035C12.7712 61.0393 3.39678 68.0925 2.93422 69.2579C2.57467 70.151 19.9186 82.7143 21.9045 82.7067C23.6229 82.6874 33.2375 74.2892 33.6273 72.8345L33.6348 72.8065Z" fill="#FFFAE3"/>
<path d="M21.5588 83.2129C21.699 83.2504 21.8112 83.2805 21.9309 83.2826C23.9523 83.2545 33.7821 74.6141 34.2243 72.9636C34.3368 72.5439 34.0471 72.1665 33.7986 71.86C31.758 69.6041 16.5367 59.8884 14.8218 60.1186C12.5627 60.4728 2.98249 67.6208 2.42442 69.0305C2.29892 69.3866 2.51191 69.7136 2.57355 69.82C3.7637 71.5482 18.3056 82.3412 21.5588 83.2129ZM33.0165 72.7599C32.1366 74.4731 23.162 82.0533 21.8867 82.1013C20.2673 82.0872 5.25033 71.4968 3.58925 69.2826C4.74569 67.8833 13.08 61.5709 14.9651 61.2664C16.7788 61.4525 31.8544 71.0392 33.0165 72.7599Z" fill="black"/>
<path d="M16.6143 71.9336C19.0823 72.5949 29.8958 73.1836 33.3364 73.3559C33.6599 73.3826 33.9387 73.1275 33.937 72.7972C33.9634 72.4744 33.7074 72.1959 33.3764 72.1972C25.9323 71.8217 17.5834 71.2338 16.774 70.777C16.2619 70.22 15.6664 65.2629 15.4539 61.0081C15.4522 60.6778 15.1606 60.4198 14.8502 60.4566C14.5192 60.4578 14.289 60.756 14.2982 61.0583C14.4849 64.7365 14.9674 71.0126 16.1806 71.7575C16.2647 71.78 16.4255 71.8531 16.6218 71.9057L16.6143 71.9336Z" fill="#C1B093"/>
<path d="M21.509 79.6943C21.509 79.6943 21.6212 79.7243 21.7128 79.7189C22.0233 79.6821 22.274 79.4195 22.2368 79.1097L21.6818 72.0945C21.6446 71.7846 21.381 71.5341 21.0706 71.5709C20.7602 71.6076 20.5095 71.8703 20.5467 72.1801L21.1017 79.1953C21.1258 79.4417 21.3127 79.6417 21.5371 79.7018L21.509 79.6943Z" fill="#C1B093"/>
<path d="M7.7585 69.6506C7.7585 69.6506 7.87067 69.6806 7.92676 69.6957L15.0945 69.3074C15.3974 69.2986 15.6557 69.008 15.6465 68.7057C15.6373 68.4034 15.3458 68.1454 15.0428 68.1542L7.87508 68.5424C7.57215 68.5512 7.31392 68.8418 7.32309 69.1441C7.34726 69.3905 7.52664 69.6184 7.751 69.6785L7.7585 69.6506Z" fill="#C1B093"/>
<path d="M21.5588 83.2129C21.699 83.2504 21.8112 83.2805 21.9309 83.2826C23.9523 83.2545 33.7821 74.6141 34.2243 72.9636C34.3368 72.5439 34.0471 72.1665 33.7986 71.86C31.758 69.6041 16.5367 59.8884 14.8218 60.1186C12.5627 60.4728 2.98249 67.6208 2.42442 69.0305C2.29892 69.3866 2.51191 69.7136 2.57355 69.82C3.7637 71.5482 18.3056 82.3412 21.5588 83.2129ZM33.0165 72.7599C32.1366 74.4731 23.162 82.0533 21.8867 82.1013C20.2673 82.0872 5.25033 71.4968 3.58925 69.2826C4.74569 67.8833 13.08 61.5709 14.9651 61.2664C16.7788 61.4525 31.8544 71.0392 33.0165 72.7599Z" fill="black"/>
</svg>
