<svg width="273" height="273" viewBox="0 0 273 273" fill="none" xmlns="http://www.w3.org/2000/svg">
<path d="M108.24 94.7749C107.044 93.7529 105.422 94.1787 104.654 95.5415C102.775 99.0335 100.47 104.91 100.214 110.787C100.043 114.279 100.385 118.793 100.812 122.626C101.238 126.629 101.238 130.632 101.068 134.635C100.897 138.297 101.495 144.174 105.934 151.243C113.533 163.253 117.29 167.511 117.29 167.511L133.341 163.508C132.317 150.307 121.73 106.273 108.24 94.7749Z" fill="#EE8552"/>
<path d="M117.29 169.214C116.778 169.214 116.351 169.043 116.009 168.617C115.839 168.447 112.082 164.103 104.483 152.094C99.8724 144.684 99.104 138.467 99.3601 134.549C99.6163 130.461 99.5309 126.543 99.104 122.795C98.5917 117.855 98.4209 113.767 98.5063 110.701C98.7625 103.206 102.092 96.5626 103.117 94.6889C103.715 93.5816 104.739 92.7299 106.02 92.5596C107.215 92.3892 108.41 92.6448 109.35 93.4965C123.608 105.591 134.025 150.135 135.049 163.422C135.049 164.274 134.537 165.04 133.768 165.211L117.717 169.214C117.717 169.214 117.461 169.214 117.29 169.214ZM106.788 95.8813C106.788 95.8813 106.788 95.8813 106.703 95.8813C106.532 95.8813 106.361 96.0516 106.191 96.3071C105.251 98.0105 102.263 104.143 102.007 110.871C101.922 113.682 102.092 117.685 102.605 122.455C103.031 126.373 103.117 130.461 102.861 134.719C102.69 138.211 103.288 143.662 107.471 150.306C113.106 159.249 116.607 163.848 117.973 165.636L131.549 162.23C129.841 146.643 119.168 106.357 107.13 96.1368C107.13 96.1368 106.874 95.9664 106.788 95.9664V95.8813Z" fill="black"/>
<path d="M133.085 159.93C133.085 159.93 127.877 133.697 126.17 130.887C126.17 130.887 118.741 137.956 123.693 162.826" fill="#A9C973"/>
<path d="M123.694 164.529C122.925 164.529 122.157 163.932 121.986 163.166C116.949 137.7 124.633 129.949 124.974 129.694C125.316 129.353 125.828 129.183 126.426 129.268C126.938 129.268 127.365 129.608 127.707 130.12C129.414 133.015 133.939 155.245 134.793 159.674C134.964 160.611 134.366 161.462 133.427 161.718C132.488 161.888 131.634 161.292 131.378 160.355C129.756 152.008 127.28 140.596 125.743 135.059C124.121 138.892 122.328 147.154 125.401 162.655C125.572 163.592 124.974 164.443 124.035 164.699C123.95 164.699 123.779 164.699 123.694 164.699V164.529Z" fill="black"/>
<path d="M82.4547 222.106C75.9658 230.112 66.1471 222.106 69.2208 215.377C59.9997 215.973 59.0605 203.368 67.6839 199.45C72.4652 197.236 103.373 186.76 103.373 186.76C103.373 186.76 109.691 212.992 111.399 219.977C113.533 228.919 101.665 232.497 97.4817 224.235C97.4817 224.235 95.6033 231.645 88.6021 230.708C81.6009 229.771 82.4547 222.106 82.4547 222.106Z" fill="#665028"/>
<path d="M89.7978 232.496C89.3709 232.496 88.8586 232.496 88.4317 232.411C83.8212 231.815 81.772 228.664 81.089 225.683C77.6738 227.897 74.0024 227.301 71.5264 225.683C68.2819 223.724 66.6597 220.232 67.0866 216.825C63.7568 216.314 61.2808 214.1 60.427 210.693C59.317 206.264 61.1954 200.387 67.0866 197.661C71.8679 195.447 101.666 185.312 102.946 184.886C103.373 184.715 103.886 184.801 104.312 184.971C104.739 185.227 104.996 185.567 105.166 186.078L113.192 219.295C114.473 224.661 111.484 228.408 107.984 229.686C104.91 230.793 100.897 230.367 97.9943 227.386C96.5429 229.856 93.9814 232.241 89.9686 232.241L89.7978 232.496ZM82.4551 220.402C82.4551 220.402 82.882 220.402 83.1381 220.487C83.8212 220.743 84.2481 221.509 84.1627 222.191C84.1627 222.787 83.7358 228.238 88.8586 228.919C94.0668 229.601 95.689 224.32 95.7744 223.724C95.9452 223.042 96.5429 222.531 97.2259 222.446C97.9089 222.446 98.592 222.702 98.9335 223.383C100.726 226.96 104.227 227.557 106.618 226.705C108.667 225.938 110.631 223.894 109.691 220.317L102.093 188.889C95.4329 191.188 72.3802 199.024 68.3673 200.898C64.2691 202.772 62.8176 206.945 63.586 209.926C64.2691 212.481 66.2328 213.759 69.0504 213.588C69.648 213.503 70.2457 213.844 70.5872 214.27C70.9287 214.781 71.0141 215.377 70.758 215.973C69.5627 218.614 71.0995 221.509 73.234 222.787C74.2586 223.383 77.7592 225.087 81.089 220.913C81.4305 220.487 81.9428 220.317 82.4551 220.317V220.402Z" fill="black"/>
<path d="M136.502 202.773C136.502 198.77 195.329 181.054 199 182.673C204.721 185.228 225.981 212.397 226.407 216.06C226.749 218.87 167.922 241.355 162.287 239.822C157.42 238.46 136.502 207.287 136.502 202.858V202.773Z" fill="#FFFAE3"/>
<path d="M162.885 241.525C162.458 241.525 162.116 241.525 161.775 241.44C156.054 239.822 134.709 207.798 134.709 202.773C134.709 201.495 135.819 200.643 136.758 199.962C144.272 195.107 194.902 179.095 199.598 181.054C205.745 183.779 227.517 211.375 228.03 215.804C228.115 216.911 227.261 217.677 227.005 217.933C222.309 221.936 172.789 241.525 162.885 241.525ZM138.295 203.113C139.49 208.649 159.213 237.011 162.799 238.119C167.41 239.311 218.126 220.658 224.529 215.633C222.309 210.779 203.44 186.505 198.317 184.205C193.024 183.354 142.906 199.11 138.295 203.113Z" fill="black"/>
<path d="M185.51 213.248C177.997 213.248 146.833 206.69 136.929 204.561C135.99 204.391 135.392 203.454 135.648 202.517C135.819 201.58 136.758 200.984 137.697 201.239C159.128 205.839 183.291 210.523 185.937 209.842C187.816 208.649 193.28 195.022 197.122 183.098C197.378 182.161 198.403 181.65 199.257 181.991C200.196 182.246 200.623 183.268 200.367 184.12C197.037 194.426 190.889 211.886 186.877 213.078C186.62 213.078 186.108 213.163 185.51 213.163V213.248Z" fill="#C1B093"/>
<path d="M165.703 231.56C165.703 231.56 165.361 231.56 165.105 231.475C164.251 231.134 163.739 230.198 164.081 229.346L170.996 209.842C171.338 208.99 172.277 208.479 173.131 208.82C173.985 209.16 174.497 210.097 174.155 210.949L167.24 230.453C166.984 231.134 166.3 231.56 165.617 231.56H165.703Z" fill="#C1B093"/>
<path d="M212.405 213.505C212.405 213.505 212.064 213.505 211.893 213.505L191.828 206.947C190.975 206.692 190.462 205.669 190.719 204.818C190.975 203.966 191.999 203.455 192.853 203.711L212.917 210.269C213.771 210.524 214.283 211.546 214.027 212.398C213.771 213.079 213.088 213.59 212.405 213.59V213.505Z" fill="#C1B093"/>
<path d="M162.885 241.525C162.458 241.525 162.116 241.525 161.775 241.44C156.054 239.822 134.709 207.798 134.709 202.773C134.709 201.495 135.819 200.643 136.758 199.962C144.272 195.107 194.902 179.095 199.598 181.054C205.745 183.779 227.517 211.375 228.03 215.804C228.115 216.911 227.261 217.677 227.005 217.933C222.309 221.936 172.789 241.525 162.885 241.525ZM138.295 203.113C139.49 208.649 159.213 237.011 162.799 238.119C167.41 239.311 218.126 220.658 224.529 215.633C222.309 210.779 203.44 186.505 198.317 184.205C193.024 183.354 142.906 199.11 138.295 203.113Z" fill="black"/>
<path d="M156.822 165.126C155.883 166.659 154.687 168.022 153.492 169.129C152.809 169.81 152.041 170.407 151.357 170.832C149.564 174.75 143.929 190.848 128.049 196.895C121.218 199.45 112.424 200.216 101.154 197.15L102.264 197.747L82.3701 222.105C82.4555 221.68 90.3959 193.232 93.3842 186.845C96.3725 180.457 97.3117 178.242 106.789 166.574C111.826 160.442 118.23 156.95 123.182 154.991C127.536 153.287 130.695 152.776 130.952 152.776C135.306 144.6 144.356 139.575 152.98 145.451C161.518 151.243 160.408 159.334 156.736 165.126H156.822Z" fill="#A9C973"/>
<path d="M82.4552 223.809C82.4552 223.809 81.9429 223.809 81.6868 223.639C81.0037 223.298 80.5768 222.446 80.8329 221.68C80.8329 221.424 88.8587 192.722 91.9324 186.163L92.1885 185.567C95.0061 179.435 96.2014 176.965 105.593 165.467C110.972 158.909 117.888 155.246 122.755 153.373C125.999 152.095 128.731 151.499 130.012 151.243C132.83 146.303 137.099 142.811 141.88 141.619C146.064 140.597 150.333 141.449 154.175 144.004C163.567 150.306 162.457 159.505 158.358 165.978C157.334 167.596 156.138 169.044 154.772 170.322C154.089 170.918 153.492 171.514 152.809 171.94L152.467 172.792C150.162 178.242 143.929 192.722 128.817 198.428C121.389 201.239 112.851 201.579 103.373 199.365L83.9066 223.128C83.9066 223.128 83.0528 223.724 82.6259 223.724L82.4552 223.809ZM123.865 156.524C119.34 158.312 113.021 161.634 108.155 167.596C99.019 178.753 97.9944 180.968 95.2622 186.93L95.0061 187.526C93.0423 191.7 88.9441 205.668 86.3827 214.696L99.8728 198.173C99.5312 197.747 99.4459 197.15 99.702 196.554C100.044 195.788 100.897 195.277 101.751 195.532C111.57 198.173 120.193 198.087 127.536 195.277C141.282 190.081 147.088 176.624 149.308 171.514L149.906 170.151C149.906 170.151 150.247 169.64 150.503 169.47C151.186 169.044 151.784 168.533 152.467 167.937C153.577 166.915 154.602 165.637 155.455 164.274C157.505 161.038 161.176 152.947 152.211 146.9C149.137 144.77 145.893 144.174 142.648 144.941C138.721 145.963 134.964 149.199 132.573 153.543C132.403 153.798 132.232 153.969 131.976 154.139C131.805 154.309 131.549 154.395 131.293 154.395C131.293 154.395 128.134 154.906 123.95 156.524H123.865Z" fill="black"/>
<path d="M134.452 162.06C134.452 162.06 139.66 157.631 152.638 159.505L159.042 162.486L151.699 171.429L138.38 167.426L134.452 161.975V162.06Z" fill="#EE8552"/>
<path d="M149.564 155.672C149.564 156.609 149.137 157.631 148.027 157.631C146.917 157.631 146.49 156.694 146.49 155.672C146.49 154.65 147.088 153.969 148.027 153.969C148.966 153.969 149.564 154.735 149.564 155.672Z" fill="black"/>
<path d="M154.858 156.183C154.858 157.034 154.516 157.971 153.407 157.971C152.297 157.971 151.955 157.12 151.955 156.183C151.955 155.246 152.467 154.564 153.407 154.564C154.346 154.564 154.858 155.246 154.858 156.183Z" fill="black"/>
<path d="M82.4552 223.809C82.4552 223.809 81.9429 223.809 81.6868 223.639C81.0037 223.298 80.5768 222.446 80.8329 221.68C80.8329 221.424 88.8587 192.722 91.9324 186.163L92.1885 185.567C95.0061 179.435 96.2014 176.965 105.593 165.467C110.972 158.909 117.888 155.246 122.755 153.373C125.999 152.095 128.731 151.499 130.012 151.243C132.83 146.303 137.099 142.811 141.88 141.619C146.064 140.597 150.333 141.449 154.175 144.004C163.567 150.306 162.457 159.505 158.358 165.978C157.334 167.596 156.138 169.044 154.772 170.322C154.089 170.918 153.492 171.514 152.809 171.94L152.467 172.792C150.162 178.242 143.929 192.722 128.817 198.428C121.389 201.239 112.851 201.579 103.373 199.365L83.9066 223.128C83.9066 223.128 83.0528 223.724 82.6259 223.724L82.4552 223.809ZM123.865 156.524C119.34 158.312 113.021 161.634 108.155 167.596C99.019 178.753 97.9944 180.968 95.2622 186.93L95.0061 187.526C93.0423 191.7 88.9441 205.668 86.3827 214.696L99.8728 198.173C99.5312 197.747 99.4459 197.15 99.702 196.554C100.044 195.788 100.897 195.277 101.751 195.532C111.57 198.173 120.193 198.087 127.536 195.277C141.282 190.081 147.088 176.624 149.308 171.514L149.906 170.151C149.906 170.151 150.247 169.64 150.503 169.47C151.186 169.044 151.784 168.533 152.467 167.937C153.577 166.915 154.602 165.637 155.455 164.274C157.505 161.038 161.176 152.947 152.211 146.9C149.137 144.77 145.893 144.174 142.648 144.941C138.721 145.963 134.964 149.199 132.573 153.543C132.403 153.798 132.232 153.969 131.976 154.139C131.805 154.309 131.549 154.395 131.293 154.395C131.293 154.395 128.134 154.906 123.95 156.524H123.865Z" fill="black"/>
<path d="M58.4776 15.244C58.8299 13.9291 41.0662 2.93253 39.7179 3.14095C37.614 3.47676 28.2396 10.53 27.777 11.6954C27.4174 12.5885 44.7613 25.1518 46.7472 25.1442C48.4657 25.1249 58.0803 16.7267 58.4701 15.272L58.4776 15.244Z" fill="#FFFAE3"/>
<path d="M46.4006 25.6523C46.5408 25.6899 46.653 25.72 46.7727 25.722C48.7941 25.694 58.6238 17.0536 59.0661 15.403C59.1786 14.9834 58.8889 14.6059 58.6404 14.2995C56.5998 12.0435 41.3785 2.32787 39.6636 2.55802C37.4045 2.91221 27.8243 10.0602 27.2662 11.4699C27.1407 11.8261 27.3537 12.153 27.4153 12.2595C28.6055 13.9877 43.1474 24.7806 46.4006 25.6523ZM57.8583 15.1993C56.9784 16.9125 48.0038 24.4927 46.7285 24.5408C45.1091 24.5267 30.0921 13.9362 28.431 11.7221C29.5875 10.3228 37.9218 4.01034 39.8069 3.70586C41.6206 3.892 56.6962 13.4786 57.8583 15.1993Z" fill="black"/>
<path d="M41.4561 14.3731C43.9241 15.0344 54.7376 15.623 58.1782 15.7953C58.5017 15.822 58.7805 15.5669 58.7788 15.2366C58.8052 14.9139 58.5492 14.6354 58.2182 14.6366C50.7741 14.2612 42.4252 13.6732 41.6157 13.2165C41.1037 12.6595 40.5082 7.70239 40.2957 3.44758C40.294 3.1173 40.0024 2.85926 39.692 2.89602C39.361 2.89729 39.1308 3.19543 39.14 3.49774C39.3267 7.17591 39.8092 13.4521 41.0224 14.1969C41.1065 14.2195 41.2673 14.2925 41.4636 14.3451L41.4561 14.3731Z" fill="#C1B093"/>
<path d="M46.3508 22.1337C46.3508 22.1337 46.463 22.1638 46.5546 22.1584C46.8651 22.1216 47.1158 21.8589 47.0786 21.5491L46.5236 14.5339C46.4864 14.2241 46.2228 13.9736 45.9124 14.0103C45.602 14.0471 45.3512 14.3097 45.3885 14.6196L45.9435 21.6348C45.9676 21.8811 46.1545 22.0811 46.3789 22.1412L46.3508 22.1337Z" fill="#C1B093"/>
<path d="M32.6003 12.09C32.6003 12.09 32.7125 12.1201 32.7686 12.1351L39.9363 11.7469C40.2392 11.7381 40.4975 11.4475 40.4883 11.1452C40.4791 10.8429 40.1876 10.5848 39.8846 10.5936L32.7169 10.9818C32.4139 10.9906 32.1557 11.2813 32.1649 11.5836C32.1891 11.8299 32.3684 12.0579 32.5928 12.118L32.6003 12.09Z" fill="#C1B093"/>
<path d="M46.4006 25.6523C46.5408 25.6899 46.653 25.72 46.7727 25.722C48.7941 25.694 58.6238 17.0536 59.0661 15.403C59.1786 14.9834 58.8889 14.6059 58.6404 14.2995C56.5998 12.0435 41.3785 2.32787 39.6636 2.55802C37.4045 2.91221 27.8243 10.0602 27.2662 11.4699C27.1407 11.8261 27.3537 12.153 27.4153 12.2595C28.6055 13.9877 43.1474 24.7806 46.4006 25.6523ZM57.8583 15.1993C56.9784 16.9125 48.0038 24.4927 46.7285 24.5408C45.1091 24.5267 30.0921 13.9362 28.431 11.7221C29.5875 10.3228 37.9218 4.01034 39.8069 3.70586C41.6206 3.892 56.6962 13.4786 57.8583 15.1993Z" fill="black"/>
<path d="M97.3968 225.938C97.3968 225.938 97.1407 225.938 97.0553 225.938C96.1161 225.768 95.5185 224.831 95.6892 223.979L96.9699 217.251C97.1407 216.314 97.9945 215.633 98.9337 215.888C99.8729 216.058 100.471 216.995 100.3 217.847L99.0191 224.576C98.8483 225.427 98.1653 225.938 97.3115 225.938H97.3968Z" fill="black"/>
<path d="M69.2217 217.079C68.7948 217.079 68.2826 216.909 67.941 216.483C67.3434 215.801 67.3434 214.694 68.0264 214.098L75.2838 207.455C75.9668 206.858 77.0767 206.858 77.6744 207.54C78.2721 208.221 78.2721 209.328 77.589 209.925L70.3317 216.568C70.3317 216.568 69.5633 216.994 69.2217 216.994V217.079Z" fill="black"/>
<path d="M123.268 163.933C115.498 151.243 81.1753 112.83 59.9156 108.998C58.1226 108.657 56.3296 110.02 56.1588 111.808C55.7319 116.493 56.0735 123.647 58.8056 129.78C60.4279 133.442 63.16 137.871 65.5507 141.533C67.9413 145.195 69.9905 149.113 71.6127 153.116C73.1495 156.949 76.9063 162.656 85.6151 167.255C93.0432 171.173 98.3367 173.643 101.837 175.176C104.826 176.453 108.326 176.113 111.058 174.154L113.791 172.195" fill="#EE8552"/>
<path d="M105.508 177.731C104.057 177.731 102.52 177.391 101.154 176.794C96.4577 174.75 90.9934 172.025 84.846 168.788C75.7103 163.933 71.7828 157.972 70.0752 153.798C68.453 149.88 66.4892 146.048 64.0986 142.47C61.9641 139.149 58.9757 134.379 57.2681 130.461C53.8529 122.881 54.3652 114.194 54.536 111.724C54.6213 110.361 55.3898 109.083 56.4143 108.317C57.5243 107.465 58.8904 107.124 60.2564 107.38C82.1992 111.298 117.205 150.732 124.719 163.082C125.231 163.848 124.975 164.956 124.121 165.467C123.353 165.978 122.243 165.722 121.816 164.87C114.473 152.776 80.577 114.449 59.6588 110.702C59.2319 110.702 58.805 110.702 58.5488 110.957C58.2927 111.213 58.0366 111.553 57.9512 111.979C57.7804 114.279 57.3535 122.2 60.4272 129.098C61.7933 132.079 64.0132 136.083 67.0015 140.597C69.4775 144.429 71.612 148.432 73.2343 152.521C74.6857 156.183 78.1863 161.464 86.4682 165.807C92.5302 169.044 97.9092 171.599 102.52 173.643C104.996 174.665 107.813 174.41 110.033 172.791L112.765 170.832C113.534 170.321 114.558 170.492 115.156 171.173C115.668 171.94 115.498 172.962 114.815 173.558L112.082 175.517C110.204 176.879 107.899 177.646 105.593 177.646L105.508 177.731Z" fill="black"/>
<path d="M115.071 172.365C111.656 167.17 106.106 157.29 103.972 149.965C101.837 142.641 103.289 139.83 103.289 139.83C103.289 139.83 122.585 160.441 125.231 165.637" fill="#A9C973"/>
<path d="M115.071 174.069C114.473 174.069 113.961 173.814 113.619 173.303C110.546 168.533 104.654 158.313 102.349 150.477C100.044 142.641 101.581 139.405 101.751 139.064C102.008 138.553 102.52 138.212 103.032 138.127C103.63 138.127 104.142 138.212 104.484 138.638C105.252 139.49 123.95 159.505 126.682 164.871C127.109 165.722 126.768 166.744 125.914 167.17C125.06 167.596 124.036 167.255 123.609 166.404C121.816 162.912 110.802 150.562 104.484 143.663C104.484 145.026 104.825 146.985 105.594 149.54C107.813 157.035 113.449 166.83 116.437 171.514C116.949 172.281 116.693 173.388 115.925 173.899C115.668 174.069 115.327 174.154 114.985 174.154L115.071 174.069Z" fill="black"/>
<path d="M151.357 170.832C149.564 174.75 143.929 190.847 128.048 196.894C133.427 183.948 125.316 165.551 125.316 165.551L121.986 160.441L123.267 154.99L131.037 152.775C134.11 171.854 151.357 170.917 151.357 170.917V170.832Z" fill="#F9F4DE"/>
<path d="M128.134 198.597C127.707 198.597 127.28 198.427 126.939 198.086C126.426 197.575 126.341 196.894 126.597 196.213C131.549 184.118 123.95 166.403 123.865 166.232L120.62 161.378C120.62 161.378 120.279 160.526 120.364 160.015L121.645 154.564C121.816 153.968 122.243 153.542 122.755 153.371L130.525 151.157C130.525 151.157 131.378 151.072 131.72 151.157C132.232 151.413 132.659 151.838 132.744 152.435C135.562 169.639 150.589 169.213 151.272 169.128C151.87 169.128 152.467 169.384 152.809 169.895C153.15 170.406 153.236 171.002 152.98 171.598L152.382 172.876C150.077 178.327 143.844 192.806 128.732 198.512C128.561 198.512 128.305 198.597 128.134 198.597ZM123.865 160.1L126.853 164.614C127.28 165.551 133.94 180.882 130.951 193.743C141.624 188.121 146.747 177.475 148.967 172.365C143.929 171.768 133.001 168.873 129.842 154.819L124.804 156.267L123.95 160.015L123.865 160.1Z" fill="black"/>
<path d="M156.822 163.592C155.712 162.059 153.406 158.993 149.991 162.825C148.54 164.529 150.077 166.147 151.528 167.85C152.98 169.554 169.202 189.739 178.337 201.919C179.021 202.856 181.07 201.663 180.557 200.556C173.898 187.269 164.506 174.579 156.736 163.677L156.822 163.592Z" fill="#4C331B"/>
<path d="M179.191 203.879C178.337 203.879 177.569 203.538 177.057 202.857C168.006 190.763 151.699 170.577 150.247 168.959C148.625 167.085 146.32 164.445 148.71 161.719C150.247 160.016 151.955 159.249 153.406 159.335C155.882 159.42 157.419 161.634 158.188 162.656L160.066 165.296C167.494 175.687 175.947 187.441 182.094 199.791C182.692 201.068 182.179 202.601 180.813 203.453C180.301 203.794 179.618 203.964 179.106 203.964L179.191 203.879ZM153.236 162.741C152.723 162.741 152.04 163.167 151.272 164.019C151.016 164.36 150.93 164.53 152.638 166.489C154.175 168.277 167.494 184.801 176.801 196.98C171.08 186.504 163.823 176.369 157.334 167.426L155.455 164.785C155.029 164.189 154.089 162.912 153.321 162.912L153.236 162.741Z" fill="black"/>
<path d="M199.306 56.0475C197.911 55.0556 177.161 71.1643 176.816 72.8446C176.288 75.4711 180.488 89.6114 181.658 90.6676C182.553 91.4831 204.965 76.5562 205.827 74.2127C206.558 72.1792 200.879 57.166 199.336 56.0686L199.306 56.0475Z" fill="#FFFAE3"/>
<path d="M206.272 74.8429C206.378 74.6942 206.463 74.5752 206.518 74.4351C207.371 72.0408 201.502 56.6677 199.75 55.4226C199.305 55.106 198.734 55.2817 198.263 55.4402C194.71 56.8553 176.585 70.53 176.104 72.6517C175.53 75.4692 179.751 89.8935 181.167 91.1695C181.532 91.4736 182.011 91.366 182.163 91.3401C184.722 90.6957 203.818 78.2941 206.272 74.8429ZM198.981 56.7565C200.614 58.5448 205.609 72.4451 205.107 73.969C204.38 75.871 185.313 88.9213 181.975 89.9075C180.834 87.931 177.051 75.3412 177.519 72.9864C178.534 70.9307 196.443 57.3712 198.981 56.7565Z" fill="black"/>
<path d="M190.812 75.7197C192.673 73.1016 198.11 60.6174 199.822 56.6386C199.996 56.2692 199.817 55.8288 199.428 55.6859C199.059 55.5132 198.618 55.6928 198.475 56.0833C194.767 64.6905 190.412 74.2708 189.519 75.0242C188.638 75.3833 182.535 73.9107 177.428 72.2948C177.038 72.1519 176.606 72.3823 176.514 72.7642C176.37 73.1548 176.62 73.5568 176.981 73.6786C181.397 75.072 189.004 77.2563 190.414 76.1535C190.477 76.0642 190.634 75.9068 190.782 75.6986L190.812 75.7197Z" fill="#C1B093"/>
<path d="M202.102 73.3557C202.102 73.3557 202.187 73.2367 202.221 73.1263C202.313 72.7444 202.114 72.3337 201.732 72.2417L193.222 69.8186C192.841 69.7266 192.43 69.9272 192.337 70.3091C192.245 70.6911 192.444 71.1017 192.826 71.1938L201.335 73.6168C201.636 73.6964 201.954 73.5639 202.123 73.3259L202.102 73.3557Z" fill="#C1B093"/>
<path d="M184.238 85.156C184.238 85.156 184.323 85.037 184.365 84.9775L187.052 76.361C187.174 76.0001 186.945 75.5684 186.585 75.4466C186.225 75.3248 185.793 75.5552 185.67 75.916L182.984 84.5325C182.861 84.8934 183.09 85.3251 183.45 85.4469C183.751 85.5265 184.099 85.4151 184.268 85.1771L184.238 85.156Z" fill="#C1B093"/>
<path d="M206.272 74.8429C206.378 74.6942 206.463 74.5752 206.518 74.4351C207.371 72.0408 201.502 56.6677 199.75 55.4226C199.305 55.106 198.734 55.2817 198.263 55.4402C194.71 56.8553 176.585 70.53 176.104 72.6517C175.53 75.4692 179.751 89.8935 181.167 91.1695C181.532 91.4736 182.011 91.366 182.163 91.3401C184.722 90.6957 203.818 78.2941 206.272 74.8429ZM198.981 56.7565C200.614 58.5448 205.609 72.4451 205.107 73.969C204.38 75.871 185.313 88.9213 181.975 89.9075C180.834 87.931 177.051 75.3412 177.519 72.9864C178.534 70.9307 196.443 57.3712 198.981 56.7565Z" fill="black"/>
</svg>
