<svg width="200" height="200" viewBox="0 0 200 200" fill="none" xmlns="http://www.w3.org/2000/svg">
<path d="M76.9989 35.5131C75.9317 34.6006 74.4832 34.9808 73.7972 36.1975C72.12 39.3154 70.0618 44.5626 69.8331 49.8097C69.6806 52.9276 69.9855 56.958 70.3667 60.3801C70.7479 63.9542 70.7479 67.5283 70.5954 71.1025C70.4429 74.3725 70.9766 79.6196 74.9406 85.9314C81.7253 96.6538 85.0796 100.456 85.0796 100.456L99.4113 96.882C98.4965 85.0949 89.0436 45.7793 76.9989 35.5131Z" fill="#EE8552"/>
<path d="M85.0799 101.978C84.6225 101.978 84.2413 101.826 83.9364 101.445C83.7839 101.293 80.4297 97.415 73.645 86.6926C69.5285 80.0766 68.8424 74.5253 69.0711 71.0272C69.2998 67.377 69.2235 63.8789 68.8424 60.5329C68.385 56.1222 68.2325 52.472 68.3088 49.7344C68.5375 43.0424 71.5105 37.1108 72.4253 35.4378C72.9589 34.4492 73.8737 33.6888 75.0172 33.5367C76.0845 33.3846 77.1517 33.6127 77.9903 34.3732C90.7211 45.1716 100.021 84.9435 100.936 96.8066C100.936 97.5671 100.479 98.2515 99.7928 98.4036L85.4611 101.978C85.4611 101.978 85.2324 101.978 85.0799 101.978ZM75.7033 36.5024C75.7033 36.5024 75.7033 36.5024 75.6271 36.5024C75.4746 36.5024 75.3221 36.6545 75.1697 36.8827C74.3311 38.4036 71.663 43.8789 71.4343 49.8865C71.3581 52.396 71.5105 55.9701 71.9679 60.2287C72.3491 63.7268 72.4253 67.377 72.1966 71.1793C72.0441 74.2971 72.5778 79.164 76.3132 85.0956C81.3445 93.0804 84.47 97.1869 85.6898 98.7838L97.8107 95.742C96.2861 81.8256 86.757 45.8561 76.0082 36.7306C76.0082 36.7306 75.7795 36.5785 75.7033 36.5785V36.5024Z" fill="black"/>
<path d="M99.1818 93.6894C99.1818 93.6894 94.5316 70.2673 93.007 67.7578C93.007 67.7578 86.3748 74.0696 90.7963 96.2749" fill="#A9C973"/>
<path d="M90.7966 97.7952C90.1105 97.7952 89.4244 97.2629 89.2719 96.5785C84.7742 73.8409 91.6351 66.9207 91.9401 66.6926C92.245 66.3884 92.7024 66.2363 93.236 66.3123C93.6934 66.3123 94.0746 66.6165 94.3795 67.0728C95.9041 69.6584 99.9445 89.5063 100.707 93.4606C100.859 94.2971 100.326 95.0576 99.4871 95.2857C98.6485 95.4378 97.8862 94.9055 97.6575 94.069C96.2091 86.6165 93.9983 76.4264 92.6261 71.4834C91.1777 74.9055 89.5768 82.2819 92.3212 96.1222C92.4737 96.9587 91.9401 97.7192 91.1015 97.9473C91.0253 97.9473 90.8728 97.9473 90.7966 97.9473V97.7952Z" fill="black"/>
<path d="M53.9772 149.202C48.1836 156.35 39.4168 149.202 42.1612 143.194C33.9281 143.726 33.0895 132.471 40.789 128.973C45.058 126.996 72.6542 117.643 72.6542 117.643C72.6542 117.643 78.2954 141.065 79.82 147.3C81.7258 155.285 71.1295 158.479 67.3941 151.103C67.3941 151.103 65.717 157.719 59.466 156.882C53.2149 156.046 53.9772 149.202 53.9772 149.202Z" fill="#665028"/>
<path d="M60.5335 158.479C60.1523 158.479 59.695 158.479 59.3138 158.403C55.1972 157.871 53.3677 155.057 52.7578 152.395C49.7085 154.373 46.4305 153.84 44.2198 152.395C41.3229 150.646 39.8745 147.529 40.2557 144.487C37.2826 144.03 35.0719 142.053 34.3095 139.011C33.3185 135.057 34.9956 129.81 40.2557 127.376C44.5247 125.399 71.1298 116.35 72.2733 115.97C72.6545 115.818 73.1119 115.894 73.493 116.046C73.8742 116.274 74.1029 116.578 74.2553 117.034L81.4212 146.692C82.5647 151.483 79.8966 154.829 76.771 155.97C74.0267 156.958 70.4437 156.578 67.8518 153.916C66.5559 156.122 64.2689 158.251 60.686 158.251L60.5335 158.479ZM53.9775 147.681C53.9775 147.681 54.3587 147.681 54.5874 147.757C55.1972 147.985 55.5784 148.669 55.5022 149.278C55.5022 149.81 55.121 154.677 59.695 155.285C64.3451 155.894 65.7935 151.179 65.8698 150.646C66.0222 150.038 66.5559 149.582 67.1657 149.506C67.7756 149.506 68.3854 149.734 68.6904 150.342C70.2913 153.536 73.4168 154.068 75.5513 153.308C77.3809 152.624 79.1342 150.799 78.2957 147.605L71.511 119.544C65.5648 121.597 44.9821 128.593 41.3992 130.266C37.74 131.939 36.444 135.665 37.1301 138.327C37.74 140.608 39.4933 141.749 42.009 141.597C42.5426 141.521 43.0763 141.825 43.3812 142.205C43.6861 142.662 43.7624 143.194 43.5337 143.726C42.4664 146.084 43.8386 148.669 45.7444 149.81C46.6592 150.342 49.7847 151.863 52.7578 148.137C53.0627 147.757 53.5201 147.605 53.9775 147.605V147.681Z" fill="black"/>
<path d="M102.233 131.94C102.233 128.366 154.758 112.549 158.036 113.993C163.143 116.275 182.125 140.533 182.506 143.803C182.811 146.313 130.287 166.389 125.256 165.02C120.91 163.803 102.233 135.971 102.233 132.016V131.94Z" fill="#FFFAE3"/>
<path d="M125.789 166.54C125.407 166.54 125.102 166.54 124.798 166.464C119.69 165.019 100.632 136.426 100.632 131.94C100.632 130.799 101.623 130.038 102.461 129.43C109.17 125.095 154.376 110.799 158.569 112.548C164.057 114.981 183.497 139.62 183.954 143.575C184.03 144.563 183.268 145.248 183.039 145.476C178.846 149.05 134.632 166.54 125.789 166.54ZM103.834 132.244C104.901 137.187 122.511 162.51 125.712 163.498C129.829 164.563 175.111 147.909 180.828 143.422C178.846 139.088 161.999 117.415 157.425 115.362C152.699 114.601 107.95 128.67 103.834 132.244Z" fill="black"/>
<path d="M145.991 141.294C139.282 141.294 111.458 135.439 102.615 133.538C101.776 133.386 101.242 132.549 101.471 131.713C101.624 130.876 102.462 130.344 103.301 130.572C122.435 134.678 144.009 138.861 146.372 138.252C148.049 137.188 152.928 125.021 156.358 114.374C156.587 113.538 157.502 113.081 158.264 113.386C159.103 113.614 159.484 114.526 159.255 115.287C156.282 124.488 150.793 140.078 147.211 141.142C146.982 141.142 146.524 141.218 145.991 141.218V141.294Z" fill="#C1B093"/>
<path d="M128.305 157.642C128.305 157.642 128 157.642 127.771 157.566C127.009 157.261 126.551 156.425 126.856 155.664L133.031 138.25C133.336 137.49 134.175 137.033 134.937 137.337C135.699 137.642 136.157 138.478 135.852 139.239L129.677 156.653C129.448 157.261 128.838 157.642 128.228 157.642H128.305Z" fill="#C1B093"/>
<path d="M170.003 141.521C170.003 141.521 169.698 141.521 169.546 141.521L151.631 135.665C150.869 135.437 150.411 134.525 150.64 133.764C150.869 133.004 151.784 132.548 152.546 132.776L170.461 138.631C171.223 138.859 171.68 139.772 171.452 140.532C171.223 141.141 170.613 141.597 170.003 141.597V141.521Z" fill="#C1B093"/>
<path d="M125.789 166.54C125.407 166.54 125.102 166.54 124.798 166.464C119.69 165.019 100.632 136.426 100.632 131.94C100.632 130.799 101.623 130.038 102.461 129.43C109.17 125.095 154.376 110.799 158.569 112.548C164.057 114.981 183.497 139.62 183.954 143.575C184.03 144.563 183.268 145.248 183.039 145.476C178.846 149.05 134.632 166.54 125.789 166.54ZM103.834 132.244C104.901 137.187 122.511 162.51 125.712 163.498C129.829 164.563 175.111 147.909 180.828 143.422C178.846 139.088 161.999 117.415 157.425 115.362C152.699 114.601 107.95 128.67 103.834 132.244Z" fill="black"/>
<path d="M120.376 98.3282C119.538 99.6971 118.47 100.914 117.403 101.902C116.793 102.511 116.107 103.043 115.497 103.423C113.896 106.921 108.865 121.294 94.6857 126.693C88.5871 128.975 80.7352 129.659 70.6725 126.921L71.6635 127.454L53.9014 149.203C53.9776 148.823 61.0672 123.423 63.7354 117.72C66.4035 112.016 67.242 110.039 75.7039 99.621C80.2016 94.1457 85.919 91.0279 90.3405 89.2788C94.2284 87.7579 97.049 87.3016 97.2776 87.3016C101.166 80.0012 109.246 75.5145 116.946 80.7617C124.569 85.9328 123.578 93.1571 120.3 98.3282H120.376Z" fill="#A9C973"/>
<path d="M53.9774 150.723C53.9774 150.723 53.52 150.723 53.2913 150.571C52.6815 150.267 52.3003 149.507 52.529 148.822C52.529 148.594 59.6949 122.967 62.4392 117.111L62.6679 116.579C65.1836 111.104 66.2508 108.898 74.6364 98.6321C79.4391 92.7766 85.6139 89.5066 89.9591 87.8336C92.856 86.693 95.2954 86.1606 96.4389 85.9325C98.9546 81.5219 102.766 78.404 107.035 77.3393C110.771 76.4268 114.582 77.1873 118.013 79.4686C126.398 85.096 125.407 93.3089 121.748 99.0884C120.833 100.533 119.766 101.826 118.546 102.967C117.936 103.499 117.403 104.031 116.793 104.412L116.488 105.172C114.43 110.039 108.865 122.967 95.3717 128.062C88.7394 130.571 81.1162 130.875 72.6544 128.898L55.2734 150.115C55.2734 150.115 54.511 150.647 54.1299 150.647L53.9774 150.723ZM90.9502 90.6473C86.9098 92.2443 81.2686 95.2101 76.9234 100.533C68.7665 110.495 67.8517 112.472 65.4123 117.796L65.1836 118.328C63.4302 122.054 59.7711 134.526 57.4841 142.587L69.5288 127.834C69.2239 127.453 69.1477 126.921 69.3764 126.389C69.6813 125.704 70.4436 125.248 71.206 125.476C79.9727 127.834 87.6722 127.758 94.2282 125.248C106.502 120.609 111.685 108.594 113.667 104.031L114.201 102.815C114.201 102.815 114.506 102.358 114.735 102.206C115.345 101.826 115.878 101.37 116.488 100.837C117.479 99.9249 118.394 98.7842 119.156 97.5675C120.986 94.6778 124.264 87.4534 116.259 82.0542C113.515 80.153 110.618 79.6207 107.721 80.3051C104.215 81.2177 100.86 84.1074 98.7259 87.9857C98.5734 88.2139 98.4209 88.366 98.1922 88.5181C98.0398 88.6701 97.8111 88.7462 97.5824 88.7462C97.5824 88.7462 94.7618 89.2025 91.0264 90.6473H90.9502Z" fill="black"/>
<path d="M100.403 95.5905C100.403 95.5905 105.054 91.6361 116.641 93.3092L122.358 95.9708L115.802 103.956L103.91 100.381L100.403 95.5145V95.5905Z" fill="#EE8552"/>
<path d="M113.896 89.8861C113.896 90.7227 113.515 91.6352 112.524 91.6352C111.533 91.6352 111.151 90.7987 111.151 89.8861C111.151 88.9736 111.685 88.3652 112.524 88.3652C113.362 88.3652 113.896 89.0496 113.896 89.8861Z" fill="black"/>
<path d="M118.622 90.3414C118.622 91.1018 118.317 91.9383 117.326 91.9383C116.335 91.9383 116.03 91.1779 116.03 90.3414C116.03 89.5048 116.488 88.8965 117.326 88.8965C118.165 88.8965 118.622 89.5048 118.622 90.3414Z" fill="black"/>
<path d="M53.9774 150.723C53.9774 150.723 53.52 150.723 53.2913 150.571C52.6815 150.267 52.3003 149.507 52.529 148.822C52.529 148.594 59.6949 122.967 62.4392 117.111L62.6679 116.579C65.1836 111.104 66.2508 108.898 74.6364 98.6321C79.4391 92.7766 85.6139 89.5066 89.9591 87.8336C92.856 86.693 95.2954 86.1606 96.4389 85.9325C98.9546 81.5219 102.766 78.404 107.035 77.3393C110.771 76.4268 114.582 77.1873 118.013 79.4686C126.398 85.096 125.407 93.3089 121.748 99.0884C120.833 100.533 119.766 101.826 118.546 102.967C117.936 103.499 117.403 104.031 116.793 104.412L116.488 105.172C114.43 110.039 108.865 122.967 95.3717 128.062C88.7394 130.571 81.1162 130.875 72.6544 128.898L55.2734 150.115C55.2734 150.115 54.511 150.647 54.1299 150.647L53.9774 150.723ZM90.9502 90.6473C86.9098 92.2443 81.2686 95.2101 76.9234 100.533C68.7665 110.495 67.8517 112.472 65.4123 117.796L65.1836 118.328C63.4302 122.054 59.7711 134.526 57.4841 142.587L69.5288 127.834C69.2239 127.453 69.1477 126.921 69.3764 126.389C69.6813 125.704 70.4436 125.248 71.206 125.476C79.9727 127.834 87.6722 127.758 94.2282 125.248C106.502 120.609 111.685 108.594 113.667 104.031L114.201 102.815C114.201 102.815 114.506 102.358 114.735 102.206C115.345 101.826 115.878 101.37 116.488 100.837C117.479 99.9249 118.394 98.7842 119.156 97.5675C120.986 94.6778 124.264 87.4534 116.259 82.0542C113.515 80.153 110.618 79.6207 107.721 80.3051C104.215 81.2177 100.86 84.1074 98.7259 87.9857C98.5734 88.2139 98.4209 88.366 98.1922 88.5181C98.0398 88.6701 97.8111 88.7462 97.5824 88.7462C97.5824 88.7462 94.7618 89.2025 91.0264 90.6473H90.9502Z" fill="black"/>
<path d="M67.3182 152.623C67.3182 152.623 67.0895 152.623 67.0133 152.623C66.1747 152.471 65.6411 151.635 65.7935 150.874L66.937 144.867C67.0895 144.03 67.8518 143.422 68.6904 143.65C69.5289 143.802 70.0626 144.638 69.9101 145.399L68.7666 151.407C68.6141 152.167 68.0043 152.623 67.242 152.623H67.3182Z" fill="black"/>
<path d="M42.1616 144.716C41.7804 144.716 41.3231 144.564 41.0181 144.183C40.4845 143.575 40.4845 142.587 41.0944 142.054L47.5741 136.123C48.184 135.59 49.175 135.59 49.7086 136.199C50.2423 136.807 50.2423 137.796 49.6324 138.328L43.1526 144.26C43.1526 144.26 42.4665 144.64 42.1616 144.64V144.716Z" fill="black"/>
<path d="M90.4166 97.2642C83.4795 85.9334 52.834 51.6369 33.8521 48.2148C32.2513 47.9106 30.6504 49.1274 30.4979 50.7243C30.1168 54.9068 30.4217 61.2947 32.8611 66.7699C34.3095 70.0399 36.749 73.9943 38.8835 77.2642C41.018 80.5342 42.8476 84.0323 44.296 87.6064C45.6682 91.0285 49.0224 96.1236 56.7981 100.23C63.4303 103.728 68.1568 105.933 71.2823 107.302C73.9504 108.443 77.076 108.139 79.5154 106.39L81.9548 104.641" fill="#EE8552"/>
<path d="M74.5601 109.583C73.2641 109.583 71.892 109.279 70.6722 108.747C66.4795 106.922 61.6006 104.488 56.1118 101.598C47.955 97.2637 44.4483 91.9405 42.9236 88.2143C41.4752 84.7162 39.7219 81.2941 37.5873 78.1002C35.6815 75.1344 33.0134 70.8759 31.4887 67.3778C28.4394 60.6097 28.8968 52.8531 29.0493 50.6477C29.1255 49.431 29.8116 48.2903 30.7264 47.6059C31.7174 46.8455 32.9372 46.5413 34.1569 46.7694C53.7486 50.2675 85.0039 85.4766 91.7124 96.5033C92.1698 97.1877 91.9411 98.1763 91.1788 98.6325C90.4927 99.0888 89.5017 98.8607 89.1205 98.1002C82.5645 87.3017 52.3002 53.0812 33.6233 49.7352C33.2421 49.7352 32.8609 49.7352 32.6322 49.9633C32.4035 50.1915 32.1748 50.4956 32.0986 50.8759C31.9461 52.9291 31.565 60.0014 34.3093 66.161C35.5291 68.8226 37.5111 72.3968 40.1792 76.4272C42.39 79.8493 44.2958 83.4234 45.7442 87.0736C47.0402 90.3436 50.1657 95.0584 57.5602 98.9367C62.9728 101.826 67.7754 104.108 71.892 105.933C74.1027 106.845 76.6184 106.617 78.6004 105.172L81.0399 103.423C81.7259 102.967 82.6407 103.119 83.1744 103.728C83.6318 104.412 83.4793 105.325 82.8694 105.857L80.43 107.606C78.7529 108.823 76.6946 109.507 74.6363 109.507L74.5601 109.583Z" fill="black"/>
<path d="M83.0969 104.794C80.0476 100.155 75.0925 91.3335 73.1867 84.7936C71.2809 78.2536 72.5769 75.7441 72.5769 75.7441C72.5769 75.7441 89.8054 94.1472 92.1686 98.786" fill="#A9C973"/>
<path d="M83.0974 106.314C82.5638 106.314 82.1064 106.086 81.8015 105.629C79.0571 101.371 73.797 92.2455 71.7388 85.2493C69.6805 78.2531 71.0527 75.3633 71.2051 75.0592C71.4338 74.6029 71.8912 74.2987 72.3486 74.2227C72.8823 74.2227 73.3396 74.2987 73.6446 74.6789C74.3307 75.4394 91.0256 93.3101 93.465 98.101C93.8462 98.8614 93.5413 99.774 92.7789 100.154C92.0166 100.534 91.1018 100.23 90.7206 99.4698C89.1198 96.3519 79.2858 85.3253 73.6446 79.1656C73.6446 80.3824 73.9495 82.1314 74.6356 84.4128C76.6176 91.1048 81.649 99.85 84.3171 104.033C84.7745 104.717 84.5458 105.706 83.8597 106.162C83.631 106.314 83.3261 106.39 83.0212 106.39L83.0974 106.314Z" fill="black"/>
<path d="M115.497 103.422C113.897 106.921 108.865 121.293 94.6859 126.692C99.4886 115.133 92.2465 98.7076 92.2465 98.7076L89.2734 94.1449L90.4169 89.278L97.3541 87.3008C100.098 104.335 115.497 103.499 115.497 103.499V103.422Z" fill="#F9F4DE"/>
<path d="M94.7619 128.213C94.3807 128.213 93.9996 128.061 93.6946 127.757C93.2372 127.301 93.161 126.693 93.3897 126.084C97.8112 115.286 91.0265 99.4682 90.9503 99.3161L88.0534 94.9815C88.0534 94.9815 87.7485 94.2211 87.8247 93.7648L88.9682 88.8979C89.1207 88.3656 89.5019 87.9853 89.9592 87.8333L96.8964 85.8561C96.8964 85.8561 97.6587 85.78 97.9637 85.8561C98.4211 86.0842 98.8022 86.4644 98.8784 86.9967C101.394 102.358 114.811 101.978 115.421 101.902C115.955 101.902 116.488 102.13 116.793 102.586C117.098 103.042 117.174 103.575 116.946 104.107L116.412 105.248C114.354 110.115 108.789 123.042 95.2955 128.137C95.1431 128.137 94.9144 128.213 94.7619 128.213ZM90.9503 93.8409L93.6184 97.8713C93.9996 98.7078 99.9457 112.396 97.2776 123.879C106.807 118.86 111.381 109.354 113.363 104.791C108.865 104.259 99.1071 101.674 96.2865 89.126L91.7888 90.4188L91.0265 93.7648L90.9503 93.8409Z" fill="black"/>
<path d="M120.377 96.958C119.386 95.5892 117.328 92.8515 114.278 96.2736C112.982 97.7945 114.354 99.2394 115.65 100.76C116.946 102.281 131.431 120.304 139.587 131.179C140.197 132.015 142.027 130.95 141.569 129.962C135.623 118.099 127.238 106.768 120.301 97.034L120.377 96.958Z" fill="#4C331B"/>
<path d="M140.349 132.928C139.587 132.928 138.901 132.624 138.443 132.015C130.363 121.217 115.802 103.194 114.506 101.749C113.058 100.076 111 97.7188 113.134 95.2854C114.506 93.7645 116.031 93.08 117.327 93.1561C119.538 93.2321 120.91 95.2093 121.596 96.1219L123.273 98.4793C129.905 107.757 137.452 118.251 142.941 129.278C143.475 130.418 143.017 131.787 141.798 132.548C141.34 132.852 140.73 133.004 140.273 133.004L140.349 132.928ZM117.175 96.1979C116.717 96.1979 116.107 96.5781 115.421 97.3386C115.193 97.6428 115.116 97.7949 116.641 99.5439C118.013 101.141 129.905 115.894 138.215 126.768C133.107 117.415 126.627 108.365 120.834 100.38L119.157 98.023C118.775 97.4907 117.937 96.35 117.251 96.35L117.175 96.1979Z" fill="black"/>
</svg>
