<svg width="24" height="24" viewBox="0 0 24 24" fill="none" xmlns="http://www.w3.org/2000/svg">
    <path d="M2 6.19125C8.4 6.19125 15.83 5.99385 22 6.19125Z" fill="#7B7968"/>
    <path d="M2 6.19125C8.4 6.19125 15.83 5.99385 22 6.19125" stroke="#7B7968" stroke-width="2" stroke-miterlimit="10" stroke-linecap="round"/>
    <path d="M4 6.3306C4.29 10.703 4.97 16.2498 5.69 19.6254C5.97 20.9479 7.14 21.9053 8.51 21.9448C11.3 22.0435 13.37 22.0435 15.49 21.9645C16.84 21.9152 18 20.9677 18.28 19.6747C19.21 15.3813 20.01 8.52172 20.01 6.28125" stroke="#7B7968" stroke-width="2" stroke-linecap="round" stroke-linejoin="round"/>
    <path d="M8 6.10228C8 4.56258 8.61 2.70704 9 2.27276C9.39 1.83849 14.19 1.94705 15 2.27276C15.81 2.59847 16 6.10228 16 6.10228" stroke="#7B7968" stroke-width="2" stroke-linecap="round" stroke-linejoin="round"/>
    <path d="M9 10.1094C9 11.5208 9.5 15.4589 9.72 17.0874" stroke="#7B7968" stroke-width="2" stroke-linecap="round" stroke-linejoin="round"/>
    <path d="M15 10.1094C15 12.942 14.72 15.4589 14.5 17.0874" stroke="#7B7968" stroke-width="2" stroke-linecap="round" stroke-linejoin="round"/>
</svg>
