<svg width="303" height="303" viewBox="0 0 303 303" fill="none" xmlns="http://www.w3.org/2000/svg">
    <g opacity="0.15">
        <path d="M151.314 16.107C146.1 16.107 140.886 15.7354 135.672 15.8593C130.458 15.9831 125.244 16.9741 120.03 17.2218C114.816 17.4696 109.602 18.3367 104.512 18.956C98.4294 19.6992 91.2291 19.3276 90.1118 26.5121C89.367 30.9714 91.4774 35.6784 92.5947 40.3855C93.712 45.0925 94.9534 50.0473 93.4637 54.5066C92.843 56.3647 89.9877 56.984 89.367 58.8421C88.3738 62.0627 91.8498 65.7788 92.2223 68.9994C92.7188 73.0871 90.4843 76.9271 88.2497 80.3954C85.1461 85.2263 80.3046 88.447 74.0975 94.145C70.1249 97.7372 66.4007 103.064 61.435 109.505C58.4556 113.345 55.8486 118.176 54.7313 124.617C53.8623 129.448 54.1106 135.146 53.8623 141.339C53.8623 146.418 53.8623 152.116 53.9864 158.062C54.1106 163.264 54.2347 168.838 54.483 174.784C54.7313 180.111 55.1037 185.685 55.352 191.507C55.6003 196.957 54.6072 202.531 54.7313 208.353C54.7313 213.803 55.7244 219.377 55.7244 225.199C55.7244 231.021 55.9727 236.719 56.8417 241.55C57.959 247.496 59.5728 252.698 61.9315 257.158C64.6627 262.236 68.7594 265.829 72.8561 269.297C76.9528 272.765 81.2977 275.862 86.5117 278.092C91.3533 280.074 96.5672 282.055 102.154 283.17C107.368 284.161 112.83 284.037 118.54 284.533C124.251 285.028 129.341 285.276 134.927 285.4C140.514 285.524 145.852 285.028 151.314 285.028C156.776 285.028 162.363 286.143 167.701 286.019C173.039 285.895 178.749 284.657 184.088 284.161C189.674 283.666 195.26 283.542 200.35 282.427C205.937 281.312 211.523 280.445 216.364 278.463C221.578 276.357 225.923 272.889 230.02 269.421C234.117 265.952 238.089 262.112 240.696 257.034C243.055 252.574 245.041 247.372 246.159 241.55C247.152 236.719 247.028 231.145 247.028 225.075C247.028 219.006 247.028 213.679 247.028 208.229C247.152 202.407 246.655 196.833 246.903 191.383C247.152 185.561 248.766 179.987 249.014 174.66C249.262 168.715 248.393 163.14 248.641 157.938C248.766 151.868 249.138 146.294 249.014 141.215C248.89 135.022 249.014 129.324 248.269 124.369C247.152 117.928 244.172 113.345 241.193 109.505C238.586 106.16 236.227 102.568 233.248 99.5952C230.268 96.6224 227.413 93.5256 224.185 90.6766C220.709 87.5799 216.489 84.4831 213.882 80.3954C211.275 76.3077 210.282 71.6007 211.399 66.3981C212.516 60.7001 211.771 59.5853 209.909 54.2589C209.04 51.5338 210.157 48.8086 210.53 45.9596C211.275 39.3945 213.261 32.9533 212.516 26.3882C211.647 18.0889 200.598 19.2037 193.895 18.5844C189.177 18.0889 184.584 16.6025 179.867 16.3547C175.149 16.107 170.308 17.098 165.59 16.9741C160.873 16.8502 156.156 15.8593 151.438 15.8593L151.314 16.107Z" fill="white"/>
        <path d="M166.832 288C164.225 288 161.493 287.753 158.886 287.505C153.921 287.009 148.955 287.009 143.989 287.133C140.886 287.257 137.782 287.381 134.803 287.257C129.216 287.133 123.63 286.762 118.292 286.39C116.43 286.266 114.568 286.142 112.706 286.018C109.105 285.894 105.257 285.647 101.781 285.027C95.9464 283.913 90.4841 281.683 85.7667 279.825C81.0493 277.843 76.5802 274.994 71.6145 270.782C67.6419 267.438 63.1728 263.598 60.3175 258.024C57.9588 253.688 56.2208 248.362 54.9794 241.921C53.9863 236.594 53.8621 230.772 53.8621 225.198C53.8621 222.102 53.6138 219.005 53.3656 216.032C53.1173 213.431 52.9931 210.953 52.869 208.476C52.869 205.503 52.9931 202.654 53.1173 199.929C53.3656 197.08 53.4897 194.355 53.3656 191.63C53.3656 188.409 53.1173 185.188 52.869 182.092C52.7449 179.738 52.6207 177.385 52.4966 175.031C52.3724 170.819 52.2483 166.608 52.1241 162.768V158.309C52 151.124 52 145.922 52 141.338V137.251C52 132.668 52.1241 128.208 52.869 124.368C53.8621 118.546 56.2208 113.344 59.9451 108.513L62.3038 105.416C66.2764 100.214 69.3799 96.126 72.8559 92.9054C74.718 91.2951 76.3319 89.8086 77.9457 88.4461C81.67 85.2254 84.6494 82.748 86.6357 79.5274C88.7461 76.3068 90.7324 72.9623 90.36 69.3701C90.36 68.3791 89.6151 67.1404 88.9944 65.9018C87.8771 63.6721 86.6357 61.1947 87.5047 58.4696C88.0012 56.9831 89.2427 55.9922 90.2358 55.3728C90.8565 55.0012 91.4772 54.5057 91.6014 54.1341C92.8428 50.418 91.8497 46.0826 90.8565 41.7471V41.0039C90.36 39.7652 90.1117 38.5265 89.7392 37.4117C88.7461 33.8195 87.6288 30.1034 88.2495 26.5112C89.491 18.8312 96.3188 18.2119 101.781 17.5925C102.65 17.5925 103.519 17.4687 104.264 17.3448L106.995 16.9732C111.216 16.4777 115.561 15.8584 120.03 15.6106C122.265 15.4867 124.499 15.239 126.734 14.9913C129.713 14.6197 132.692 14.248 135.796 14.248C138.651 14.248 141.631 14.248 144.486 14.3719C149.452 14.4958 154.417 14.6197 159.135 15.1151C161.369 15.3629 163.604 15.6106 165.714 15.6106C167.701 15.8584 169.935 15.4867 172.17 15.239C174.777 14.9913 177.384 14.7435 179.991 14.8674C182.722 14.9913 185.453 15.6106 188.06 16.1061C190.17 16.6016 192.157 16.9732 194.143 17.0971C195.26 17.0971 196.502 17.2209 197.743 17.3448C204.447 17.7164 213.509 18.088 214.378 26.635C214.875 31.3421 214.13 36.0491 213.261 40.5084C212.888 42.6142 212.516 44.5961 212.268 46.7019C212.268 47.569 212.019 48.56 211.771 49.4271C211.399 51.1612 211.026 52.7716 211.523 54.1341L212.019 55.6206C213.509 59.8321 214.13 61.5663 213.012 67.1404C212.143 71.8475 212.888 76.0591 215.247 79.7752C217.233 82.748 220.213 85.3493 223.068 87.8267C223.813 88.4461 224.558 89.0654 225.178 89.6848C228.034 92.1621 230.641 94.8873 233.248 97.4885L234.365 98.7272C236.6 100.957 238.462 103.558 240.324 106.036C240.944 106.903 241.689 107.894 242.434 108.761C245.414 112.725 248.765 117.679 249.883 124.492C250.503 128.332 250.628 132.544 250.628 137.003C250.628 138.489 250.628 139.976 250.628 141.586C250.628 145.302 250.628 149.142 250.379 153.354V158.432C250.131 160.786 250.379 163.263 250.379 165.865C250.503 168.838 250.752 171.934 250.628 175.279C250.628 178.004 250.007 180.729 249.634 183.454C249.138 186.303 248.641 189.152 248.641 192.001C248.641 194.726 248.641 197.575 248.641 200.548C248.641 203.273 248.765 205.998 248.641 208.847C248.641 212.44 248.641 216.032 248.641 219.872V225.694C248.641 231.763 248.641 237.461 247.648 242.54C246.655 247.99 244.669 253.441 241.938 258.643C239.082 264.093 234.862 268.057 230.765 271.526C226.916 274.87 222.323 278.586 216.613 280.94C212.392 282.674 207.674 283.541 203.081 284.408L200.226 284.904C196.129 285.771 192.032 286.018 187.563 286.39L183.715 286.638C181.604 286.762 179.37 287.133 177.26 287.381C174.032 287.876 170.68 288.372 167.328 288.372H166.335L166.832 288ZM151.314 283.169C154.045 283.169 156.776 283.417 159.383 283.665C162.238 283.913 164.969 284.284 167.701 284.16C170.928 284.16 174.156 283.665 177.26 283.169C179.494 282.798 181.729 282.55 183.963 282.302L187.812 282.055C192.032 281.683 196.129 281.435 199.978 280.692L202.833 280.196C207.426 279.329 211.771 278.462 215.619 276.976C220.709 274.87 225.054 271.278 228.779 268.181C232.627 264.961 236.475 261.244 239.082 256.29C241.689 251.459 243.427 246.38 244.42 241.301C245.289 236.594 245.289 231.144 245.289 225.322V219.376C245.289 215.66 245.289 211.944 245.289 208.352C245.289 205.627 245.289 202.902 245.289 200.3C245.289 197.328 245.165 194.355 245.289 191.506C245.289 188.409 245.91 185.312 246.407 182.463C246.903 179.738 247.276 177.261 247.4 174.783C247.524 171.687 247.4 168.714 247.152 165.741C247.027 163.016 246.903 160.538 246.903 157.937V152.858C247.276 148.771 247.4 144.931 247.276 141.338C247.276 139.728 247.276 138.242 247.276 136.755C247.276 132.42 247.276 128.332 246.655 124.864C245.662 118.794 242.682 114.335 239.827 110.743C239.082 109.752 238.462 108.885 237.717 107.894C235.855 105.416 234.117 103.063 232.13 100.957L231.013 99.7182C228.53 97.1169 225.923 94.5157 223.192 92.0383C222.447 91.4189 221.827 90.7996 221.082 90.1802C217.978 87.579 214.75 84.8538 212.516 81.3855C209.536 76.9262 208.667 71.5998 209.661 66.0256C210.53 61.4424 210.157 60.3276 208.792 56.4876L208.295 54.8773C207.55 52.5238 207.923 50.1703 208.295 48.1884C208.419 47.4452 208.667 46.5781 208.667 45.8348C208.916 43.7291 209.288 41.6233 209.661 39.3936C210.405 34.9343 211.15 30.8466 210.654 26.635C210.157 21.6802 204.819 21.0609 197.495 20.6893C196.129 20.6893 194.888 20.5654 193.646 20.4415C191.412 20.1938 189.301 19.8222 187.191 19.3267C184.584 18.8312 182.225 18.3358 179.742 18.2119C177.384 18.2119 174.901 18.2119 172.418 18.5835C170.183 18.8312 167.949 18.9551 165.59 18.9551C163.231 18.9551 160.873 18.7074 158.638 18.4596C153.672 17.9641 149.079 17.9641 144.362 17.8403C141.507 17.8403 138.651 17.5925 135.796 17.7164C132.941 17.7164 129.961 18.088 127.106 18.4596C124.871 18.7074 122.513 18.9551 120.278 19.079C116.057 19.3267 111.712 19.9461 107.616 20.4415L104.885 20.8131C104.016 20.8131 103.147 21.0609 102.278 21.0609C96.4429 21.6802 92.8428 22.1757 92.0979 26.8828C91.6014 29.7318 92.5945 32.8285 93.4635 36.173C93.8359 37.4117 94.2084 38.7743 94.4566 40.013V40.7562C95.6981 45.5871 96.9395 50.5419 95.3256 55.2489C94.8291 56.7354 93.5877 57.6025 92.5945 58.3457C91.9738 58.8412 91.3531 59.2128 91.2289 59.5844C90.8565 60.8231 91.6014 62.5573 92.4704 64.2914C93.2152 65.7779 93.9601 67.3882 94.2084 68.9985C94.7049 73.8294 92.3462 78.041 89.9875 81.6332C87.6288 85.2254 84.4011 88.0744 80.5527 91.2951C79.063 92.6576 77.325 94.0202 75.587 95.7544C72.3593 98.7272 69.3799 102.691 65.5315 107.77L63.1728 110.866C59.821 115.202 57.7105 119.909 56.8415 125.112C56.2208 128.704 56.2208 133.039 56.0967 137.498V141.586C55.9726 146.046 56.0967 151.248 56.0967 158.185V162.644C56.345 166.484 56.4691 170.572 56.5933 174.907C56.5933 177.137 56.8415 179.49 56.9657 181.968C57.0898 185.064 57.3381 188.285 57.4623 191.63C57.4623 194.479 57.4623 197.451 57.214 200.3C57.0898 203.026 56.8415 205.751 56.9657 208.6C56.9657 210.953 57.214 213.431 57.4623 215.908C57.7105 219.005 57.9588 222.225 57.9588 225.446C57.9588 230.772 58.083 236.47 59.0761 241.425C60.1934 247.495 61.8072 252.45 64.0418 256.537C66.6488 261.492 70.7455 264.961 74.4697 268.181C79.063 272.145 83.2838 274.87 87.6288 276.604C92.0979 278.462 97.3119 280.568 102.898 281.559C106.126 282.178 109.602 282.426 113.326 282.55C115.188 282.55 117.051 282.674 119.037 282.922C124.251 283.417 129.837 283.665 135.299 283.789C138.279 283.789 141.258 283.789 144.362 283.665C146.845 283.665 149.328 283.417 151.686 283.417L151.314 283.169Z" fill="#2D2B2A"/>
    </g>
    <g opacity="0.25">
        <path d="M95.4493 262.606C89.3663 260.253 82.2902 256.289 87.3801 248.981C89.3663 246.132 95.9459 244.026 104.636 242.168C110.222 241.053 116.678 239.567 123.381 238.823C129.092 238.328 129.092 238.328 134.802 237.956C140.513 237.585 146.099 237.461 151.189 237.461C156.279 237.461 163.355 237.585 170.804 238.204C177.259 238.7 183.963 239.691 190.294 240.558C197.618 241.673 204.322 243.654 209.288 245.265C215.247 247.247 222.199 253.069 212.391 260.005C209.039 262.359 203.701 263.597 197.743 264.836C193.025 265.827 187.687 266.323 182.349 266.818C177.011 267.314 171.797 267.561 166.831 267.809C160.996 267.933 155.534 268.676 151.313 268.676C144.361 268.676 137.658 268.057 131.326 267.809C124.25 267.561 117.671 266.942 111.464 265.951C103.27 264.588 103.27 264.712 95.3252 262.483L95.4493 262.606Z" fill="white"/>
        <path d="M241.565 109.379C238.958 106.034 236.103 102.814 233.248 99.8407C230.392 96.8679 227.537 93.5234 224.309 90.7983C220.833 87.7015 217.357 84.1093 214.75 80.1455C212.143 76.1816 209.536 71.7223 210.53 66.5198C211.15 63.2992 211.274 61.565 211.026 59.7069C211.026 59.7069 211.771 59.4592 211.771 59.3353C211.771 59.3353 211.771 59.5831 211.771 59.4592C210.405 60.8218 208.543 63.6708 202.709 66.272C199.108 67.8823 193.646 68.5017 186.198 69.7404C181.604 70.4836 176.142 71.8462 169.563 72.2178C164.597 72.4655 158.886 72.7133 152.679 72.7133C145.976 72.7133 140.017 72.7133 134.679 72.3417C127.603 71.97 121.768 71.2268 116.802 70.4836C108.857 69.3688 103.643 67.1391 99.7947 65.5288C93.96 63.1753 91.4772 60.4502 89.7392 58.4682C86.5115 57.9728 87.2563 60.2024 89.8633 64.7856C92.4703 69.3688 90.9806 68.9972 91.1047 76.6771C90.6082 78.0397 89.3667 79.1545 88.4977 80.3932C85.3942 85.2241 80.3044 88.3209 74.2214 94.0189C70.2488 97.6111 66.4004 102.814 61.4347 109.379C58.4553 113.219 56.5932 118.173 55.4759 124.615C54.6069 129.446 54.2345 135.02 54.1104 141.213C54.1104 146.292 54.3586 151.866 54.6069 157.936C54.7311 163.138 54.7311 168.712 54.9793 174.658C55.2276 179.985 54.4828 185.559 54.7311 191.381C54.9793 196.831 55.9725 202.405 56.0966 208.103C56.0966 213.553 55.4759 219.127 55.4759 224.949C55.4759 230.771 55.8483 236.469 56.7173 241.424C57.8346 247.37 59.8209 252.572 62.1796 257.032C64.9107 262.11 69.1316 265.702 73.1041 269.171C77.0767 272.639 81.4216 276.231 86.5115 278.337C91.353 280.319 96.6911 281.805 102.278 282.92C107.492 283.911 112.954 284.283 118.54 284.778C124.127 285.274 129.341 285.645 134.927 285.769C140.513 285.893 145.851 285.15 151.314 285.15C156.776 285.15 162.362 285.645 167.7 285.522C173.039 285.398 178.749 284.902 184.087 284.531C189.674 284.035 195.012 282.796 200.226 281.806C205.812 280.691 211.274 280.071 216.116 277.966C221.33 275.86 225.923 272.763 230.02 269.295C234.117 265.826 237.965 261.986 240.696 256.908C243.055 252.448 243.8 246.998 244.917 241.176C245.91 236.345 247.276 231.019 247.276 224.949C247.276 218.88 246.531 213.553 246.655 208.103C246.779 202.281 246.903 196.707 247.152 191.381C247.4 185.559 247.648 179.985 247.896 174.658C248.145 168.712 248.269 163.138 248.393 157.936C248.517 151.866 249.386 146.292 249.262 141.213C249.138 134.896 248.765 129.322 247.896 124.491C246.779 118.05 244.669 113.095 241.565 109.255V109.379ZM239.703 176.64C239.455 181.719 239.331 187.169 239.082 192.743C238.834 197.946 238.213 203.396 238.089 208.97C238.089 214.173 237.593 219.623 237.593 225.197C237.593 231.514 238.089 237.088 236.972 241.919C235.606 247.989 233.248 253.192 230.268 257.403C226.916 261.986 222.199 264.959 217.109 267.684C212.516 270.162 207.426 272.391 201.591 273.754C196.501 274.869 190.915 275.86 184.956 276.355C179.742 276.851 174.032 276.107 168.197 276.355C162.859 276.479 157.273 277.346 151.438 277.346C145.603 277.346 140.017 277.346 134.679 277.098C128.72 276.975 123.133 276.727 117.919 276.231C111.961 275.736 106.374 274.621 101.284 273.506C96.4429 272.391 92.3462 270.657 88.3736 268.675C80.8009 264.835 74.4697 259.013 70.1247 251.705C68.3867 248.732 66.897 245.512 66.028 241.672C64.9107 236.841 64.0417 231.267 64.0417 224.949C64.0417 219.375 64.6624 213.925 64.5383 208.722C64.4142 203.148 64.5383 197.698 64.4142 192.495C64.1659 186.921 63.0486 181.471 62.8003 176.392C62.552 170.942 62.4279 165.616 62.3037 160.661C62.1796 155.087 62.0555 149.76 62.0555 144.805C62.0555 138.86 62.0555 133.533 62.552 128.95C63.2969 122.385 65.159 117.183 67.6419 113.962C74.2214 105.539 80.4285 101.327 85.3942 96.9917C88.9943 93.7711 91.8496 90.4266 94.4566 86.7106C96.4429 83.8615 99.9188 82.499 103.271 83.4899C107.119 84.7286 111.34 85.5957 115.933 86.2151C121.52 86.9583 127.851 87.0822 134.306 87.3299C140.141 87.4538 146.348 86.4628 152.679 86.4628C158.638 86.4628 163.604 87.3299 167.825 87.0822C174.032 86.7106 178.873 86.2151 182.97 85.5957C188.805 84.7286 192.901 83.1183 197.619 82.0035C200.846 81.2603 202.709 80.7648 204.322 80.2693C207.674 88.197 214.875 93.5234 218.723 96.8679C225.551 102.937 230.392 108.759 234.737 114.334C237.22 117.554 238.834 122.509 239.703 129.074C240.324 133.657 241.069 138.984 241.069 144.805C241.069 149.636 240.2 154.963 239.951 160.537C239.827 165.616 239.951 170.818 239.827 176.392L239.703 176.64Z" fill="white"/>
        <path d="M93.2151 54.2581C94.2082 50.9136 95.0772 50.9136 91.9736 38.6505C94.0841 39.5176 98.9256 41.8711 107.119 43.3576C112.085 44.2247 117.795 44.5963 123.754 45.2156C129.092 45.7111 134.803 46.5782 140.513 46.7021C147.217 46.7021 153.548 46.7021 159.507 46.5782C166.459 46.3304 172.79 45.835 178.501 45.3395C185.825 44.7201 192.156 43.8531 197.246 42.6144C206.184 40.3847 211.398 37.0402 212.143 32.457C212.764 36.6686 212.143 35.9254 211.523 40.8802C210.529 47.1975 209.412 53.0194 210.281 55.0013C208.047 55.9923 200.846 57.6026 191.784 59.089C186.073 60.08 179.618 60.8232 173.039 61.5664C166.459 62.3097 160.128 63.3006 154.169 63.3006C148.582 63.3006 143.493 63.3006 138.527 63.3006C132.941 63.1767 127.851 62.4335 123.009 61.938C117.547 61.4426 112.457 60.8232 107.74 59.7084C103.022 58.5936 98.0566 56.6116 93.3392 54.5059L93.2151 54.2581Z" fill="white"/>
        <path d="M198.86 26.882C198.86 29.3594 196.501 30.2265 183.094 32.0845C178.997 32.7039 173.783 32.58 167.204 32.9516C162.611 33.1993 157.272 33.4471 151.19 33.4471C145.107 33.4471 139.768 33.1993 135.051 32.9516C128.471 32.58 123.133 32.4561 118.913 31.7129C105.629 29.6071 103.767 27.7491 103.643 26.1388C103.519 24.5284 102.774 23.2897 118.913 21.8033C123.009 21.4317 128.347 21.4317 135.051 21.184C139.768 21.0601 145.107 21.184 151.19 21.184C157.272 21.184 162.611 21.184 167.204 21.184C173.908 21.4317 179.122 21.9272 183.218 22.4227C199.357 24.2807 198.612 24.2807 198.736 26.882H198.86Z" fill="white"/>
    </g>
    <path d="M164.845 79.7739C163.107 79.7739 161.369 79.7739 159.631 79.7739C157.893 79.7739 156.279 79.7739 154.541 79.7739H152.803C147.713 79.7739 142.872 79.7739 138.154 79.5262C136.416 79.5262 134.678 79.4023 132.94 79.2784C129.092 79.1546 125.368 79.0307 121.892 78.5352C115.684 77.792 110.222 76.801 105.629 75.5623C98.3046 73.7043 92.8423 70.8553 90.2353 67.7585C89.6146 67.0153 89.7387 65.7766 90.4836 65.1573C91.2285 64.5379 92.4699 64.6618 93.0906 65.405C95.201 67.8824 100.043 70.3598 106.498 71.9701C110.967 73.0849 116.305 74.0759 122.264 74.8191C125.616 75.1907 129.216 75.3146 133.064 75.5623C134.802 75.5623 136.54 75.6862 138.403 75.8101C143.12 76.0578 147.837 76.0578 152.803 76.0578H154.541C156.279 76.0578 157.893 76.0578 159.631 76.0578C162.859 76.0578 166.21 76.1817 169.314 76.0578C174.776 75.6862 180.114 74.943 184.087 74.3236C190.294 73.3327 194.887 72.4656 198.487 71.2269C204.074 69.3688 208.046 66.8915 209.536 64.1663C210.033 63.2992 211.15 62.9276 212.019 63.4231C212.888 63.9186 213.26 65.0334 212.764 65.9005C210.777 69.6166 206.184 72.5895 199.605 74.6952C195.756 75.9339 191.163 76.9249 184.583 77.9159C180.487 78.5352 175.149 79.2784 169.562 79.65C167.948 79.65 166.335 79.7739 164.721 79.7739H164.845Z" fill="#516870"/>
    <path d="M164.597 34.6858C162.735 34.6858 160.625 34.6858 158.514 34.6858C156.156 34.6858 153.673 34.6858 151.19 34.6858H145.479C141.383 34.6858 137.783 34.6858 134.431 34.6858C131.327 34.6858 128.348 34.1903 125.368 33.8187C124.127 33.6948 122.761 33.571 121.52 33.4471C120.03 33.3232 118.665 33.1993 117.175 33.0755C112.209 32.7039 106.995 32.4561 101.161 29.2355C100.292 28.74 99.9192 27.6252 100.416 26.7581C100.912 25.891 102.03 25.5194 102.899 26.0149C108.113 28.8639 112.582 29.1116 117.423 29.4832C118.913 29.4832 120.403 29.6071 121.892 29.8549C123.134 29.9787 124.499 30.1026 125.741 30.3503C128.596 30.7219 131.575 31.0936 134.555 31.2174C137.783 31.3413 141.507 31.2174 145.479 31.2174H151.19C153.797 31.2174 156.28 31.2174 158.638 31.2174C161.866 31.2174 164.846 31.3413 167.577 31.2174C173.908 30.9697 179.619 30.7219 183.839 30.1026C186.446 29.731 188.308 29.6071 189.798 29.4832C193.15 29.2355 194.391 29.1116 198.861 26.5104C199.73 26.0149 200.847 26.2626 201.343 27.2536C201.84 28.1207 201.592 29.2355 200.599 29.731C195.509 32.58 193.647 32.8277 189.922 33.1993C188.557 33.1993 186.695 33.4471 184.212 33.8187C179.867 34.438 174.032 34.6858 167.577 34.9335C166.584 34.9335 165.59 34.9335 164.473 34.9335L164.597 34.6858Z" fill="#516870"/>
    <path d="M155.286 48.5603C151.562 48.5603 139.272 48.5603 132.816 48.1887C131.823 48.1887 130.954 47.3216 131.078 46.2068C131.078 45.2158 131.947 44.4726 132.94 44.4726C138.899 44.7204 150.569 44.8442 155.286 44.8442C160.003 44.8442 165.217 44.7204 170.431 44.3487H171.3C176.018 43.9771 180.983 43.6055 185.453 42.8623C190.294 42.1191 195.881 41.252 200.101 40.0133C201.094 39.6417 202.088 40.261 202.46 41.252C202.708 42.243 202.212 43.2339 201.219 43.6055C196.75 44.9681 191.039 45.8352 186.073 46.5784C181.48 47.1978 176.514 47.5694 171.673 47.941H170.804C165.59 48.4364 160.376 48.5603 155.41 48.5603H155.286Z" fill="#D7F5FF" fill-opacity="0.5"/>
    <path d="M123.257 47.1969C123.257 47.1969 123.257 47.1969 123.133 47.1969C113.698 46.3298 106.002 45.0911 101.284 43.7286C100.291 43.4808 99.6704 42.366 100.043 41.375C100.291 40.3841 101.284 39.7647 102.402 40.1363C106.871 41.375 114.443 42.6137 123.63 43.4808C124.623 43.4808 125.368 44.4718 125.368 45.4628C125.368 46.4537 124.499 47.1969 123.506 47.1969H123.257Z" fill="#D7F5FF" fill-opacity="0.5"/>
    <path d="M192.405 61.196C191.536 61.196 190.791 60.7005 190.543 59.8334C190.295 58.8425 190.915 57.8515 191.909 57.6038L193.771 57.1083C195.674 56.6128 197.785 56.076 200.102 55.498C201.095 55.2502 202.088 55.8696 202.337 56.8606C202.585 57.8515 201.964 58.8425 200.971 59.0902C198.654 59.6683 196.585 60.205 194.764 60.7005L192.902 61.196C192.902 61.196 192.529 61.196 192.405 61.196Z" fill="#D7F5FF" fill-opacity="0.5"/>
    <path d="M157.769 64.787H149.079C145.106 64.787 141.382 64.787 137.906 64.6632C136.913 64.6632 136.044 63.6722 136.168 62.6812C136.168 61.6903 137.037 60.9471 138.03 60.9471C141.382 61.0709 144.982 61.0709 148.955 61.0709H151.189H154.665C159.259 61.0709 163.604 61.0709 167.452 60.9471C173.659 60.5755 178.997 59.9561 183.342 59.2129C184.335 59.089 185.328 59.7084 185.453 60.8232C185.577 61.938 184.956 62.8051 183.839 62.929C179.37 63.5483 173.907 64.2916 167.576 64.6632C164.473 64.787 161.245 64.787 157.769 64.787Z" fill="#D7F5FF" fill-opacity="0.5"/>
    <path d="M115.436 63.0529C115.436 63.0529 115.188 63.0529 115.064 63.0529L111.215 62.4335C107.739 61.8142 107.615 61.8142 103.767 60.3278L103.146 60.08C102.153 59.7084 101.656 58.5936 102.029 57.7265C102.401 56.7355 103.394 56.2401 104.388 56.6117L105.008 56.8594C107.408 57.7678 109.684 58.3871 111.836 58.7174L115.685 59.3368C116.678 59.4607 117.423 60.4516 117.174 61.4426C117.05 62.3097 116.181 62.929 115.312 62.929L115.436 63.0529Z" fill="#D7F5FF" fill-opacity="0.5"/>
    <path d="M85.0213 98.4794C85.0213 98.4794 84.0281 98.3555 83.6557 97.9839C83.035 97.2407 82.9109 96.1259 83.6557 95.5065L84.0281 95.2588C88.1248 91.6665 91.6008 88.6937 94.332 84.4821C94.9527 83.615 96.0699 83.3673 96.9389 83.9866C97.8079 84.606 98.0562 85.7208 97.4355 86.5879C94.4561 91.1711 90.7318 94.3917 86.511 98.1078C86.1386 98.4794 85.5179 98.6033 85.0213 98.6033V98.4794Z" fill="#D7F5FF" fill-opacity="0.5"/>
    <path d="M63.4209 178.499C62.4278 178.499 61.5588 177.756 61.5588 176.765C61.5588 174.164 61.3105 171.686 61.0622 169.209C60.814 166.36 60.6898 163.635 60.5657 161.033C60.3174 155.335 60.3174 150.133 60.3174 145.178C60.3174 139.852 60.6898 134.525 61.3105 129.199C62.3037 121.147 63.6692 116.564 66.1521 113.343C69.0073 109.627 71.8626 106.654 74.5937 103.805C75.3386 103.062 76.4559 103.062 77.2007 103.805C77.9456 104.549 77.9456 105.664 77.2007 106.407C74.4696 109.132 71.8626 111.981 69.0073 115.573C66.5245 118.794 65.5314 124.492 64.9106 129.57C64.2899 134.773 63.9175 139.975 63.9175 145.054C63.9175 149.885 63.9175 155.211 64.1658 160.786C64.1658 163.387 64.4141 166.112 64.6624 168.837C64.7865 171.315 65.0348 173.916 65.1589 176.517C65.1589 177.508 64.4141 178.375 63.4209 178.499Z" fill="#D7F5FF" fill-opacity="0.5"/>
    <path d="M64.5386 211.573C63.5455 211.573 62.6765 210.706 62.6765 209.715C62.6765 204.017 62.3041 198.566 61.9316 193.488V192.621C61.9316 191.63 62.5524 190.763 63.6696 190.639C64.6628 190.639 65.5318 191.382 65.5318 192.373V193.24C65.9042 198.442 66.1525 203.893 66.2766 209.715C66.2766 210.706 65.5318 211.573 64.4145 211.573H64.5386Z" fill="#D7F5FF" fill-opacity="0.5"/>
    <path d="M71.3656 256.537C70.7449 256.537 70.1242 256.165 69.7518 255.67C67.1448 251.334 65.1585 246.38 64.0412 240.805C63.1722 236.47 62.7998 231.515 62.7998 225.198C62.7998 224.207 63.6688 223.34 64.6619 223.34C65.6551 223.34 66.5241 224.207 66.5241 225.198C66.5241 231.268 66.8965 235.975 67.7655 240.062C68.7586 245.141 70.4966 249.724 72.9795 253.688C73.476 254.555 73.2278 255.67 72.3588 256.289C72.1105 256.413 71.738 256.537 71.3656 256.537Z" fill="#D7F5FF" fill-opacity="0.5"/>
    <path d="M95.5741 264.218C95.5741 264.218 95.0775 264.218 94.9534 264.218C90.6084 262.607 85.3944 260.13 84.153 255.794C83.4081 253.317 83.9047 250.716 85.891 247.991C88.0014 244.894 94.3326 242.169 104.388 240.063C109.602 238.948 116.058 238.081 123.506 237.338C124.623 237.338 125.492 237.957 125.492 238.948C125.492 239.939 124.872 240.93 123.878 240.93C116.554 241.673 110.347 242.54 105.133 243.655C92.7188 246.257 89.7394 248.982 88.9945 249.973C87.7531 251.707 87.3807 253.317 87.7531 254.556C88.7462 257.653 94.4568 259.882 96.3189 260.502C97.3121 260.873 97.8086 261.988 97.4362 262.855C97.1879 263.598 96.4431 264.094 95.6982 264.094L95.5741 264.218Z" fill="#D7F5FF" fill-opacity="0.5"/>
    <path d="M137.285 270.411C135.299 270.411 133.313 270.411 131.326 270.411C123.878 270.039 116.926 269.048 111.34 268.181C110.346 268.057 109.602 267.066 109.85 266.075C109.974 265.084 110.843 264.341 111.96 264.589C117.423 265.456 124.25 266.571 131.575 266.818C135.547 266.942 139.768 266.818 144.113 266.818C146.472 266.818 148.955 266.818 151.438 266.818H155.41C158.886 266.818 162.734 266.818 166.831 266.818H171.052C174.776 266.695 178.625 266.571 182.349 266.199C187.687 265.704 193.025 264.713 197.618 263.846C202.336 262.855 208.171 261.492 211.522 259.139C213.633 257.652 215.992 255.422 215.619 252.945C215.247 250.344 212.019 247.99 209.04 246.999C203.95 245.389 196.998 244.15 190.17 243.159C183.218 242.044 175.769 241.425 170.804 240.93C163.728 240.31 157.024 240.31 151.438 240.31C149.7 240.31 147.962 240.31 146.224 240.31C142.623 240.31 138.899 240.186 135.175 240.31C134.182 240.558 133.313 239.567 133.189 238.576C133.189 237.585 133.933 236.718 134.927 236.594C138.775 236.346 142.623 236.47 146.348 236.594C148.086 236.594 149.824 236.594 151.562 236.594C157.272 236.594 163.976 236.594 171.3 237.337C176.39 237.709 183.839 238.452 190.915 239.567C197.867 240.682 205.067 241.797 210.405 243.531C214.502 244.893 218.847 248.114 219.467 252.45C219.84 254.927 219.095 258.519 213.757 262.235C210.653 264.341 206.06 265.951 198.363 267.562C193.77 268.553 188.308 269.544 182.721 270.039C178.873 270.411 175.025 270.535 171.176 270.535H166.955C162.734 270.782 158.762 270.782 155.286 270.658H151.313C148.831 270.658 146.472 270.658 143.989 270.658C141.63 270.658 139.396 270.658 137.161 270.658L137.285 270.411Z" fill="#D7F5FF" fill-opacity="0.5"/>
    <path d="M228.406 260.502C228.406 260.502 227.537 260.378 227.164 260.13C226.419 259.511 226.295 258.272 226.916 257.529C230.64 253.07 233.123 248.115 234.489 242.541C235.73 237.834 236.227 232.136 236.227 225.323C236.227 219.749 236.227 214.422 236.475 209.096C236.475 206.866 236.475 204.76 236.475 202.655C236.475 199.31 236.475 196.09 236.723 192.869C236.723 191.878 237.592 191.135 238.585 191.135C239.578 191.135 240.447 192.002 240.323 193.117C240.323 196.213 240.199 199.434 240.199 202.779C240.199 204.884 240.199 207.114 240.199 209.22C240.199 214.422 239.951 219.749 239.951 225.323C239.951 232.507 239.33 238.453 238.089 243.532C236.599 249.725 233.868 255.052 229.771 260.006C229.399 260.502 228.902 260.75 228.282 260.75L228.406 260.502Z" fill="#D7F5FF" fill-opacity="0.5"/>
    <path d="M239.579 178.5C238.586 178.5 237.717 177.633 237.841 176.518V174.164C238.089 169.581 238.337 164.998 238.461 160.786C238.586 156.575 238.461 152.487 238.461 148.647V145.055C238.461 139.233 238.337 134.03 237.717 129.571C236.848 122.758 235.482 118.299 233.496 115.574C229.647 110.619 224.806 105.664 217.109 98.8514C216.364 98.2321 216.24 96.9934 216.985 96.2502C217.73 95.5069 218.847 95.3831 219.592 96.1263C227.413 102.939 232.503 108.142 236.475 113.344C238.958 116.565 240.572 121.643 241.441 129.2C242.062 133.907 242.062 139.233 242.186 145.179V148.647C242.186 152.487 242.186 156.699 242.186 160.91C242.062 165.246 241.813 169.705 241.689 174.288V176.642C241.565 177.633 240.696 178.376 239.703 178.376L239.579 178.5Z" fill="#D7F5FF" fill-opacity="0.5"/>
    <path d="M157.52 89.1893C156.527 89.1893 155.658 88.3222 155.658 87.3312C155.658 86.3403 156.527 85.4732 157.52 85.4732C163.231 85.4732 168.197 85.1016 173.286 84.73C179.121 84.2345 184.335 83.4913 188.68 82.6242C191.784 82.0048 193.77 81.6332 195.26 81.3855C197.494 81.0552 200.018 79.8578 202.832 77.7933C203.701 77.1739 204.819 77.4217 205.439 78.2887C206.06 79.1558 205.812 80.2707 204.943 80.89C200.101 84.2345 199.729 84.4822 195.756 85.1016C194.391 85.3493 192.404 85.5971 189.425 86.2164C184.956 87.2074 179.618 87.9506 173.535 88.4461C168.445 88.8177 163.355 89.1893 157.52 89.1893Z" fill="#D7F5FF" fill-opacity="0.5"/>
    <path d="M166.832 288C164.225 288 161.493 287.753 158.886 287.505C153.921 287.009 148.955 287.009 143.989 287.133C140.886 287.257 137.782 287.381 134.803 287.257C129.216 287.133 123.63 286.762 118.292 286.39C116.43 286.266 114.568 286.142 112.706 286.018C109.105 285.894 105.257 285.647 101.781 285.027C95.9464 283.913 90.4841 281.683 85.7667 279.825C81.0493 277.843 76.5802 274.994 71.6145 270.782C67.6419 267.438 63.1728 263.598 60.3175 258.024C57.9588 253.688 56.2208 248.362 54.9794 241.921C53.9863 236.594 53.8621 230.772 53.8621 225.198C53.8621 222.102 53.6138 219.005 53.3656 216.032C53.1173 213.431 52.9931 210.953 52.869 208.476C52.869 205.503 52.9931 202.654 53.1173 199.929C53.3656 197.08 53.4897 194.355 53.3656 191.63C53.3656 188.409 53.1173 185.188 52.869 182.092C52.7449 179.738 52.6207 177.385 52.4966 175.031C52.3724 170.819 52.2483 166.608 52.1241 162.768V158.309C52 151.124 52 145.922 52 141.338V137.251C52 132.668 52.1241 128.208 52.869 124.368C53.8621 118.546 56.2208 113.344 59.9451 108.513L62.3038 105.416C66.2764 100.214 69.3799 96.126 72.8559 92.9054C74.718 91.2951 76.3319 89.8086 77.9457 88.4461C81.67 85.2254 84.6494 82.748 86.6357 79.5274C88.7461 76.3068 90.7324 72.9623 90.36 69.3701C90.36 68.3791 89.6151 67.1404 88.9944 65.9018C87.8771 63.6721 86.6357 61.1947 87.5047 58.4696C88.0012 56.9831 89.2427 55.9922 90.2358 55.3728C90.8565 55.0012 91.4772 54.5057 91.6014 54.1341C92.8428 50.418 91.8497 46.0826 90.8565 41.7471V41.0039C90.36 39.7652 90.1117 38.5265 89.7392 37.4117C88.7461 33.8195 87.6288 30.1034 88.2495 26.5112C89.491 18.8312 96.3188 18.2119 101.781 17.5925C102.65 17.5925 103.519 17.4687 104.264 17.3448L106.995 16.9732C111.216 16.4777 115.561 15.8584 120.03 15.6106C122.265 15.4867 124.499 15.239 126.734 14.9913C129.713 14.6197 132.692 14.248 135.796 14.248C138.651 14.248 141.631 14.248 144.486 14.3719C149.452 14.4958 154.417 14.6197 159.135 15.1151C161.369 15.3629 163.604 15.6106 165.714 15.6106C167.701 15.8584 169.935 15.4867 172.17 15.239C174.777 14.9913 177.384 14.7435 179.991 14.8674C182.722 14.9913 185.453 15.6106 188.06 16.1061C190.17 16.6016 192.157 16.9732 194.143 17.0971C195.26 17.0971 196.502 17.2209 197.743 17.3448C204.447 17.7164 213.509 18.088 214.378 26.635C214.875 31.3421 214.13 36.0491 213.261 40.5084C212.888 42.6142 212.516 44.5961 212.268 46.7019C212.268 47.569 212.019 48.56 211.771 49.4271C211.399 51.1612 211.026 52.7716 211.523 54.1341L212.019 55.6206C213.509 59.8321 214.13 61.5663 213.012 67.1404C212.143 71.8475 212.888 76.0591 215.247 79.7752C217.233 82.748 220.213 85.3493 223.068 87.8267C223.813 88.4461 224.558 89.0654 225.178 89.6848C228.034 92.1621 230.641 94.8873 233.248 97.4885L234.365 98.7272C236.6 100.957 238.462 103.558 240.324 106.036C240.944 106.903 241.689 107.894 242.434 108.761C245.414 112.725 248.765 117.679 249.883 124.492C250.503 128.332 250.628 132.544 250.628 137.003C250.628 138.489 250.628 139.976 250.628 141.586C250.628 145.302 250.628 149.142 250.379 153.354V158.432C250.131 160.786 250.379 163.263 250.379 165.865C250.503 168.838 250.752 171.934 250.628 175.279C250.628 178.004 250.007 180.729 249.634 183.454C249.138 186.303 248.641 189.152 248.641 192.001C248.641 194.726 248.641 197.575 248.641 200.548C248.641 203.273 248.765 205.998 248.641 208.847C248.641 212.44 248.641 216.032 248.641 219.872V225.694C248.641 231.763 248.641 237.461 247.648 242.54C246.655 247.99 244.669 253.441 241.938 258.643C239.082 264.093 234.862 268.057 230.765 271.526C226.916 274.87 222.323 278.586 216.613 280.94C212.392 282.674 207.674 283.541 203.081 284.408L200.226 284.904C196.129 285.771 192.032 286.018 187.563 286.39L183.715 286.638C181.604 286.762 179.37 287.133 177.26 287.381C174.032 287.876 170.68 288.372 167.328 288.372H166.335L166.832 288ZM151.314 283.169C154.045 283.169 156.776 283.417 159.383 283.665C162.238 283.913 164.969 284.284 167.701 284.16C170.928 284.16 174.156 283.665 177.26 283.169C179.494 282.798 181.729 282.55 183.963 282.302L187.812 282.055C192.032 281.683 196.129 281.435 199.978 280.692L202.833 280.196C207.426 279.329 211.771 278.462 215.619 276.976C220.709 274.87 225.054 271.278 228.779 268.181C232.627 264.961 236.475 261.244 239.082 256.29C241.689 251.459 243.427 246.38 244.42 241.301C245.289 236.594 245.289 231.144 245.289 225.322V219.376C245.289 215.66 245.289 211.944 245.289 208.352C245.289 205.627 245.289 202.902 245.289 200.3C245.289 197.328 245.165 194.355 245.289 191.506C245.289 188.409 245.91 185.312 246.407 182.463C246.903 179.738 247.276 177.261 247.4 174.783C247.524 171.687 247.4 168.714 247.152 165.741C247.027 163.016 246.903 160.538 246.903 157.937V152.858C247.276 148.771 247.4 144.931 247.276 141.338C247.276 139.728 247.276 138.242 247.276 136.755C247.276 132.42 247.276 128.332 246.655 124.864C245.662 118.794 242.682 114.335 239.827 110.743C239.082 109.752 238.462 108.885 237.717 107.894C235.855 105.416 234.117 103.063 232.13 100.957L231.013 99.7182C228.53 97.1169 225.923 94.5157 223.192 92.0383C222.447 91.4189 221.827 90.7996 221.082 90.1802C217.978 87.579 214.75 84.8538 212.516 81.3855C209.536 76.9262 208.667 71.5998 209.661 66.0256C210.53 61.4424 210.157 60.3276 208.792 56.4876L208.295 54.8773C207.55 52.5238 207.923 50.1703 208.295 48.1884C208.419 47.4452 208.667 46.5781 208.667 45.8348C208.916 43.7291 209.288 41.6233 209.661 39.3936C210.405 34.9343 211.15 30.8466 210.654 26.635C210.157 21.6802 204.819 21.0609 197.495 20.6893C196.129 20.6893 194.888 20.5654 193.646 20.4415C191.412 20.1938 189.301 19.8222 187.191 19.3267C184.584 18.8312 182.225 18.3358 179.742 18.2119C177.384 18.2119 174.901 18.2119 172.418 18.5835C170.183 18.8312 167.949 18.9551 165.59 18.9551C163.231 18.9551 160.873 18.7074 158.638 18.4596C153.672 17.9641 149.079 17.9641 144.362 17.8403C141.507 17.8403 138.651 17.5925 135.796 17.7164C132.941 17.7164 129.961 18.088 127.106 18.4596C124.871 18.7074 122.513 18.9551 120.278 19.079C116.057 19.3267 111.712 19.9461 107.616 20.4415L104.885 20.8131C104.016 20.8131 103.147 21.0609 102.278 21.0609C96.4429 21.6802 92.8428 22.1757 92.0979 26.8828C91.6014 29.7318 92.5945 32.8285 93.4635 36.173C93.8359 37.4117 94.2084 38.7743 94.4566 40.013V40.7562C95.6981 45.5871 96.9395 50.5419 95.3256 55.2489C94.8291 56.7354 93.5877 57.6025 92.5945 58.3457C91.9738 58.8412 91.3531 59.2128 91.2289 59.5844C90.8565 60.8231 91.6014 62.5573 92.4704 64.2914C93.2152 65.7779 93.9601 67.3882 94.2084 68.9985C94.7049 73.8294 92.3462 78.041 89.9875 81.6332C87.6288 85.2254 84.4011 88.0744 80.5527 91.2951C79.063 92.6576 77.325 94.0202 75.587 95.7544C72.3593 98.7272 69.3799 102.691 65.5315 107.77L63.1728 110.866C59.821 115.202 57.7105 119.909 56.8415 125.112C56.2208 128.704 56.2208 133.039 56.0967 137.498V141.586C55.9726 146.046 56.0967 151.248 56.0967 158.185V162.644C56.345 166.484 56.4691 170.572 56.5933 174.907C56.5933 177.137 56.8415 179.49 56.9657 181.968C57.0898 185.064 57.3381 188.285 57.4623 191.63C57.4623 194.479 57.4623 197.451 57.214 200.3C57.0898 203.026 56.8415 205.751 56.9657 208.6C56.9657 210.953 57.214 213.431 57.4623 215.908C57.7105 219.005 57.9588 222.225 57.9588 225.446C57.9588 230.772 58.083 236.47 59.0761 241.425C60.1934 247.495 61.8072 252.45 64.0418 256.537C66.6488 261.492 70.7455 264.961 74.4697 268.181C79.063 272.145 83.2838 274.87 87.6288 276.604C92.0979 278.462 97.3119 280.568 102.898 281.559C106.126 282.178 109.602 282.426 113.326 282.55C115.188 282.55 117.051 282.674 119.037 282.922C124.251 283.417 129.837 283.665 135.299 283.789C138.279 283.789 141.258 283.789 144.362 283.665C146.845 283.665 149.328 283.417 151.686 283.417L151.314 283.169Z" fill="#2D2B2A"/>
</svg>
