<svg width="24" height="24" viewBox="0 0 24 24" fill="none" xmlns="http://www.w3.org/2000/svg">
    <path d="M9.00172 3.0601C11.6717 2.9701 13.2417 4.9401 13.2317 7.2901C13.2217 9.6401 11.9117 11.5201 8.93172 11.5201C5.95172 11.5201 4.76172 9.4901 4.76172 7.2901C4.76172 4.7801 6.52172 3.1401 8.99172 3.0601H9.00172Z" stroke="white" stroke-width="2" stroke-linecap="round" stroke-linejoin="round"/>
    <path d="M1 20.94C1.5 17.46 4.93 14.79 9 14.79C13.07 14.79 16.48 17.39 17 20.94" stroke="white" stroke-width="2" stroke-linecap="round" stroke-linejoin="round"/>
    <path opacity="0.75" d="M20.1016 2C20.1016 2 23.0016 3.8 23.0016 8.29C23.0016 12.78 20.1016 14.58 20.1016 14.58" stroke="white" stroke-width="2" stroke-linecap="round" stroke-linejoin="round"/>
    <path opacity="0.5" d="M17 4.82001C17 4.82001 19 5.40001 19 8.29001C19 11.18 17 11.76 17 11.76" stroke="white" stroke-width="2" stroke-linecap="round" stroke-linejoin="round"/>
</svg>
