<svg xmlns="http://www.w3.org/2000/svg" width="24" height="24" viewBox="0 0 24 24" fill="none">
    <path d="M8.43713 3.09337C10.3134 1.80574 14.0259 1.26097 16.5709 3.70747C18.7565 5.80731 18.3972 8.94716 18.3972 8.94716C21.491 8.94716 22 10.9182 22 12.6714C22 14.4246 20.1936 15.4547 17.489 15.7815C14.1956 16.1678 9.09581 15.9598 6.8004 15.7815C4.32535 15.5933 2 14.4741 2 11.6611C2 8.84811 3.74651 7.84771 6.07186 6.90675C6.38124 5.56959 7.12974 3.99472 8.44711 3.09337H8.43713Z" stroke="white" stroke-width="2" stroke-linecap="round" stroke-linejoin="round"/>
    <path d="M6.23048 19.0235C6.36025 19.9679 7.02903 21.2603 7.17876 22.0059" stroke="white" stroke-width="2" stroke-linecap="round" stroke-linejoin="round"/>
    <path d="M11.5309 19.0235C11.9102 19.8983 12.3294 21.2603 12.4791 22.0059" stroke="white" stroke-width="2" stroke-linecap="round" stroke-linejoin="round"/>
    <path d="M16.8212 19.0235C17.1606 20.0474 17.3004 21.0117 17.7695 22.0059" stroke="white" stroke-width="2" stroke-linecap="round" stroke-linejoin="round"/>
</svg>