<svg width="24" height="24" viewBox="0 0 24 24" fill="none" xmlns="http://www.w3.org/2000/svg">
    <g clip-path="url(#clip0_31483_59332)">
        <path d="M2 7.2C4.33 7.46 5.52 5.61 6.35 4.39C6.69 3.89 7.35 3.87 7.65 4.39C8.36 5.62 9.72 7.31 12 7.2C14.28 7.09 15.64 5.63 16.35 4.39C16.65 3.87 17.35 3.87 17.65 4.39C18.36 5.62 19.7 7.04 22 7.2" stroke="white" stroke-width="2" stroke-linecap="round" stroke-linejoin="round"/>
        <path d="M2 13.56C4.33 13.82 5.52 11.97 6.35 10.75C6.69 10.25 7.35 10.23 7.65 10.75C8.36 11.98 9.72 13.67 12 13.56C14.28 13.45 15.64 11.99 16.35 10.75C16.65 10.23 17.35 10.23 17.65 10.75C18.36 11.98 19.7 13.4 22 13.56" stroke="white" stroke-width="2" stroke-linecap="round" stroke-linejoin="round"/>
        <path d="M2 19.98C4.33 20.24 5.52 18.39 6.35 17.17C6.69 16.67 7.35 16.65 7.65 17.17C8.36 18.4 9.72 20.09 12 19.98C14.28 19.87 15.64 18.41 16.35 17.17C16.65 16.65 17.35 16.65 17.65 17.17C18.36 18.4 19.7 19.82 22 19.98" stroke="white" stroke-width="2" stroke-linecap="round" stroke-linejoin="round"/>
    </g>
    <defs>
        <clipPath id="clip0_31483_59332">
            <rect width="22" height="18" fill="white" transform="translate(1 3)"/>
        </clipPath>
    </defs>
</svg>
