<svg width="24" height="24" viewBox="0 0 24 24" fill="none" xmlns="http://www.w3.org/2000/svg">
    <path d="M7.91432 18.8805C7.91432 20.2254 6.61664 21.5386 4.42744 21.8986C1.62407 22.354 1.55473 19.5265 2.6741 18.351C3.65478 17.3237 5.06142 16.8154 6.23031 16.8366C7.07232 16.8472 7.91432 17.2602 7.91432 18.8911V18.8805Z" stroke="white" stroke-width="2" stroke-linecap="round" stroke-linejoin="round"/>
    <path d="M19.8014 16.826C19.8014 18.2239 18.5037 19.5794 16.3046 19.9501C13.5012 20.4266 13.422 17.4932 14.5414 16.2753C15.522 15.2058 16.9386 14.6868 18.1075 14.708C18.9495 14.7186 19.8014 15.1422 19.8014 16.826Z" stroke="white" stroke-width="2" stroke-linecap="round" stroke-linejoin="round"/>
    <path d="M7.93412 18.944C8.12234 13.7867 7.34968 7.97277 7.94403 5.42057C8.12234 4.65809 19.8014 2.50832 19.8212 3.18608C19.9104 6.6596 20.1877 11.298 19.8212 16.6566" stroke="white" stroke-width="2" stroke-linecap="round" stroke-linejoin="round"/>
    <path d="M7.92422 8.61876C11.213 8.31165 16.6612 6.70196 19.8014 6.38426" stroke="white" stroke-width="2" stroke-linecap="round" stroke-linejoin="round"/>
</svg>
