<svg width="279" height="232" viewBox="0 0 279 232" fill="none" xmlns="http://www.w3.org/2000/svg">
    <path d="M149.899 0.54625C92.5573 -1.76301 83.986 37.0985 83.9195 37.1645C83.8531 37.1645 17.9402 38.616 3.0567 90.6733C-11.8268 142.731 31.4285 164.636 31.4285 164.636C31.4285 164.636 20.0665 199.143 50.5644 214.648C81.0624 230.153 105.182 211.151 105.182 211.151C105.182 211.151 130.032 240.115 166.178 229.889C202.323 219.662 205.048 196.239 205.181 195.052C206.177 195.514 227.572 205.147 239.865 192.94C254.084 178.887 244.848 161.271 244.848 161.271C244.848 161.271 280.329 154.409 278.867 114.888C277.406 75.3662 234.217 76.4879 234.217 76.4879C234.217 76.4879 240.595 57.1561 226.443 47.2593C212.29 37.3624 199.931 44.1582 199.533 44.3562C199.599 43.4325 202.456 2.78953 149.899 0.744186V0.54625Z" fill="white" fill-opacity="0.75"/>
</svg>
