<svg width="223" height="176" viewBox="0 0 223 176" fill="none" xmlns="http://www.w3.org/2000/svg">
    <path d="M99.0652 58.5883C99.0652 58.5883 57.3381 45.3266 32.8866 47.108C3.11947 49.2193 -8.04318 85.8376 12.1559 93.6231C29.8301 100.419 45.7768 92.0396 66.5074 96.3282C87.2381 100.617 99.0652 58.6543 99.0652 58.6543V58.5883Z" fill="white"/>
    <path d="M69.4972 97.9128C68.4341 97.9128 67.371 97.7808 66.2414 97.5829C56.8728 95.6695 48.5008 96.3293 40.3946 97.055C30.6937 97.8468 21.4579 98.6385 11.6241 94.8777C3.51793 91.7767 -0.60162 83.7933 0.860156 74.0284C2.78704 61.0306 14.4148 47.1751 32.7535 45.8555C57.2714 44.0741 97.7361 56.8739 99.4636 57.4018C100.128 57.5997 100.527 58.3255 100.327 58.9853C99.8623 60.6347 89.0983 97.9128 69.4972 97.9128ZM53.2848 93.6901C57.6037 93.6901 62.0554 94.02 66.773 95.0097C84.115 98.6385 95.2776 66.2429 97.4038 59.5131C90.2943 57.3358 54.5472 46.9771 32.9528 48.4946C16.0095 49.6823 5.31193 62.4821 3.51793 74.4243C2.25549 83.0016 5.64415 89.7314 12.6208 92.4365C21.923 95.9994 30.7601 95.2736 40.1952 94.4819C44.4477 94.152 48.7666 93.7561 53.2848 93.7561V93.6901Z" fill="black"/>
    <path d="M145.177 125.096C154.214 136.973 167.503 156.37 190.559 159.867C222.519 164.75 230.226 125.36 210.226 105.171C190.227 84.9813 152.752 90.4576 142.387 66.6392C136.207 52.4538 151.955 44.9982 157.137 35.2333C163.782 22.7633 159.463 5.60881 141.922 1.914C122.985 -2.11071 112.154 13.5263 112.752 32.4622C113.218 46.7136 96.54 55.9506 88.8325 59.5795C81.1249 63.2083 46.7732 69.8722 49.8296 111.109C53.0854 155.183 98.7327 156.898 115.012 153.863C131.29 150.828 143.25 137.434 145.111 125.03L145.177 125.096Z" fill="white"/>
    <path d="M195.808 161.648C194.081 161.648 192.22 161.516 190.426 161.252C168.3 157.887 154.878 140.139 145.975 128.263C142.918 139.611 131.889 152.213 115.41 155.248C105.311 157.162 81.9225 157.426 65.6436 144.956C55.4776 137.17 49.7634 125.822 48.6338 111.24C45.8432 74.0944 72.9525 64.1975 84.5138 59.9089C86.1085 59.3151 87.4374 58.8532 88.3676 58.3914C99.1316 53.245 111.889 44.6018 111.49 32.5277C111.092 20.8494 114.879 10.8207 121.856 5.01452C127.37 0.461982 134.414 -1.05553 142.32 0.59394C150.227 2.24341 156.274 6.79595 159.33 13.3279C162.586 20.2556 162.254 28.6349 158.4 35.8266C156.739 38.9936 153.948 41.8967 151.29 44.7998C145.377 51.1337 139.729 57.1378 143.649 66.1109C149.098 78.5809 162.652 82.8036 177.004 87.2241C189.297 90.9849 201.987 94.9437 211.223 104.247C222.585 115.661 225.907 134.399 218.997 147.793C214.413 156.766 206.107 161.582 195.808 161.582V161.648ZM145.178 123.776C145.576 123.776 145.975 123.974 146.241 124.304L147.902 126.482C157.071 138.622 169.629 155.314 190.758 158.547C202.519 160.263 211.688 156.106 216.605 146.605C222.984 134.201 219.861 116.783 209.296 106.16C200.526 97.3189 188.101 93.4921 176.141 89.7973C161.191 85.1788 147.104 80.8242 141.191 67.2326C136.606 56.6759 143.317 49.4183 149.297 43.0843C151.955 40.2472 154.48 37.5421 156.008 34.705C159.463 28.305 159.795 20.7835 156.872 14.5814C154.945 10.4908 150.759 5.21246 141.722 3.29907C134.679 1.78156 128.367 3.10114 123.517 7.12584C117.271 12.2722 113.749 21.7731 114.148 32.5277C114.613 46.0533 100.992 55.4223 89.4971 60.8986C88.5005 61.3604 87.1051 61.8883 85.444 62.4821C73.484 66.8367 48.6338 76.0077 51.2916 111.108C52.3547 124.898 57.6703 135.587 67.2383 142.91C82.7862 154.786 105.244 154.523 114.945 152.675C131.623 149.574 142.32 136.048 143.982 124.964C144.048 124.436 144.447 124.04 144.978 123.908C145.111 123.908 145.178 123.908 145.31 123.908L145.178 123.776Z" fill="black"/>
    <path d="M96.8703 137.747L86.3727 165.406C85.5445 167.588 86.6546 170.024 88.8523 170.847C91.05 171.669 93.5029 170.567 94.3312 168.384L104.829 140.725C105.657 138.543 104.547 136.107 102.349 135.284C100.152 134.462 97.6986 135.564 96.8703 137.747Z" fill="#EE7733"/>
    <path d="M90.3608 172.469C89.6964 172.469 89.0319 172.337 88.3675 172.139C85.5104 171.083 84.0486 167.85 85.1117 165.013L95.6099 137.368C96.1415 135.983 97.2046 134.861 98.5335 134.267C99.9288 133.673 101.391 133.607 102.786 134.135C104.181 134.663 105.311 135.719 105.909 137.038C106.507 138.424 106.573 139.875 106.042 141.261L95.5435 168.906C94.6797 171.149 92.5535 172.469 90.2944 172.469H90.3608ZM100.859 136.379C100.46 136.379 100.062 136.445 99.663 136.642C98.9322 136.972 98.4006 137.566 98.1348 138.292L87.6366 165.937C87.0386 167.455 87.836 169.104 89.3642 169.698C90.8924 170.292 92.5535 169.5 93.1515 167.982L103.65 140.337C103.915 139.611 103.915 138.82 103.583 138.094C103.251 137.368 102.653 136.84 101.922 136.576C101.59 136.445 101.258 136.379 100.859 136.379Z" fill="black"/>
    <path d="M118.334 25.072C119.929 29.6905 139.131 33.2533 143.649 31.8018C148.168 30.3503 141.124 18.0122 131.689 15.1092C122.254 12.2061 116.141 18.672 118.334 25.072Z" fill="#FFC91E"/>
    <path d="M140.659 33.4515C133.151 33.4515 118.666 30.1526 117.071 25.534C115.942 22.2351 116.673 18.7382 119.131 16.297C122.121 13.196 126.972 12.3383 132.088 13.9218C139.596 16.231 146.373 24.6103 146.373 29.6247C146.373 31.3402 145.51 32.6598 144.048 33.1216C143.25 33.3855 142.054 33.5175 140.659 33.5175V33.4515ZM127.237 15.7692C124.712 15.7692 122.52 16.5609 120.992 18.1444C119.264 19.9258 118.732 22.3671 119.53 24.6763C120.726 28.1072 138.599 32 143.184 30.5484C143.383 30.5484 143.649 30.4165 143.649 29.5587C143.649 26.3258 138.4 18.5403 131.224 16.363C129.829 15.9011 128.433 15.7032 127.171 15.7032L127.237 15.7692Z" fill="black"/>
    <path d="M89.0318 173.788C100.062 175.108 108.434 154.325 107.304 148.65C106.174 142.976 100.46 146.209 98.334 145.615C96.2078 145.022 95.8756 139.018 91.4903 139.018C87.1049 139.018 86.1747 142.91 84.2478 143.636C82.3209 144.362 79.0652 140.865 74.5469 145.22C70.0287 149.574 78.002 172.403 89.0318 173.722V173.788Z" fill="#EE7733"/>
    <path d="M90.0283 175.173C89.6297 175.173 89.231 175.173 88.8988 175.107C81.5235 174.25 76.0086 165.342 73.5501 158.019C72.7528 155.578 70.3608 147.528 73.683 144.295C77.3375 140.864 80.5268 141.656 82.3872 142.184C82.9188 142.316 83.6497 142.514 83.7826 142.448C84.1148 142.316 84.5799 141.788 85.1115 141.194C86.3075 139.809 88.035 137.697 91.4901 137.697C94.9452 137.697 96.4735 140.6 97.5366 142.514C97.8688 143.174 98.4003 144.229 98.7326 144.361C98.9983 144.427 99.9286 144.361 100.593 144.163C103.051 143.767 107.503 143.042 108.633 148.386C109.497 152.806 105.576 163.957 99.7957 170.159C96.7392 173.458 93.3506 175.173 90.0283 175.173ZM79.3972 144.361C78.2677 144.361 77.0052 144.757 75.477 146.209C74.281 147.33 74.0817 151.487 76.0086 157.161C78.3341 164.023 83.4503 171.808 89.1646 172.468C92.0217 172.798 94.9452 171.412 97.8023 168.377C103.184 162.571 106.639 152.279 105.975 148.914C105.443 146.34 104.048 146.34 100.992 146.802C99.8621 147 98.8654 147.132 98.0017 146.934C96.6063 146.538 95.9419 145.219 95.1446 143.767C94.0814 141.722 93.2177 140.336 91.4901 140.336C89.231 140.336 88.2343 141.59 87.1048 142.844C86.3739 143.701 85.7095 144.493 84.7792 144.823C83.7826 145.219 82.7195 144.955 81.6563 144.691C80.9255 144.493 80.1946 144.295 79.3972 144.295V144.361Z" fill="black"/>
    <path d="M62.2172 126.297L35.5792 137.771C33.5256 138.656 32.583 141.026 33.4738 143.065C34.3646 145.105 36.7515 146.041 38.8051 145.156L65.4431 133.682C67.4967 132.798 68.4393 130.427 67.5485 128.388C66.6577 126.349 64.2708 125.413 62.2172 126.297Z" fill="#EE7733"/>
    <path d="M37.1387 146.736C35.0789 146.736 33.0856 145.549 32.2218 143.503C31.6238 142.184 31.6238 140.732 32.1554 139.413C32.6869 138.093 33.6836 137.037 35.0125 136.51L61.7231 125.029C63.052 124.436 64.5138 124.436 65.8427 125.029C67.1716 125.557 68.2347 126.547 68.7662 127.866C69.9622 130.572 68.6998 133.673 65.9756 134.86L39.2649 146.34C38.6005 146.604 37.8696 146.802 37.1387 146.802V146.736ZM63.7829 127.273C63.3842 127.273 63.052 127.339 62.7198 127.471L36.0091 138.951C35.3447 139.215 34.8131 139.743 34.5474 140.402C34.2816 141.062 34.2816 141.788 34.5474 142.448C35.1454 143.833 36.74 144.427 38.1354 143.833L64.846 132.353C66.2413 131.759 66.8393 130.176 66.2413 128.79C65.9756 128.13 65.444 127.603 64.7796 127.339C64.4473 127.207 64.1151 127.141 63.7829 127.141V127.273Z" fill="black"/>
    <path d="M32.1556 147.925C41.3249 152.016 45.7767 134.07 43.2518 127.208C40.594 120.016 35.2785 123.843 33.0858 123.117C30.8931 122.391 28.8333 115.332 25.046 115.529C21.5909 115.727 22.056 119.95 20.9265 120.676C19.7969 121.402 16.5411 117.971 15.1458 122.127C13.8834 125.756 24.5145 144.494 32.222 147.925H32.1556Z" fill="#EE7733"/>
    <path d="M34.8133 149.838C33.8167 149.838 32.7536 149.574 31.624 149.113C23.7171 145.616 12.1558 126.482 13.8834 121.731C14.3485 120.412 15.0794 119.554 16.0096 119.092C17.4049 118.432 18.7338 118.96 19.7969 119.29C19.9298 119.29 20.1291 119.422 20.3285 119.488C20.3285 119.29 20.4614 118.96 20.5943 118.696C21.0594 117.245 21.8567 114.474 25.1125 114.276C28.3018 114.144 30.2287 117.113 31.7569 119.488C32.3549 120.412 33.2187 121.731 33.6838 121.929C33.9496 122.061 34.8133 121.929 35.4113 121.797C38.0027 121.335 42.3216 120.61 44.6471 126.878C46.6404 132.222 44.6471 143.372 39.8631 147.859C38.3349 149.245 36.6738 149.97 34.8798 149.97L34.8133 149.838ZM32.6871 146.737C34.614 147.595 36.3416 147.265 37.9362 145.814C41.9229 142.119 43.6504 132.156 41.9893 127.669C40.4611 123.447 38.2685 123.843 35.6771 124.305C34.5476 124.502 33.5509 124.7 32.6207 124.305C31.3582 123.909 30.428 122.457 29.3649 120.874C28.1689 119.026 26.5742 116.783 25.046 116.849C23.7836 116.915 23.4514 117.707 22.9198 119.356C22.654 120.346 22.3882 121.204 21.5909 121.731C20.6607 122.325 19.664 121.995 18.7338 121.731C18.1358 121.533 17.4049 121.269 17.0063 121.401C16.7405 121.533 16.4747 121.929 16.2754 122.523C15.2787 125.294 25.2454 143.372 32.6207 146.671L32.6871 146.737Z" fill="black"/>
    <path d="M146.905 17.4851C146.905 17.4851 146.573 17.4851 146.44 17.3532L142.785 15.2419C142.32 14.9779 142.121 14.3841 142.387 13.9223C142.652 13.4604 143.25 13.2625 143.716 13.5264L147.37 15.6377C147.835 15.9016 148.034 16.4955 147.769 16.9573C147.569 17.2872 147.237 17.4851 146.905 17.4851Z" fill="black"/>
    <path d="M128.367 11.8765L124.845 11.6786C124.314 11.6786 123.849 11.1508 123.915 10.6229C123.915 10.0951 124.38 9.69922 124.912 9.69922L128.433 9.89716C128.965 9.89716 129.43 10.425 129.363 10.9528C129.363 11.4806 128.898 11.8765 128.367 11.8765Z" fill="black"/>
</svg>
